<svg width="20" height="19" viewBox="0 0 20 19" fill="none" xmlns="http://www.w3.org/2000/svg">
<path d="M5.62908 16.9728C5.69846 18.6829 5.75771 18.8642 6.27221 18.9372C6.71474 19.0004 7.16246 18.588 8.3175 17.0533M5.62908 16.9728L19.1993 14.6806C18.8594 15.0203 18.0354 15.0889 14.2936 15.0889H9.79605L8.3175 17.0533M5.62908 16.9728L5.55269 15.0889L5.62908 16.9728ZM8.3175 17.0533L7.83811 16.6925L9.31666 14.728L9.49669 14.4889H9.79605H14.2936C16.1704 14.4889 17.2857 14.4713 17.9724 14.4142C18.316 14.3856 18.5203 14.3493 18.6456 14.3123C18.7053 14.2946 18.7381 14.2794 18.7547 14.2702C18.764 14.2651 18.7692 14.2614 18.7721 14.259M8.3175 17.0533L7.83811 16.6925C7.25821 17.463 6.88739 17.9079 6.62117 18.1532C6.49103 18.273 6.41303 18.3192 6.37452 18.3361C6.3649 18.3403 6.35879 18.3423 6.35574 18.3431M18.7721 14.259L1.77309 1.15529C1.77283 1.15557 1.77257 1.15586 1.77231 1.15615C1.74151 1.1901 1.63223 1.31055 1.57112 2.30161C1.512 3.26044 1.49823 4.8793 1.49823 7.72831C1.49823 8.05385 1.49801 8.36448 1.49779 8.66095C1.49673 10.1247 1.49592 11.2434 1.52366 12.1068C1.55768 13.1656 1.63445 13.7491 1.76113 14.0819C1.81829 14.232 1.87425 14.2981 1.91518 14.333C1.95632 14.3681 2.02264 14.4059 2.15615 14.4355C2.41754 14.4934 2.76351 14.492 3.32084 14.4898C3.43778 14.4894 3.56401 14.4889 3.70073 14.4889H5.55269H6.12885L6.15219 15.0645L6.22859 16.9485C6.24594 17.3762 6.26219 17.6947 6.28406 17.9369C6.30261 18.1424 6.32323 18.2664 6.34216 18.3411M18.7721 14.259C18.7803 14.2451 18.8018 14.2008 18.8266 14.0958C18.8689 13.9173 18.9068 13.6259 18.9355 13.1354C18.9926 12.1595 19.0075 10.5225 19.0075 7.70493C19.0075 4.67842 18.9975 3.05321 18.935 2.13277C18.9035 1.66935 18.8611 1.43277 18.8192 1.30189C18.7886 1.20637 18.766 1.1852 18.7297 1.15232L18.7295 1.15212C18.7294 1.15202 18.7292 1.15187 18.729 1.15167C18.724 1.14661 18.6859 1.10827 18.4882 1.06575C18.2681 1.01842 17.9096 0.978156 17.2947 0.94853C16.0713 0.889593 13.9626 0.877344 10.2077 0.877344C6.27112 0.877344 4.17182 0.885951 3.00418 0.948465C2.4148 0.980019 2.10936 1.02364 1.93871 1.07054C1.81857 1.10356 1.79753 1.12752 1.77789 1.14988C1.77632 1.15166 1.77477 1.15344 1.77317 1.1552L18.7721 14.259ZM6.35574 18.3431C6.35098 18.3424 6.34646 18.3417 6.34216 18.3411M6.35574 18.3431C6.35348 18.3437 6.3529 18.3437 6.35381 18.3436C6.35484 18.3434 6.35581 18.3434 6.3565 18.3434C6.35667 18.3434 6.35682 18.3434 6.35695 18.3434C6.35766 18.3434 6.35782 18.3434 6.35697 18.3433L6.35652 18.3432C6.35626 18.3432 6.356 18.3431 6.35574 18.3431ZM6.34216 18.3411C6.29009 18.3331 6.27126 18.3269 6.27118 18.3271C6.27112 18.3273 6.28473 18.3321 6.303 18.3446C6.32567 18.3601 6.34085 18.3761 6.35018 18.3878C6.3503 18.388 6.35042 18.3881 6.35054 18.3883C6.35874 18.3986 6.36231 18.4055 6.36242 18.4054C6.36253 18.4054 6.35934 18.3987 6.35396 18.3823C6.35337 18.3805 6.35278 18.3786 6.35219 18.3768C6.35209 18.3764 6.35199 18.3761 6.35189 18.3758C6.34871 18.3656 6.34547 18.3541 6.34216 18.3411ZM18.7712 14.2605C18.7695 14.2632 18.7686 14.2643 18.7685 14.2642C18.7684 14.2641 18.7693 14.2627 18.7712 14.2605Z" stroke="#1AAEF4" stroke-width="1.2"/>
</svg>
