<svg width="18" height="9" viewBox="0 0 18 9" fill="none" xmlns="http://www.w3.org/2000/svg">
    <g clip-path="url(#7vrqquwc3a)">
        <path d="M18 4.586c-.094-.207-.27-.356-.439-.51L14.158.972c-.382-.348-.938-.282-1.163.134-.14.255-.082.545.159.765.754.692 1.51 1.382 2.267 2.07.046.043.105.081.158.122l-.018.037h-.184c-4.774 0-9.549-.002-14.323-.005-.45 0-.836.046-1.054.457v.388c.055.014.054.064.076.1a.672.672 0 0 0 .259.256.75.75 0 0 0 .367.095h14.882c-.057.056-.094.098-.137.136l-2.304 2.105a.62.62 0 0 0-.2.3.578.578 0 0 0 .009.35.605.605 0 0 0 .191.295.69.69 0 0 0 .334.154.732.732 0 0 0 .67-.197l2.044-1.865c.482-.44.961-.882 1.447-1.319.155-.139.293-.284.363-.474L18 4.586z" fill="#1AAEF4"/>
    </g>
    <defs>
        <clipPath id="7vrqquwc3a">
            <path fill="#fff" transform="matrix(1 0 0 -1 0 8.748)" d="M0 0h18v8H0z"/>
        </clipPath>
    </defs>
</svg>
