<?xml version="1.0" encoding="UTF-8"?>
<svg xmlns="http://www.w3.org/2000/svg" width="37" height="41" viewBox="0 0 37 41" fill="none">
  <g clip-path="url(#clip0_270_1721)">
    <path d="M33.954 8.86816C33.9599 9.54604 33.7917 10.3727 33.717 11.2077C33.6459 12.019 33.8355 12.7146 34.4007 13.3157C34.9233 13.8755 35.4542 14.4329 35.9353 15.027C37.183 16.5693 37.1759 17.8613 35.9353 19.4048C35.6138 19.8259 35.257 20.219 34.8688 20.5799C33.8023 21.5152 33.5263 22.6608 33.7881 24.0107C33.9433 24.7766 33.9947 25.5599 33.941 26.3395C33.8734 27.2347 33.4872 27.9551 32.7169 28.4216C32.4302 28.5964 32.461 28.7098 32.6044 28.9519C33.7893 30.9595 34.9683 32.9849 36.1521 34.9996C36.3547 35.3421 36.5384 35.6763 36.2422 36.0531C35.9459 36.4298 35.5727 36.333 35.1911 36.2302C33.5132 35.7756 31.8318 35.3386 30.1586 34.8674C29.8328 34.7753 29.7581 34.8815 29.6846 35.152C29.2462 36.8124 28.7971 38.4705 28.3504 40.1298C28.3243 40.229 28.2923 40.327 28.2686 40.4274C28.2416 40.5739 28.1681 40.7079 28.0588 40.8095C27.9496 40.9112 27.8104 40.9751 27.6619 40.9919C27.3325 41.0392 27.0943 40.8679 26.9332 40.5928C26.4876 39.831 26.048 39.0669 25.606 38.304C24.9061 37.0955 24.2062 35.887 23.5063 34.6784C23.4364 34.5603 23.4115 34.4009 23.2267 34.3702C22.1306 34.1942 21.1803 33.6356 20.1884 33.1892C19.7826 32.9959 19.3384 32.8955 18.8886 32.8955C18.4387 32.8955 17.9945 32.9959 17.5886 33.1892C16.5968 33.6309 15.643 34.18 14.5516 34.3702C14.3526 34.4044 14.3241 34.5863 14.2471 34.7174C13.1238 36.6495 12.004 38.5831 10.8878 40.5184C10.7124 40.8219 10.4849 41.0427 10.114 40.9907C9.7431 40.9388 9.55823 40.6849 9.47528 40.3412C9.46462 40.2987 9.46107 40.2538 9.44922 40.2113C8.99301 38.5249 8.52851 36.8396 8.08652 35.1496C8.00832 34.8508 7.92419 34.7882 7.61254 34.8756C5.89555 35.348 4.16907 35.7933 2.4497 36.2621C2.08711 36.3613 1.77073 36.3578 1.53137 36.0472C1.29201 35.7366 1.3797 35.4248 1.56455 35.1024C2.76372 33.0451 3.94867 30.9796 5.15377 28.9259C5.30544 28.6661 5.29006 28.5598 5.02463 28.3968C4.15369 27.863 3.82425 27.0257 3.7887 26.0431C3.75789 25.1692 3.90722 24.3106 4.01861 23.4509C4.14777 22.4813 3.92498 21.6617 3.23297 20.9448C2.66182 20.3543 2.07407 19.7639 1.5918 19.0931C0.643838 17.7645 0.643855 16.6437 1.57997 15.3139C2.07646 14.6124 2.69736 14.0149 3.28154 13.3972C3.94156 12.6945 4.14181 11.8938 4.02095 10.9609C3.92141 10.1885 3.79225 9.41732 3.78396 8.63433C3.77448 6.92073 4.50679 5.93225 6.16572 5.48938C6.96201 5.27681 7.77369 5.12092 8.58301 4.96149C8.96195 4.89516 9.32056 4.743 9.63118 4.51675C9.94181 4.2905 10.1962 3.9962 10.3747 3.65652C10.7704 2.94793 11.1603 2.23934 11.5987 1.56382C12.2303 0.583607 13.0645 -0.0954505 14.3241 0.00375162C14.9332 0.0509907 15.4996 0.26474 16.053 0.512745C16.5625 0.741855 17.0768 0.962709 17.5816 1.20363C17.9841 1.40745 18.4293 1.51368 18.8808 1.51368C19.3324 1.51368 19.7776 1.40745 20.1801 1.20363C20.8319 0.895393 21.4836 0.596607 22.159 0.333249C23.9364 -0.361166 25.1036 0.000208166 26.1558 1.58272C26.5943 2.24288 26.9699 2.94439 27.3562 3.63762C27.5372 3.98442 27.7962 4.28481 28.1129 4.5153C28.4297 4.74578 28.7957 4.90011 29.1822 4.96622C29.9915 5.12329 30.8056 5.27564 31.5984 5.50002C33.2976 5.98659 33.9872 6.95616 33.954 8.86816ZM32.5226 8.98626C32.57 7.58089 32.2963 7.19471 31.09 6.8605C30.6079 6.72356 30.117 6.6198 29.6206 6.54991C27.8432 6.32199 26.5398 5.45397 25.7755 3.81713C25.5368 3.32612 25.2636 2.85255 24.9579 2.39996C24.2943 1.3914 23.8049 1.23433 22.6816 1.66893C22.1451 1.87333 21.6202 2.10673 21.1092 2.36807C19.5912 3.15224 18.0923 3.14397 16.5791 2.35508C16.0556 2.08495 15.5167 1.84559 14.9652 1.63822C13.9295 1.24495 13.4307 1.39495 12.8145 2.31139C12.4387 2.87387 12.0965 3.45788 11.7895 4.06041C11.088 5.43861 9.98009 6.21451 8.45624 6.46842C7.7038 6.59478 6.94541 6.71524 6.21667 6.97152C5.53769 7.20771 5.18813 7.65648 5.17746 8.38869C5.17423 9.06634 5.23135 9.74293 5.34812 10.4105C5.62184 12.0639 5.26043 13.4976 4.01268 14.6798C3.57649 15.0989 3.17024 15.548 2.79691 16.0237C2.06461 16.9425 2.06341 17.5153 2.80637 18.4246C3.28035 19.0069 3.80176 19.5513 4.31247 20.1028C4.7226 20.5287 5.03346 21.0395 5.22291 21.5988C5.41236 22.1581 5.47575 22.7522 5.40855 23.3387C5.32561 24.261 5.14073 25.1739 5.17984 26.1081C5.20709 26.7576 5.50571 27.1792 6.11122 27.4142C6.66135 27.628 7.23685 27.7701 7.82347 27.837C9.80708 28.0567 11.2456 29.0015 12.0585 30.8532C12.2545 31.2656 12.4852 31.6607 12.7481 32.0342C13.42 33.0463 13.9331 33.2152 15.0706 32.7605C15.6631 32.5243 16.2354 32.2633 16.8042 31.9858C18.1515 31.328 19.4917 31.3008 20.8473 31.9598C21.403 32.2303 21.967 32.4853 22.5394 32.718C23.7954 33.2294 24.3275 33.0593 25.0491 31.9067C25.3762 31.3835 25.6748 30.8438 25.9639 30.2958C26.6441 29.0121 27.688 28.2527 29.1277 27.9976C29.8813 27.8654 30.6433 27.7544 31.372 27.5052C32.2619 27.2017 32.5143 26.8544 32.5321 25.9156C32.5347 25.297 32.48 24.6794 32.3686 24.0709C32.0937 22.4246 32.4231 20.9814 33.672 19.7922C34.14 19.3411 34.5756 18.8576 34.9755 18.3455C35.6272 17.5188 35.6177 16.9579 34.9909 16.1146C34.806 15.8666 34.5963 15.6423 34.3901 15.4061C33.9979 14.9656 33.595 14.5357 33.2051 14.0916C32.4847 13.2649 32.205 12.3072 32.3046 11.2301C32.3709 10.4247 32.4562 9.61927 32.519 8.98036L32.5226 8.98626ZM10.383 38.3926C10.4446 38.3489 10.4896 38.3324 10.5086 38.3005C11.2717 36.9766 12.0312 35.6504 12.7979 34.3289C12.8844 34.1801 12.8619 34.1127 12.7185 34.0218C12.0383 33.5907 11.5987 32.9471 11.2089 32.2657C10.8949 31.7177 10.582 31.1686 10.2609 30.6218C10.1046 30.3367 9.888 30.0888 9.62612 29.8953C9.36425 29.7018 9.06333 29.5672 8.74418 29.501C8.16948 29.3735 7.59003 29.2648 7.01888 29.1207C6.75819 29.0558 6.6326 29.1278 6.49989 29.3569C5.60525 30.9276 4.69164 32.4877 3.7887 34.0537C3.72946 34.1564 3.57543 34.2639 3.65363 34.3796C3.7508 34.5237 3.92025 34.3997 4.03993 34.369C5.38011 34.0253 6.71672 33.6604 8.05453 33.3061C8.73706 33.1254 9.0025 33.2825 9.18853 33.9592C9.58431 35.4236 9.9789 36.8928 10.3794 38.3843L10.383 38.3926ZM34.1709 34.5225C33.121 32.7109 32.1185 30.9796 31.1232 29.2542C31.0976 29.1945 31.0494 29.1472 30.989 29.1227C30.9287 29.0981 30.8611 29.0983 30.8009 29.1231C30.3837 29.2129 29.9631 29.2861 29.5424 29.3593C28.6253 29.5282 27.8231 29.8671 27.3598 30.754C27.0801 31.2878 26.7673 31.8051 26.4675 32.3247C26.0942 32.9636 25.6854 33.5789 25.0456 33.9911C24.8441 34.121 24.8086 34.2013 24.9436 34.4198C25.6866 35.6704 26.4082 36.9341 27.1394 38.1918C27.1797 38.2603 27.195 38.369 27.3337 38.3524C27.7287 36.888 28.1236 35.4189 28.5186 33.945C28.6952 33.292 28.9748 33.1278 29.6206 33.299C30.1622 33.4419 30.7013 33.5919 31.2417 33.736L34.1709 34.5225Z" fill="#E8B400"></path>
    <path d="M18.8423 28.2258C12.7363 28.2152 7.75593 23.2398 7.78792 17.1813C7.80574 14.2649 8.97967 11.4738 11.0537 9.41641C13.1278 7.35903 15.9338 6.20224 18.8601 6.19824C24.9555 6.19824 29.9418 11.1867 29.9145 17.2487C29.8873 23.3106 24.9223 28.2365 18.8423 28.2258ZM18.8566 26.798C24.1794 26.798 28.5068 22.4875 28.4949 17.2026C28.4852 14.6568 27.4647 12.2184 25.6564 10.4204C23.8481 8.62231 21.3991 7.61088 18.8447 7.60716C13.5361 7.60716 9.20275 11.9283 9.20867 17.2109C9.2162 19.756 10.2361 22.1944 12.0446 23.9913C13.8531 25.7883 16.3028 26.7972 18.8566 26.7969V26.798Z" fill="#E8B400"></path>
    <path d="M14.8413 14.4V20H13.5453V15.44H12.4253V14.4H14.8413ZM18.2142 20.096C17.7502 20.096 17.3368 19.9813 16.9742 19.752C16.6115 19.5227 16.3262 19.192 16.1182 18.76C15.9155 18.3227 15.8142 17.8027 15.8142 17.2C15.8142 16.5973 15.9155 16.08 16.1182 15.648C16.3262 15.2107 16.6115 14.8773 16.9742 14.648C17.3368 14.4187 17.7502 14.304 18.2142 14.304C18.6782 14.304 19.0915 14.4187 19.4542 14.648C19.8168 14.8773 20.0995 15.2107 20.3022 15.648C20.5102 16.08 20.6142 16.5973 20.6142 17.2C20.6142 17.8027 20.5102 18.3227 20.3022 18.76C20.0995 19.192 19.8168 19.5227 19.4542 19.752C19.0915 19.9813 18.6782 20.096 18.2142 20.096ZM18.2142 19C18.5555 19 18.8222 18.8533 19.0142 18.56C19.2115 18.2667 19.3102 17.8133 19.3102 17.2C19.3102 16.5867 19.2115 16.1333 19.0142 15.84C18.8222 15.5467 18.5555 15.4 18.2142 15.4C17.8782 15.4 17.6115 15.5467 17.4142 15.84C17.2222 16.1333 17.1262 16.5867 17.1262 17.2C17.1262 17.8133 17.2222 18.2667 17.4142 18.56C17.6115 18.8533 17.8782 19 18.2142 19ZM23.6438 20.096C23.1798 20.096 22.7665 19.9813 22.4038 19.752C22.0412 19.5227 21.7558 19.192 21.5478 18.76C21.3452 18.3227 21.2438 17.8027 21.2438 17.2C21.2438 16.5973 21.3452 16.08 21.5478 15.648C21.7558 15.2107 22.0412 14.8773 22.4038 14.648C22.7665 14.4187 23.1798 14.304 23.6438 14.304C24.1078 14.304 24.5212 14.4187 24.8838 14.648C25.2465 14.8773 25.5292 15.2107 25.7318 15.648C25.9398 16.08 26.0438 16.5973 26.0438 17.2C26.0438 17.8027 25.9398 18.3227 25.7318 18.76C25.5292 19.192 25.2465 19.5227 24.8838 19.752C24.5212 19.9813 24.1078 20.096 23.6438 20.096ZM23.6438 19C23.9852 19 24.2518 18.8533 24.4438 18.56C24.6412 18.2667 24.7398 17.8133 24.7398 17.2C24.7398 16.5867 24.6412 16.1333 24.4438 15.84C24.2518 15.5467 23.9852 15.4 23.6438 15.4C23.3078 15.4 23.0412 15.5467 22.8438 15.84C22.6518 16.1333 22.5558 16.5867 22.5558 17.2C22.5558 17.8133 22.6518 18.2667 22.8438 18.56C23.0412 18.8533 23.3078 19 23.6438 19Z" fill="#E8B400"></path>
  </g>
  <defs>
    <clipPath id="clip0_270_1721">
      <rect width="36.0867" height="41" fill="white" transform="translate(0.865433)"></rect>
    </clipPath>
  </defs>
</svg>
