<?xml version="1.0" encoding="UTF-8"?>
<svg xmlns="http://www.w3.org/2000/svg" width="35" height="33" viewBox="0 0 35 33" fill="none">
  <g clip-path="url(#clip0_155_722)">
    <path d="M34.9997 2.70451V30.455C34.8833 30.5272 34.8978 30.6545 34.8626 30.758C34.6674 31.3304 34.2851 31.8302 33.7701 32.186C33.2552 32.5418 32.6339 32.7356 31.995 32.7396C22.4796 32.7396 12.9633 32.7396 3.44613 32.7396C2.65082 32.7369 1.88891 32.4385 1.32654 31.9094C0.764168 31.3803 0.446965 30.6635 0.444112 29.9153C0.440504 21.0057 0.440504 12.095 0.444112 3.18314C0.446489 2.43485 0.763383 1.71783 1.32563 1.18855C1.88788 0.659266 2.64985 0.360701 3.44522 0.358015C12.9618 0.35462 22.4781 0.35462 31.9941 0.358015C32.6388 0.360929 33.2657 0.557544 33.7834 0.919193C34.301 1.28084 34.6823 1.78861 34.8716 2.36845C34.9095 2.47453 34.8806 2.61455 34.9997 2.70451ZM17.7562 9.87891C12.7733 9.87891 7.79037 9.87693 2.80747 9.87297C2.53054 9.87297 2.45928 9.92813 2.46018 10.1955C2.4692 16.6926 2.47162 23.1895 2.46741 29.6862C2.46741 30.4618 2.8607 30.8327 3.68246 30.8327H31.7569C32.5795 30.8327 32.9746 30.4618 32.9746 29.6879C32.9746 23.1912 32.977 16.6943 32.9818 10.1972C32.9818 9.93323 32.9169 9.87212 32.6363 9.87297C27.6751 9.87863 22.715 9.87919 17.7562 9.87467V9.87891ZM17.721 7.97456C22.7033 7.97456 27.6859 7.97626 32.6688 7.97966C32.916 7.97966 32.9845 7.93128 32.9818 7.69027C32.9683 6.24758 32.9755 4.81168 32.9746 3.37324C32.9746 2.64086 32.5696 2.25982 31.792 2.25982H3.64818C2.86972 2.25982 2.4656 2.64086 2.4647 3.37239C2.4647 4.80065 2.47282 6.22891 2.45658 7.65717C2.45658 7.92364 2.52514 7.98136 2.80387 7.98051C7.77715 7.97089 12.7495 7.96749 17.721 7.97032V7.97456Z" fill="#0089CA"></path>
    <path d="M21.7711 13.695C21.7749 13.8465 21.7383 13.9965 21.6646 14.1312C19.6633 18.5238 17.6616 22.916 15.6597 27.308C15.399 27.8792 14.8406 28.1159 14.2985 27.9021C13.7419 27.6857 13.5264 27.1307 13.7888 26.5527C15.7872 22.1619 17.787 17.7713 19.7884 13.381C20.0157 12.8837 20.4604 12.6486 20.961 12.7386C21.1922 12.7863 21.3989 12.9074 21.5464 13.0816C21.6939 13.2557 21.7732 13.4723 21.7711 13.695V13.695Z" fill="#0089CA"></path>
    <path d="M23.779 25.1142C23.5739 25.1168 23.3732 25.0581 23.2058 24.9467C23.0384 24.8352 22.9128 24.6766 22.8472 24.4938C22.6848 24.0907 22.8057 23.6808 23.1891 23.3906C24.3275 22.5289 25.468 21.6698 26.6105 20.8133C27.2284 20.3499 27.2284 20.355 26.6105 19.8899C25.4764 19.0413 24.3446 18.1887 23.2152 17.3321C22.7164 16.9553 22.6334 16.3664 23.0096 15.9327C23.3704 15.516 24.0018 15.4677 24.4853 15.8326C26.1379 17.0699 27.7883 18.3106 29.4367 19.5547C30.0383 20.0088 30.0374 20.697 29.4367 21.1519C27.7889 22.3965 26.1388 23.6373 24.4862 24.874C24.2912 25.0352 24.0385 25.121 23.779 25.1142V25.1142Z" fill="#0089CA"></path>
    <path d="M11.6469 25.1141C11.3973 25.1194 11.1548 25.0361 10.9676 24.8807C9.30906 23.632 7.6511 22.3831 5.99374 21.1339C5.4056 20.6892 5.41101 20.0095 6.00185 19.5631C7.64899 18.3184 9.29853 17.0769 10.9505 15.8384C11.4493 15.4642 12.0898 15.5159 12.4488 15.9487C12.8078 16.3816 12.7194 16.9671 12.2133 17.3498C10.9685 18.2884 9.7255 19.2296 8.46985 20.1554C8.23622 20.3252 8.27049 20.399 8.47887 20.5535C9.73271 21.4824 10.9803 22.4185 12.2215 23.3616C12.6283 23.668 12.7627 24.0736 12.5994 24.4852C12.5325 24.6718 12.404 24.8333 12.2326 24.9464C12.0613 25.0595 11.8561 25.1183 11.6469 25.1141V25.1141Z" fill="#0089CA"></path>
    <path d="M26.8344 6.06514C25.8421 6.06514 24.8553 6.06514 23.8657 6.06514C23.2198 6.06514 22.7778 5.66628 22.7833 5.09854C22.7887 4.54947 23.2343 4.16504 23.8657 4.16504C25.8448 4.16504 27.8239 4.16504 29.803 4.16504C30.4507 4.16504 30.8927 4.5622 30.8854 5.13079C30.8791 5.68241 30.4344 6.06429 29.803 6.06429C28.8134 6.06684 27.8239 6.06514 26.8344 6.06514Z" fill="#0089CA"></path>
    <path d="M6.58403 5.12659C6.58354 5.25348 6.55584 5.37897 6.50258 5.49554C6.44931 5.61211 6.37159 5.71737 6.27405 5.80501C6.17652 5.89265 6.06118 5.96087 5.93496 6.00557C5.80873 6.05028 5.67422 6.07055 5.53946 6.06518C5.4075 6.06265 5.27737 6.0356 5.15656 5.98558C5.03575 5.93556 4.92665 5.86357 4.83552 5.77374C4.7444 5.68391 4.67305 5.57801 4.62558 5.46214C4.57812 5.34627 4.55547 5.22271 4.55894 5.09858C4.55955 4.97173 4.58735 4.84629 4.64066 4.72977C4.69396 4.61326 4.77169 4.50805 4.8692 4.42043C4.9667 4.33282 5.08199 4.26459 5.20816 4.21984C5.33432 4.1751 5.46879 4.15474 5.60351 4.15999C5.73547 4.16252 5.8656 4.18957 5.98641 4.23959C6.10722 4.28961 6.21633 4.3616 6.30746 4.45143C6.39859 4.54126 6.46993 4.64716 6.5174 4.76303C6.56487 4.8789 6.58751 5.00246 6.58403 5.12659V5.12659Z" fill="#0089CA"></path>
    <path d="M10.6349 5.09666C10.6385 5.22346 10.615 5.34965 10.5655 5.46768C10.5161 5.58571 10.4419 5.69314 10.3473 5.78355C10.2528 5.87395 10.1398 5.94548 10.0151 5.99383C9.89045 6.04219 9.75671 6.06638 9.62189 6.06496C9.49021 6.06642 9.35954 6.04341 9.23734 5.99724C9.11514 5.95107 9.00383 5.88266 8.9098 5.79593C8.81577 5.7092 8.74087 5.60585 8.68938 5.49183C8.6379 5.3778 8.61085 5.25534 8.60979 5.13146C8.60589 5.00466 8.62927 4.87844 8.67854 4.76036C8.7278 4.64229 8.80193 4.5348 8.89646 4.44436C8.991 4.35392 9.10399 4.28238 9.22865 4.23405C9.35331 4.18573 9.48707 4.16162 9.62189 4.16316C9.75357 4.16181 9.88425 4.18491 10.0064 4.2311C10.1286 4.2773 10.24 4.3457 10.334 4.4324C10.4281 4.51909 10.5031 4.62238 10.5547 4.73636C10.6064 4.85034 10.6336 4.97277 10.6349 5.09666Z" fill="#0089CA"></path>
    <path d="M14.6835 5.11442C14.6848 5.24127 14.6588 5.36705 14.6072 5.48424C14.5556 5.60143 14.4794 5.70761 14.3831 5.79643C14.2869 5.88525 14.1725 5.95489 14.047 6.00116C13.9214 6.04744 13.7873 6.0694 13.6525 6.06574C13.5207 6.06464 13.3904 6.03906 13.2692 5.99048C13.1479 5.9419 13.038 5.87127 12.9458 5.78265C12.8536 5.69403 12.781 5.58916 12.7319 5.47405C12.6829 5.35894 12.6586 5.23586 12.6602 5.11187C12.6588 4.98507 12.6847 4.8593 12.7362 4.74211C12.7877 4.62493 12.8638 4.51874 12.96 4.4299C13.0562 4.34107 13.1705 4.27142 13.296 4.22514C13.4215 4.17886 13.5556 4.15689 13.6904 4.16055C13.8222 4.16155 13.9526 4.18704 14.074 4.23557C14.1954 4.2841 14.3053 4.35471 14.3976 4.44334C14.4899 4.53197 14.5627 4.63689 14.6117 4.75205C14.6608 4.86721 14.6852 4.99036 14.6835 5.11442Z" fill="#0089CA"></path>
  </g>
  <defs>
    <clipPath id="clip0_155_722">
      <rect width="34.5583" height="32.3841" fill="white" transform="translate(0.441406 0.350586)"></rect>
    </clipPath>
  </defs>
</svg>
