<?xml version="1.0" encoding="UTF-8"?>
<svg xmlns="http://www.w3.org/2000/svg" width="42" height="37" viewBox="0 0 42 37" fill="none">
  <g clip-path="url(#clip0_111_4717)">
    <path d="M40.0004 10.1452L36.6922 12.6563C33.457 15.1133 30.2213 17.571 26.9853 20.0295C25.2539 21.3449 23.8255 21.3449 22.099 20.0295C19.0592 17.7177 16.0173 15.4058 12.9733 13.094C12.6904 12.9051 12.4653 12.6462 12.3216 12.3442C11.7218 12.6778 11.1319 12.9971 10.5518 13.3319C10.0374 13.6261 9.77641 14.0972 9.68613 14.6473C9.54216 15.4174 9.68407 16.2118 10.0868 16.8906C11.5222 19.2662 12.9511 21.6462 14.3733 24.0306C14.7372 24.6413 15.2918 25.1247 15.9575 25.4118C16.6736 25.7334 17.3723 25.7585 18.0599 25.3233C18.536 25.0243 19.0493 24.7696 19.5365 24.4958C21.0824 23.636 22.7025 23.7508 24.1037 24.8199C24.4866 25.0973 24.8333 25.4185 25.1364 25.7765C26.6031 27.6036 27.9648 29.4906 28.6684 31.7423C28.8204 32.2125 28.8803 32.706 28.8453 33.1975C28.8312 33.5852 28.7135 33.9628 28.5037 34.2934C28.2939 34.6241 27.9992 34.8966 27.6482 35.0845C22.6073 37.9412 17.7235 37.5179 12.9993 34.3909C10.9758 33.036 9.26763 31.2871 7.98442 29.2562C5.94631 26.085 3.98241 22.8671 2.17929 19.5704C0.592584 16.6646 -0.237249 13.5436 0.0632725 10.2313C0.434286 6.1656 2.38582 2.98601 5.98094 0.790545C6.16274 0.679337 6.36309 0.595629 6.53994 0.477246C7.81004 -0.371762 9.00594 0.0371999 9.91988 0.794132C10.8548 1.5702 11.5709 2.52682 12.1546 3.55759C12.6629 4.45682 13.2157 5.33931 13.5991 6.29714C13.7228 6.6188 13.9565 6.56499 14.1927 6.56499H38.619C38.8491 6.56499 39.0816 6.56499 39.3116 6.57815C40.9255 6.66903 41.9829 7.74643 41.9829 9.30573C41.9829 15.0622 41.9594 20.8176 42.0002 26.5729C42.0113 28.1621 40.7635 29.2742 39.3091 29.2981C36.1802 29.3483 33.0489 29.3208 29.9188 29.3124C29.6606 29.3182 29.4105 29.2248 29.2235 29.0526C29.0364 28.8805 28.9275 28.6437 28.9207 28.3941C28.8997 27.8548 29.2843 27.4554 29.8866 27.4016C30.0387 27.3872 30.1945 27.392 30.3479 27.392H38.6747C38.8293 27.392 38.9839 27.392 39.1372 27.386C39.7902 27.3454 40.0029 27.1253 40.0029 26.4832V10.1452H40.0004ZM20.73 35.0713C22.5702 35.051 24.2188 34.7222 25.735 33.9246C27.0953 33.2071 27.1324 33.0875 26.5611 31.6753C25.9316 30.1208 24.9806 28.7528 23.964 27.4207C23.634 26.9877 23.2426 26.6016 22.8015 26.2739C22.0978 25.7466 21.3768 25.6342 20.5878 26.1304C20.0337 26.4784 19.445 26.775 18.87 27.0871C18.4207 27.352 17.9112 27.5068 17.3859 27.5379C15.3169 27.6108 13.7463 26.757 12.6988 25.0578C11.2345 22.6806 9.82217 20.2747 8.38017 17.8831C8.02005 17.3091 7.78246 16.6711 7.68142 16.0069C7.44892 14.3328 8.00297 12.3622 9.8803 11.4737C10.4455 11.207 10.9674 10.8579 11.5189 10.5601C12.1299 10.2289 12.355 9.70991 12.3216 9.06538C12.311 8.81202 12.2695 8.56076 12.1979 8.31682C11.5524 6.2655 10.4993 4.35563 9.09746 2.69423C8.87199 2.42834 8.59988 2.20289 8.29359 2.02818C8.12788 1.93252 7.97823 1.8823 7.78283 2.00068C7.35369 2.26136 6.88003 2.45986 6.47315 2.74924C3.62129 4.78207 2.1224 7.51325 2.00986 10.9344C1.9171 13.7242 2.65295 16.3477 4.0022 18.7811C5.76946 21.9667 7.67524 25.0781 9.62554 28.1621C10.4592 29.4551 11.479 30.6268 12.6542 31.6418C14.978 33.6878 17.6308 35.0211 20.73 35.0713ZM38.9678 8.47825H26.3447C22.4597 8.47825 18.576 8.47586 14.6936 8.47107C14.3795 8.47107 14.2595 8.5201 14.2966 8.85253C14.3597 9.44902 14.2524 10.0508 13.9862 10.5924C13.891 10.7945 13.6473 11.0205 13.6931 11.1724C13.7475 11.3517 14.0443 11.4629 14.2335 11.6064L23.2801 18.4786C24.3078 19.2595 24.7815 19.2583 25.8104 18.4786L35.3652 11.2202L38.9678 8.47825Z" fill="#13C200"></path>
  </g>
  <defs>
    <clipPath id="clip0_111_4717">
      <rect width="42" height="37" fill="white"></rect>
    </clipPath>
  </defs>
</svg>
