<?xml version="1.0" encoding="UTF-8"?>
<svg xmlns="http://www.w3.org/2000/svg" width="39.211" height="37.529" viewBox="0 0 39.211 37.529">
  <g id="Cost_Effective" transform="translate(-7798.164 -2506.115)">
    <path id="Path_91" data-name="Path 91" d="M7965.731,2648.52c-.145.087-.1.249-.129.372a7.256,7.256,0,0,1-7.1,5.9c-3.419.019-6.839,0-10.258.01-.215,0-.3-.047-.351-.275a3.327,3.327,0,0,0-2.713-2.715c-.226-.05-.28-.131-.277-.349q.017-1.646,0-3.292c0-.224.062-.3.284-.343a3.4,3.4,0,0,0,2.777-3.288,11.822,11.822,0,0,0-.056-2.215,3.417,3.417,0,0,0-3.319-2.838c-1.135-.017-2.27,0-3.4,0-.083-.127.023-.2.064-.283a21.24,21.24,0,0,1,4.182-5.662.61.61,0,0,1,.469-.187q6.431.007,12.861,0a.652.652,0,0,1,.5.2,21.617,21.617,0,0,1,6.168,11.5,12.31,12.31,0,0,0,.3,1.626Zm-12.506-9.968a1.31,1.31,0,0,1,.535.3.945.945,0,0,0,1.421-.025.979.979,0,0,0-.168-1.423,3.137,3.137,0,0,0-1.478-.757c-.242-.05-.351-.145-.315-.4a1.131,1.131,0,0,0-.075-.565.943.943,0,0,0-1.055-.571.848.848,0,0,0-.759.868c.037.532-.18.729-.65.938a3.11,3.11,0,0,0-1.873,2.725,2.818,2.818,0,0,0,1.514,2.9,7.967,7.967,0,0,0,.74.394.376.376,0,0,1,.251.409c-.01,1.2-.016,2.4,0,3.6,0,.327-.133.323-.364.254a5.832,5.832,0,0,1-1.057-.523.95.95,0,0,0-.981,1.626,5.045,5.045,0,0,0,1.761.8c.6.131.595.136.64.761a.948.948,0,0,0,1.891.061,3.4,3.4,0,0,0,.017-.573.267.267,0,0,1,.233-.317,3.685,3.685,0,0,0,1.635-1.016,3.64,3.64,0,0,0-.64-5.725,5.411,5.411,0,0,0-1.016-.432.27.27,0,0,1-.213-.3C7953.23,2640.566,7953.226,2639.585,7953.226,2638.552Z" transform="translate(-128.357 -114.218)" fill="#e8b400"></path>
    <path id="Path_92" data-name="Path 92" d="M7836.161,2715.7h6.7a1.168,1.168,0,0,1,1.321,1.311c0,.447.006.893,0,1.34a1.133,1.133,0,0,1-1.186,1.176q-6.853.006-13.707,0a1.133,1.133,0,0,1-1.186-1.176c-.007-.485-.005-.97,0-1.455a1.137,1.137,0,0,1,1.2-1.2Q7832.734,2715.692,7836.161,2715.7Z" transform="translate(-26.871 -188.133)" fill="#e8b400"></path>
    <path id="Path_93" data-name="Path 93" d="M7806.208,2775.559q3.369,0,6.738,0a1.161,1.161,0,0,1,1.3,1.292c0,.459.007.919,0,1.378a1.128,1.128,0,0,1-1.166,1.156q-6.872.007-13.745,0a1.129,1.129,0,0,1-1.166-1.156c-.009-.485-.005-.97,0-1.455a1.141,1.141,0,0,1,1.224-1.214Q7802.8,2775.555,7806.208,2775.559Z" transform="translate(0 -241.869)" fill="#e8b400"></path>
    <path id="Path_94" data-name="Path 94" d="M7836.14,2835.419h6.738a1.162,1.162,0,0,1,1.3,1.291c0,.459.008.919,0,1.378a1.128,1.128,0,0,1-1.165,1.156q-6.873.007-13.745,0a1.129,1.129,0,0,1-1.167-1.156c-.009-.485,0-.97,0-1.455a1.141,1.141,0,0,1,1.225-1.215Q7832.732,2835.416,7836.14,2835.419Z" transform="translate(-26.869 -295.604)" fill="#e8b400"></path>
    <path id="Path_95" data-name="Path 95" d="M7992.749,2511.1c-1.467,0-2.935,0-4.4,0a.621.621,0,0,1-.5-.209,7.208,7.208,0,0,1-1.606-2.618,1.134,1.134,0,0,1,1.354-1.524,6.434,6.434,0,0,0,4.671-.524,1.047,1.047,0,0,1,.994.025,6.283,6.283,0,0,0,4.6.5,1.1,1.1,0,0,1,1.178.364,1.121,1.121,0,0,1,.192,1.182,7.468,7.468,0,0,1-1.615,2.614.575.575,0,0,1-.465.193C7995.684,2511.1,7994.217,2511.1,7992.749,2511.1Z" transform="translate(-168.764 0)" fill="#e8b400"></path>
    <path id="Path_96" data-name="Path 96" d="M7986.54,2580.72c-1.851,0-3.7.007-5.552,0a1.719,1.719,0,0,1-.334-3.4,1.4,1.4,0,0,1,.3-.035q5.59,0,11.18,0a1.7,1.7,0,0,1,1.658,1.379,1.729,1.729,0,0,1-.928,1.883,1.956,1.956,0,0,1-.89.182C7990.165,2580.718,7988.352,2580.721,7986.54,2580.72Z" transform="translate(-162.578 -63.877)" fill="#e8b400"></path>
    <path id="Path_97" data-name="Path 97" d="M8059.438,2735.725a1.47,1.47,0,0,1,.989,1.2,1.93,1.93,0,0,1-.989,1.971Z" transform="translate(-234.537 -206.113)" fill="#e8b400"></path>
    <path id="Path_98" data-name="Path 98" d="M8035.1,2688.45a1.218,1.218,0,0,1,0-2.066Z" transform="translate(-212.173 -161.82)" fill="#e8b400"></path>
  </g>
</svg>
