<?xml version="1.0" encoding="UTF-8"?>
<svg xmlns="http://www.w3.org/2000/svg" width="41.595" height="41.605" viewBox="0 0 41.595 41.605">
  <g id="Creativity" transform="translate(-1405.197 -741.57)">
    <path id="Path_144" data-name="Path 144" d="M1554.735,1128.241a9.342,9.342,0,0,1-1.33-.621,3.986,3.986,0,0,1-1.442-1.879h11.728a3.819,3.819,0,0,1-2.664,2.414c-.071.018-.169-.024-.2.087Z" transform="translate(-131.828 -345.067)" fill="#11b400"></path>
    <path id="Path_145" data-name="Path 145" d="M1770.831,887.547a1.424,1.424,0,0,1-1.544.9c-.688-.04-1.38,0-2.071-.01a1.218,1.218,0,1,1,0-2.435c.69,0,1.383.031,2.071-.01a1.417,1.417,0,0,1,1.543.9Z" transform="translate(-324.039 -129.72)" fill="#11b400"></path>
    <path id="Path_146" data-name="Path 146" d="M1485.488,765.37c0-1.665-.008-3.33.006-5a2.451,2.451,0,0,0-.245-1.05c-1.1-2.418-2.321-4.772-3.508-7.146a1.261,1.261,0,0,0-2.248-.013c-1.189,2.373-2.42,4.725-3.513,7.145a2.759,2.759,0,0,0-.247,1.172c.01,3.344,0,6.687.012,10.031,0,.3-.055.41-.387.4-1.028-.025-2.057-.017-3.086,0-.248,0-.329-.059-.374-.321a9.868,9.868,0,0,0-2.4-4.825,13.883,13.883,0,0,1-3.428-8.056,14.374,14.374,0,0,1,5.391-12.9,13.84,13.84,0,0,1,10.051-3.208,14.484,14.484,0,0,1,13.369,11.455,14.253,14.253,0,0,1-3.065,12.6,10.832,10.832,0,0,0-2.379,4.452c-.059.259-.047.631-.21.743-.2.135-.545.053-.827.054-.853,0-1.707-.019-2.558.011-.335.012-.361-.115-.359-.39C1485.494,768.808,1485.488,767.089,1485.488,765.37Z" transform="translate(-54.619)" fill="#11b400"></path>
    <path id="Path_147" data-name="Path 147" d="M1533.816,1053.214c2.72,0,5.44.005,8.159-.007.3,0,.382.06.379.37a5.039,5.039,0,0,1-.457,2.6,3.482,3.482,0,0,1-3.092,1.9q-4.992.056-9.985,0a3.62,3.62,0,0,1-3.532-3.569c-.01-.417-.146-.967.063-1.214s.785-.075,1.2-.076C1528.972,1053.211,1531.394,1053.214,1533.816,1053.214Z" transform="translate(-107.82 -279.87)" fill="#11b400"></path>
    <path id="Path_148" data-name="Path 148" d="M1590.38,945.882c0,1.38-.008,2.761.007,4.141,0,.285-.041.39-.364.385-1.393-.022-2.787-.019-4.181,0-.3,0-.344-.094-.343-.363q.015-4.161,0-8.322c0-.34.07-.36.377-.272a7.366,7.366,0,0,0,4.154-.006c.3-.087.36-.05.357.258C1590.372,943.094,1590.38,944.488,1590.38,945.882Z" transform="translate(-161.948 -179.491)" fill="#11b400"></path>
    <path id="Path_149" data-name="Path 149" d="M1412.325,809.855a1.287,1.287,0,0,1-.835-.335c-.6-.586-1.2-1.167-1.775-1.775a1.223,1.223,0,0,1,1.748-1.71q.878.839,1.718,1.718a1.158,1.158,0,0,1,.261,1.341A1.249,1.249,0,0,1,1412.325,809.855Z" transform="translate(-3.74 -57.567)" fill="#11b400"></path>
    <path id="Path_150" data-name="Path 150" d="M1768.479,808.638a1.351,1.351,0,0,1,.383-.885c.562-.565,1.117-1.136,1.691-1.688a1.224,1.224,0,1,1,1.753,1.708c-.566.6-1.151,1.178-1.749,1.745a1.145,1.145,0,0,1-1.345.227A1.242,1.242,0,0,1,1768.479,808.638Z" transform="translate(-326.304 -57.582)" fill="#11b400"></path>
    <path id="Path_151" data-name="Path 151" d="M1410.518,953.468a1.26,1.26,0,0,1-1.094-.661,1.085,1.085,0,0,1,.094-1.289,18.73,18.73,0,0,1,2-2,1.16,1.16,0,0,1,1.551.106,1.142,1.142,0,0,1,.166,1.542,16.964,16.964,0,0,1-2.08,2.09A1.2,1.2,0,0,1,1410.518,953.468Z" transform="translate(-3.647 -186.555)" fill="#11b400"></path>
    <path id="Path_152" data-name="Path 152" d="M1772.65,952.255a1.257,1.257,0,0,1-.68,1.074,1.079,1.079,0,0,1-1.286-.116c-.677-.618-1.333-1.264-1.947-1.943a1.212,1.212,0,0,1,1.729-1.684c.654.6,1.27,1.249,1.891,1.887A1.2,1.2,0,0,1,1772.65,952.255Z" transform="translate(-326.277 -186.569)" fill="#11b400"></path>
    <path id="Path_153" data-name="Path 153" d="M1407.619,888.518c-.406,0-.812.007-1.218,0a1.217,1.217,0,0,1-.011-2.433q1.238-.014,2.477,0a1.217,1.217,0,0,1,.011,2.433C1408.458,888.525,1408.039,888.518,1407.619,888.518Z" transform="translate(0 -129.797)" fill="#11b400"></path>
    <path id="Path_154" data-name="Path 154" d="M1591.952,876.773c.672,1.34,1.308,2.611,1.946,3.88.061.12.05.185-.09.236a5.265,5.265,0,0,1-3.72,0c-.229-.084-.085-.209-.034-.311C1590.671,879.333,1591.291,878.1,1591.952,876.773Z" transform="translate(-165.959 -121.441)" fill="#11b400"></path>
  </g>
</svg>
