<svg width="22" height="10" viewBox="0 0 22 10" fill="none" xmlns="http://www.w3.org/2000/svg">
    <path d="M22 4.797c-.115-.258-.33-.444-.536-.637a6073.13 6073.13 0 0 1-4.16-3.88c-.467-.435-1.146-.353-1.421.167-.172.32-.1.682.194.957.922.865 1.846 1.727 2.77 2.587.058.054.13.102.194.153l-.022.046h-.224c-5.836 0-11.672-.002-17.507-.007-.55 0-1.021.058-1.289.572v.485c.069.017.067.08.093.125a.83.83 0 0 0 .317.32c.135.078.29.12.448.12H19.047c-.07.07-.114.121-.168.17l-2.816 2.63a.776.776 0 0 0-.243.375.736.736 0 0 0 .01.438c.039.141.12.27.234.369.114.099.255.166.408.192.32.066.59-.032.82-.247.831-.777 1.664-1.554 2.497-2.33.59-.55 1.175-1.103 1.768-1.649.19-.174.359-.355.445-.593L22 4.797z" fill="#737373"/>
</svg>
