<?xml version="1.0" encoding="UTF-8"?>
<svg xmlns="http://www.w3.org/2000/svg" width="204" height="55" viewBox="0 0 204 55" fill="none">
  <g clip-path="url(#a467dzsvla)" fill="#fff">
    <path fill-rule="evenodd" clip-rule="evenodd" d="M81.952 38.868a21.67 21.67 0 0 0-2.732-.238c-.889.042-1.775.135-2.653.278.138-.716.356-1.492.455-2.287.138-.976.218-1.959.238-2.944V12.114h-4.891a6.511 6.511 0 0 0-3.683 1.055l-.455.258a11.99 11.99 0 0 0 0-5.669l.851.299a9.859 9.859 0 0 0 3.327.556h14.137a9.386 9.386 0 0 0 3.544-.636l.614-.239a10.47 10.47 0 0 0 0 5.69l-1.425-.757A4.537 4.537 0 0 0 87 12.134H81.2v21.483a17.98 17.98 0 0 0 .752 5.252zM60.073 8.096a9.009 9.009 0 0 0 5.426 0c-.159.815-.377 1.591-.476 2.387a22.823 22.823 0 0 0-.237 3.083v19.891c-.024 1.748.203 3.49.673 5.172v.299a9.245 9.245 0 0 0-5.445 0c.159-.57.285-1.147.376-1.731.19-1.165.303-2.341.337-3.52v-20.33a17.084 17.084 0 0 0-.673-4.893c.079-.08.059-.2.02-.358zM174.934 11.676v11.458c.063.81.182 1.613.356 2.406a5.204 5.204 0 0 0-2.97 0c.382-4.75.488-9.519.317-14.282a20.723 20.723 0 0 0-.277-2.665c0-.18 0-.338-.159-.537.673 0 1.327.159 1.98.159.654 0 1.287-.1 1.861-.14.456.816.891 1.672 1.406 2.487 2.198 3.52 4.435 7.042 6.653 10.563l.257.377v-9.686a11.076 11.076 0 0 0-.495-3.82c.96.308 1.991.308 2.951 0-.02.139-.02.28 0 .418a21.488 21.488 0 0 0-.357 2.745v9.408a14.127 14.127 0 0 0 .495 4.973 11.688 11.688 0 0 0-1.584-.179c-.525.032-1.048.099-1.564.2l-8.712-13.925-.158.04zM151.213 11.676v10.443a9.696 9.696 0 0 0 .416 3.203.67.67 0 0 1 0 .218 5.54 5.54 0 0 0-3.168 0c.525-2.159.713-4.387.554-6.604v-8.712a17.814 17.814 0 0 0-.336-2.228 8.022 8.022 0 0 0 3.762 0c.475.875.91 1.73 1.405 2.526 2.238 3.58 4.475 7.121 6.732 10.682.04.082.094.156.159.219V10.92a24.19 24.19 0 0 0-.317-2.904 4.494 4.494 0 0 0 2.752 0 .928.928 0 0 1 0 .278c-.3 1.04-.434 2.121-.396 3.203v8.931a15.03 15.03 0 0 0 .495 5.192 4.887 4.887 0 0 0-3.108 0l-8.752-13.924-.198-.02zM113.989 18.26v3.68a9.769 9.769 0 0 0 .475 3.6 6.289 6.289 0 0 0-3.485 0 17.17 17.17 0 0 0 .495-5.967v-8.076a10.2 10.2 0 0 0-.495-3.6c.512.073 1.028.12 1.545.139 1.388.02 2.776-.04 4.158-.18a5.01 5.01 0 0 1 3.748.689 5.054 5.054 0 0 1 2.192 3.13 5.212 5.212 0 0 1-.421 3.536 5.173 5.173 0 0 1-2.589 2.432l-.475.22c1.742 2.505 3.128 5.21 5.148 7.598a7.886 7.886 0 0 0-3.663 0 51.914 51.914 0 0 0-4.316-7.042.442.442 0 0 0-.317-.219l-2 .06zm0-1.79h2.495a4.397 4.397 0 0 0 1.247-.299 3.268 3.268 0 0 0 1.98-3.202 3.058 3.058 0 0 0-.606-1.737 3.03 3.03 0 0 0-1.493-1.068 5.047 5.047 0 0 0-3.247 0 .478.478 0 0 0-.416.537v4.436l.04 1.333zM140.541 25.52a6.683 6.683 0 0 0-3.485 0 21.019 21.019 0 0 0-1.307-4.993.482.482 0 0 0-.336-.278h-6.198a19.045 19.045 0 0 0-1.208 5.112h-3.148c.265-.456.503-.928.713-1.412.515-1.373.99-2.745 1.465-4.138 1.109-3.222 2.238-6.445 3.307-9.687.194-.692.34-1.396.435-2.108.654 0 1.327.139 1.98.139.654 0 1.386-.1 1.98-.14a36.786 36.786 0 0 0 1.98 7.162c.733 2.486 1.565 4.953 2.396 7.4.495 1.034.99 1.968 1.426 2.943zm-5.386-7.022a864.474 864.474 0 0 0-2.435-8.115l-2.673 8.135 5.108-.02zM200.377 18.16h3.484a20.71 20.71 0 0 0-.277 6.823c-1.748.465-3.54.745-5.346.835a10.538 10.538 0 0 1-5.247-1.412 8.38 8.38 0 0 1-3.154-3.468 8.427 8.427 0 0 1-.806-4.628 8.615 8.615 0 0 1 1.98-5.251 8.68 8.68 0 0 1 5.802-3.024 13.483 13.483 0 0 1 5.346.358c.475.12.91.339 1.287.458-.258.955-.515 1.85-.753 2.725a1.52 1.52 0 0 1-.317-.258 6.08 6.08 0 0 0-8.137-.1 6.775 6.775 0 0 0-1.98 4.297 8.992 8.992 0 0 0 .633 5.092 6.119 6.119 0 0 0 2.555 2.793 6.073 6.073 0 0 0 3.702.748c.5-.064.996-.157 1.485-.279a.362.362 0 0 0 .238-.259v-4.316a5.036 5.036 0 0 0-.495-1.134zM103.673 25.5a6.091 6.091 0 0 0-3.267 0c.139-.676.257-1.293.356-1.989.03-.344.03-.69 0-1.034V10.184h-2.811a4.636 4.636 0 0 0-2.89.756 5.655 5.655 0 0 0 0-3.243l.514.14c.736.163 1.484.269 2.237.318h8.772a12.422 12.422 0 0 0 2.237-.338l.436-.1a5.546 5.546 0 0 0 0 3.163 7.1 7.1 0 0 0-4.119-.696h-1.841v12.193c.059.995.178 2.049.376 3.123zM203.98 41.99H63.024c0-.278 0-.457.277-.417h140.382c.297-.04.376.1.297.418zM201.089 51.719v.398H60.113v-.398h140.976zM165.845 33.18a18.331 18.331 0 0 1-.336 1.989 5.314 5.314 0 0 1-1.925 2.797 5.268 5.268 0 0 1-6.413-.075 5.313 5.313 0 0 1-1.859-2.841 7.564 7.564 0 0 1 0-4.098 5.323 5.323 0 0 1 1.951-2.754 5.288 5.288 0 0 1 6.381.1 5.335 5.335 0 0 1 1.865 2.813c.198.716.237 1.372.336 2.069zm-2.178 0a5.708 5.708 0 0 0-.475-2.507 2.918 2.918 0 0 0-1.058-1.438 2.901 2.901 0 0 0-1.694-.55 2.823 2.823 0 0 0-1.717.528c-.5.359-.871.872-1.055 1.46a6.796 6.796 0 0 0 0 5.45 2.801 2.801 0 0 0 1.046 1.344 2.781 2.781 0 0 0 1.627.487 2.818 2.818 0 0 0 1.61-.5 2.843 2.843 0 0 0 1.043-1.33 6.407 6.407 0 0 0 .673-3.004v.06zM114.583 27.47h2.317l5.385 8.634h.119c-.139-2.865.198-5.749-.198-8.574h1.643a89.228 89.228 0 0 0 0 11.259h-1.683a.4.4 0 0 1-.277-.16c-.22-.293-.425-.599-.614-.914a886.518 886.518 0 0 1-4.851-7.738l-.178-.259V36.9c.032.614.105 1.226.218 1.83h-1.841c.231-3.75.218-7.51-.04-11.258zM135.155 38.887c0-1.133.119-2.208.139-3.302v-5.788c0-.836-.119-1.651-.178-2.506a.986.986 0 0 1 .297 0c1.138.245 2.31.292 3.465.139.76-.13 1.536-.13 2.296 0a4.23 4.23 0 0 1 1.977 1.02c.557.51.968 1.16 1.191 1.884a7.39 7.39 0 0 1 0 5.132 4.55 4.55 0 0 1-1.593 2.342c-.766.59-1.699.92-2.664.94-1.623.219-3.326.14-4.93.14zm1.762-6.226v3.382c-.01.445.154.876.458 1.2a1.68 1.68 0 0 0 1.166.53 3.947 3.947 0 0 0 2.486-.613 3.978 3.978 0 0 0 1.593-2.012 6.367 6.367 0 0 0 .455-2.248 4.291 4.291 0 0 0-1.854-3.49 4.263 4.263 0 0 0-3.908-.488.415.415 0 0 0-.316.457 58.48 58.48 0 0 0-.08 3.282zM176.537 38.79a83.434 83.434 0 0 0 0-11.359c1.237.14 2.486.14 3.723 0a3.13 3.13 0 0 1 2.375.51 3.171 3.171 0 0 1 1.308 2.056 3.34 3.34 0 0 1-1.802 3.68l-.495.259 3.207 4.873h-2.178a34.712 34.712 0 0 0-2.574-4.217.75.75 0 0 0-.831-.437h-.871c-.088 1.557.005 3.119.277 4.654l-2.139-.02zm1.802-5.829c.874.12 1.765.025 2.594-.278a2.112 2.112 0 0 0 .337-3.56 2.966 2.966 0 0 0-2.673-.34.47.47 0 0 0-.258.3c-.02 1.272 0 2.545 0 3.878zM166.023 7.977a6.131 6.131 0 0 0 3.386 0 20.713 20.713 0 0 0-.475 6.405v6.305a13.265 13.265 0 0 0 .495 4.874 6.743 6.743 0 0 0-3.386 0c.119-.736.258-1.452.357-2.169.02-.39.02-.782 0-1.173V11.637a10.83 10.83 0 0 0-.436-3.382l.059-.278zM142.224 7.957a6.131 6.131 0 0 0 3.386 0c-.119.816-.238 1.571-.357 2.327v12.273c.055.988.167 1.97.337 2.944a6.407 6.407 0 0 0-3.247 0c.118-.656.237-1.293.336-1.989.03-.424.03-.849 0-1.273V12.91a13.73 13.73 0 0 0-.455-4.953zM195.407 38.927c0-.756.158-1.572.158-2.367v-7.022c0-.736-.099-1.472-.158-2.208 2.019.338 4.079.338 6.098 0v1.71c-1.346-.715-2.811-.218-4.277-.397v3.839c1.33.121 2.67.007 3.96-.338v1.73a12.91 12.91 0 0 0-3.96-.278v3.242a.956.956 0 0 0 .852.836 10.59 10.59 0 0 0 2.237.139 11.5 11.5 0 0 0 1.822-.418c-.139.537-.277 1.134-.416 1.691a35.476 35.476 0 0 0-6.316-.16zM103.297 38.79h-1.98a83.464 83.464 0 0 0 0-11.339h1.96a83.302 83.302 0 0 0 .02 11.338zM81.2 49.73l-1.98-4.954c-.337 1.651-.673 3.282-1.01 4.953h-.554c.297-1.352.574-2.685.851-3.978l.297-1.432c0-.2 0-.418.337-.438.336-.02.416.14.495.398l1.663 4.197c.082.204.175.403.277.597.218-1.054.416-1.99.594-2.924.139-.617.277-1.233.376-1.87.1-.637.218-.477.594-.318-.178.855-.336 1.71-.514 2.566-.179.855-.377 1.79-.555 2.685-.198.577-.198.577-.871.517zM184.259 49.092c.357-1.79.713-3.48 1.07-5.192h.514c-.415 1.99-.792 3.979-1.188 5.809-.495.179-.732 0-.891-.458-.495-1.352-1.049-2.685-1.584-3.978 0-.16-.118-.318-.237-.577l-1.03 5.112h-.554c.396-1.989.812-3.978 1.208-5.828.396-.12.633 0 .792.378.534 1.432 1.108 2.825 1.663 4.237.059.1.138.239.237.497zM99.317 43.94c.792-.04 1.585-.04 2.376 0 .286.008.559.118.77.312a1.2 1.2 0 0 1 .379.742 1.572 1.572 0 0 1-.713 1.73l-.396.2c.93.795.218 1.85.515 2.785h-.634v-1.791c0-.537-.218-.776-.733-.815-.515-.04-1.148 0-1.742 0-.178.875-.376 1.73-.554 2.605h-.535c.455-1.929.871-3.858 1.267-5.768zm0 2.705h1.584c.288-.004.572-.072.832-.199a1.136 1.136 0 0 0 .574-1.333c0-.437-.396-.696-.97-.715h-1.545c-.178.735-.277 1.452-.495 2.188l.02.06zM127.235 46.963a1.252 1.252 0 0 1 .515 1.293v1.472h-.515v-1.452c0-.935-.158-1.154-1.109-1.174h-1.346l-.574 2.646h-.535c.357-1.69.693-3.342 1.05-5.013.178-.875.178-.875 1.069-.855h1.227a1.383 1.383 0 0 1 1.386 1.094 1.547 1.547 0 0 1-.891 1.83l-.277.16zm-2.396-.378h1.584c.33-.027.652-.115.951-.258a1.14 1.14 0 0 0 .475-1.273.853.853 0 0 0-.851-.697h-1.683c-.06.776-.297 1.492-.476 2.228zM121.295 46.228a4.151 4.151 0 0 1-.831 2.626 2.676 2.676 0 0 1-2.456 1.074c-.525 0-1.028-.21-1.4-.583a1.995 1.995 0 0 1-.58-1.407 3.99 3.99 0 0 1 .674-3.123 2.762 2.762 0 0 1 2.772-1.174c.48.074.92.312 1.245.675.325.363.515.828.537 1.315.024.198.038.397.039.597zm-4.752 1.154c-.007.139-.007.278 0 .417a1.756 1.756 0 0 0 .866 1.457 1.736 1.736 0 0 0 1.688.035c.38-.178.707-.452.951-.795a3.648 3.648 0 0 0 .554-3.123 1.444 1.444 0 0 0-1.287-1.174 1.973 1.973 0 0 0-1.98.796 3.449 3.449 0 0 0-.871 2.387h.079zM159.628 43.88c0 .378-.119.497-.455.477h-1.98c-.258 0-.377 0-.416.339 0 .576-.238 1.153-.376 1.77h2.692v.477h-2.455c-.297 0-.416 0-.475.398 0 .637-.257 1.293-.396 1.99h3.148a4.564 4.564 0 0 0 0 .437h-3.762c.119-.676.258-1.313.396-1.99.238-1.173.475-2.366.733-3.56 0-.14.198-.318.317-.318.99-.04 1.999-.02 3.029-.02zM72.092 46.924c-.158.796-.317 1.571-.495 2.387h3.128a4.148 4.148 0 0 0 0 .438h-3.742c.396-1.99.812-3.979 1.208-5.849h3.247c0 .319 0 .478-.376.458h-2.099c-.257 0-.356 0-.416.338a34.437 34.437 0 0 1-.356 1.75h2.693c.013.16.013.319 0 .478h-2.792zM96.03 43.881c0 .18 0 .318-.118.477h-2.337c-.297 0-.416 0-.475.378-.06.378-.218 1.134-.337 1.731h2.614c.139.378 0 .477-.356.477h-1.98c-.258 0-.357 0-.397.319-.118.676-.277 1.352-.415 1.989h3.088v.437h-3.722c.119-.656.258-1.313.396-1.989.238-1.193.495-2.387.733-3.58 0-.219 0-.358.356-.358l2.95.12zM0 12.77l.238.179L10.85 24.486s0 .119.179.218H7.84a.946.946 0 0 1-.772-.358L.515 16.907l-.416-.398L0 12.77zM29.423 23.174a17.49 17.49 0 0 0 7.015-3.385 17.59 17.59 0 0 0 4.865-6.104h.099a23.786 23.786 0 0 1 7.643 6.425 9.593 9.593 0 0 1 1.98 5.073 6.852 6.852 0 0 1-2.035 5.829 6.763 6.763 0 0 1-5.885 1.79l-2.416-.339a7.256 7.256 0 0 0-3.568.474 7.288 7.288 0 0 0-2.907 2.132 18.061 18.061 0 0 0-3.049 5.152 55.609 55.609 0 0 0-2.633 8.354l-.119.418-2.89-.18c.118-.815.237-1.59.375-2.366.56-3.33 1.6-6.56 3.09-9.588a15.511 15.511 0 0 1 5.94-6.664 24.757 24.757 0 0 1 4.534-1.989 22.574 22.574 0 0 0 2.791-1.094c.414-.19.75-.516.952-.926.202-.41.257-.876.157-1.321a1.476 1.476 0 0 0-1.07-1.353 10.273 10.273 0 0 0-2.751-.657c-1.98 0-3.841 0-5.762.12-1.465.02-2.91.12-4.356.199z"></path>
    <path fill-rule="evenodd" clip-rule="evenodd" d="M5.306 25.78h28.156v.119l-.356.258-3.743 3.362a1.267 1.267 0 0 1-.93.378h-6.91v19.036a2.887 2.887 0 0 1-.377-.259c-1.287-.974-2.554-1.989-3.84-2.924a.794.794 0 0 1-.337-.696V29.877h-6.752a.947.947 0 0 1-.574-.18l-4.178-3.719a2.197 2.197 0 0 0-.159-.199z"></path>
    <path d="M56.549 43.224a31.516 31.516 0 0 0-1.782-5.251c.494 1.247.891 2.53 1.188 3.839.583 2.047.645 4.208.178 6.285a6.27 6.27 0 0 1-2.08 3.326 6.22 6.22 0 0 1-3.642 1.428 18.16 18.16 0 0 1-7.92-1.253 47.444 47.444 0 0 1-11.306-5.967l-.178-.18.455-.874h-.099l-1.366 2.566.198.179a51.402 51.402 0 0 0 12.019 6.405 19.718 19.718 0 0 0 8.454 1.313 6.596 6.596 0 0 0 3.872-1.516 6.648 6.648 0 0 0 2.207-3.537 13.567 13.567 0 0 0-.198-6.763zM51.658 32.184l.218.457c.713 1.532 1.505 3.024 2.119 4.575l-.317-.895c-.653-1.372-1.366-2.745-2.02-4.137z"></path>
    <path d="M31.165 45.59a47.444 47.444 0 0 0 11.306 5.968 18.159 18.159 0 0 0 7.92 1.253 6.22 6.22 0 0 0 3.642-1.428 6.27 6.27 0 0 0 2.08-3.326c.467-2.062.412-4.21-.158-6.246a26.161 26.161 0 0 0-1.208-3.839 51.19 51.19 0 0 0-2.89-5.57.756.756 0 0 0-.199-.238c.654 1.392 1.367 2.765 1.98 4.197l.317.895v.18a17.157 17.157 0 0 1 1.426 7.956 5.985 5.985 0 0 1-1.282 3.452 5.938 5.938 0 0 1-3.054 2.038 9.543 9.543 0 0 1-3.267.338 20.256 20.256 0 0 1-5.109-1.014 44.315 44.315 0 0 1-10.81-5.49l-.417-.12-.455.876.178.119z"></path>
    <path fill-rule="evenodd" clip-rule="evenodd" d="M11.464 48.755V35.129h-1.188a.554.554 0 0 1-.435-.179c-.911-1.233-1.802-2.506-2.733-3.82h8.752v13.925a.799.799 0 0 1-.337.736l-3.663 2.705-.396.259z"></path>
    <path d="M5.465 14.94a16.5 16.5 0 0 1-1.149-8.733c.23-1.4.933-2.677 1.989-3.619a6.143 6.143 0 0 1 3.813-1.553 18.081 18.081 0 0 1 7.92 1.214 48.715 48.715 0 0 1 11.721 6.305 52.536 52.536 0 0 0-13.107-7.16A19.186 19.186 0 0 0 8.257.1 6.557 6.557 0 0 0 4.18 1.76a6.612 6.612 0 0 0-2.122 3.87 17.658 17.658 0 0 0 1.228 9.31c.065.114.171.2.297.238H5.82a.435.435 0 0 1-.356-.239z"></path>
    <path d="M5.445 7.658c.04-1.252.47-2.46 1.23-3.452a5.94 5.94 0 0 1 3.007-2.078 9.858 9.858 0 0 1 2.396-.378c2.134-.034 4.256.33 6.257 1.074a44.909 44.909 0 0 1 11.028 5.67l.575.357v-.159h-.1a48.715 48.715 0 0 0-11.721-6.306 18.08 18.08 0 0 0-7.92-1.213 6.143 6.143 0 0 0-3.813 1.553 6.194 6.194 0 0 0-1.988 3.619 16.5 16.5 0 0 0 1.148 8.732.437.437 0 0 0 .277.219h.93c0-.278-.138-.438-.197-.617a17.378 17.378 0 0 1-1.109-7.021z"></path>
    <path fill-rule="evenodd" clip-rule="evenodd" d="M38.53 12.77a4.47 4.47 0 0 1-.752 2.484 4.44 4.44 0 0 1-2.004 1.64 4.417 4.417 0 0 1-4.843-1.002 4.474 4.474 0 0 1-.91-4.882 4.45 4.45 0 0 1 1.669-1.983 4.42 4.42 0 0 1 5.57.621 4.466 4.466 0 0 1 1.27 3.123zM178.161 44.358h-2.772l-.416 2.108h2.653c0 .358 0 .498-.396.478h-2.376l-.475 2.347h3.069c0 .259 0 .477-.277.477h-3.406v-.537c.377-1.77.733-3.54 1.109-5.33h3.287c.059.139.02.278 0 .457zM136.145 46.466h2.653c0 .358 0 .477-.376.477h-2.376c-.158.776-.317 1.532-.495 2.348h3.089c0 .278 0 .477-.297.477h-3.406c.258-1.253.495-2.467.753-3.68.138-.637.257-1.293.416-1.99a.456.456 0 0 1 .257-.278h3.069c.011.16.011.319 0 .478h-2.851a69.29 69.29 0 0 1-.436 2.168zM196.813 46.466h2.673a3.457 3.457 0 0 0 0 .478h-2.357c-.297 0-.415 0-.475.398-.099.636-.257 1.273-.396 1.989h3.109v.437h-3.663c.218-1.014.416-1.989.614-3.003.198-1.015.356-1.631.495-2.447 0-.298.158-.418.475-.418h2.871c0 .358 0 .498-.416.478h-1.98c-.257 0-.356 0-.416.338-.277.557-.396 1.134-.534 1.75zM68.647 45.63h-.475a1.457 1.457 0 0 0-.325-.892 1.444 1.444 0 0 0-.804-.5 1.971 1.971 0 0 0-1.98.696 3.407 3.407 0 0 0-.693 3.242c.067.334.241.637.495.863.253.226.573.363.91.39a1.716 1.716 0 0 0 1.763-.755c.128-.197.24-.403.337-.617h.435a2.348 2.348 0 0 1-.877 1.399 2.329 2.329 0 0 1-1.578.47 2.213 2.213 0 0 1-1.516-.658 2.233 2.233 0 0 1-.642-1.53 3.991 3.991 0 0 1 .792-2.923 2.655 2.655 0 0 1 2.514-1.075 1.78 1.78 0 0 1 1.207.608c.307.353.464.814.437 1.282zM152.46 48.058a2.352 2.352 0 0 1-2.376 1.87 2.19 2.19 0 0 1-1.506-.554 2.213 2.213 0 0 1-.731-1.436 3.998 3.998 0 0 1 .752-3.003 2.677 2.677 0 0 1 1.28-.987 2.66 2.66 0 0 1 1.611-.067 1.705 1.705 0 0 1 1.287 1.81h-.455a1.438 1.438 0 0 0-.328-.902 1.423 1.423 0 0 0-.821-.49 1.97 1.97 0 0 0-1.98.715 3.54 3.54 0 0 0-.673 3.263 1.69 1.69 0 0 0 1.564 1.253 1.972 1.972 0 0 0 1.802-1.094c.139-.418.139-.418.574-.378zM192.932 48.078a2.41 2.41 0 0 1-.848 1.334 2.39 2.39 0 0 1-1.489.516 2.225 2.225 0 0 1-2.296-1.99 4.108 4.108 0 0 1 .772-3.023 2.586 2.586 0 0 1 2.693-1.054c.435.06.832.285 1.108.629.276.344.411.78.377 1.221h-.416c-.416-1.173-.871-1.571-1.822-1.412-.455.083-.88.29-1.227.597a3.35 3.35 0 0 0-.792 3.461 1.589 1.589 0 0 0 1.564 1.173 1.718 1.718 0 0 0 1.742-1.074c.139-.378.277-.517.634-.378zM145.788 43.94c-.594.835-1.168 1.65-1.782 2.426a.599.599 0 0 0 0 .776c.455.835.871 1.71 1.287 2.566-.376.14-.555 0-.713-.318-.337-.736-.713-1.432-1.089-2.208-.535.776-1.049 1.472-1.525 2.208a.674.674 0 0 1-.871.318c.654-.895 1.267-1.79 1.98-2.666a.6.6 0 0 0 0-.775c-.396-.756-.772-1.532-1.168-2.328.356-.139.554 0 .713.279.158.278.594 1.273.95 1.989l1.069-1.492c.119-.179.278-.358.396-.557.119-.199.377-.338.753-.219zM113.751 43.88v.478h-2.692a83.055 83.055 0 0 1-.436 2.109h2.455c0 .378 0 .477-.416.477h-1.841a.494.494 0 0 0-.356.298c-.198.816-.357 1.652-.535 2.507h-.515c.317-1.532.634-3.024.931-4.516 0-.358.138-.716.237-1.074a.506.506 0 0 1 .317-.278h2.851zM87.001 49.748h-.534c.376-1.79.733-3.56 1.129-5.39h-1.723v-.1c0-.139.198-.358.317-.358h3.663c0 .378 0 .498-.416.478-.416-.02-.792 0-1.208 0-.475 1.79-.851 3.56-1.228 5.37zM168.419 49.272h2.931c0 .298 0 .497-.317.497h-3.267c.178-.915.356-1.77.534-2.646.179-.875.436-1.989.595-2.844 0-.378.237-.478.633-.358-.376 1.77-.713 3.54-1.109 5.35zM162.42 49.272h2.95c0 .258 0 .497-.297.497h-3.326l.653-3.183c.158-.795.356-1.591.495-2.407 0-.358.218-.457.614-.318-.357 1.83-.634 3.58-1.089 5.41z"></path>
  </g>
  <defs>
    <clipPath id="a467dzsvla">
      <path fill="#fff" d="M0 0h204v55H0z"></path>
    </clipPath>
  </defs>
</svg>
