<?xml version="1.0" encoding="utf-8"?>
<!-- Generator: Adobe Illustrator 26.0.1, SVG Export Plug-In . SVG Version: 6.00 Build 0)  -->
<svg version="1.1" id="Layer_1" xmlns="http://www.w3.org/2000/svg" xmlns:xlink="http://www.w3.org/1999/xlink" x="0px" y="0px"
	 width="203.5px" height="167.7px" viewBox="0 0 203.5 167.7" style="enable-background:new 0 0 203.5 167.7;" xml:space="preserve"
	>
<style type="text/css">
	.st0{fill:#00F0FF;fill-opacity:0.1;}
	.st1{fill:#1AAEF4;fill-opacity:8.000000e-02;}
</style>
<path class="st0" d="M202.8,15.2v151.3c-2.2,0.5-4.6,0.7-6.9,0.6c-6-0.2-11.7-2.2-15.9-5.7l-14.5-11.2
	c-11.5-8.8-26.6-13.7-42.3-13.9l-0.3,0c0,0-66-0.1-66.5-0.1c-13-0.4-25.4-4.4-35.3-11.4c-9.9-7-16.7-16.5-19.4-27.2
	C-1,87.2,0.5,76,6.1,66C11.7,56,21,47.8,32.6,42.5c0,0,0,0,0,0c1.2-0.4,7.6-3.8,12.2-6.8c8.3-5.4,15-12.4,19.6-20.4
	c2.8-4.8,4.7-9.9,5.7-15.1h117.7C196.1,0.2,202.8,6.9,202.8,15.2z"/>
<path class="st1" d="M202.8,15.2v38.4c-8.3,4.3-16.7,6.7-24.8,6.7c-29,0-41.9-27.8-46.9-60.1h56.7C196.1,0.2,202.8,6.9,202.8,15.2z"
	/>
</svg>
