<?xml version="1.0" encoding="UTF-8"?>
<svg xmlns="http://www.w3.org/2000/svg" width="32.711" height="31.709" viewBox="0 0 32.711 31.709">
  <g id="High_Demand" transform="translate(-1239.097 -187.506)">
    <path id="Path_139" data-name="Path 139" d="M1318.7,192.31c-.777-.775-1.533-1.534-2.293-2.288-.778-.772-.7-1.457.239-2.039a2.327,2.327,0,0,1,1.225-.367c3.757-.033,7.513-.076,11.27-.109a1.361,1.361,0,0,1,1.544,1.547q-.052,5.535-.111,11.069a2.655,2.655,0,0,1-.508,1.636,1.046,1.046,0,0,1-1.753.168c-.817-.772-1.62-1.56-2.449-2.361a15.03,15.03,0,0,1-2.088,2.257q-5.026,5.046-10.07,10.074a3.449,3.449,0,0,1-5.126-.007c-.318-.315-.633-.633-.95-.95q-.647-.648-1.295-1.3a3.458,3.458,0,0,1-.01-5.185q3.09-3.1,6.186-6.188,2.331-2.331,4.662-4.662A6.762,6.762,0,0,1,1318.7,192.31Z" transform="translate(-58.883 0)" fill="#1aaef4"></path>
    <path id="Path_140" data-name="Path 140" d="M1255.124,221.671q-6.8,0-13.592,0a4.561,4.561,0,0,1-.931-.06,1.747,1.747,0,0,1-1.5-1.868q0-13.8,0-27.593a1.743,1.743,0,1,1,3.475,0q0,12.8-.01,25.6c0,.419.109.5.509.5,8.641-.013,17.282,0,25.922-.021a1.8,1.8,0,0,1,1.878,1.58,1.747,1.747,0,0,1-1.546,1.859c-.23.014-.461.008-.692.008Z" transform="translate(0 -2.457)" fill="#1aaef4"></path>
  </g>
</svg>
