<?xml version="1.0" encoding="UTF-8"?>
<svg xmlns="http://www.w3.org/2000/svg" width="24" height="25" viewBox="0 0 24 25" fill="none">
  <g clip-path="url(#clip0_1_4999)">
    <path d="M10.4339 24.6135C10.1993 24.5081 9.94485 24.5257 9.70002 24.4849C5.36573 23.76 1.90334 20.5569 0.861019 16.0943C-0.113491 11.9223 0.891023 8.24284 3.80015 5.18911C5.46054 3.44636 7.49597 2.42656 9.82483 2.0927C12.3793 1.72683 14.7724 2.24206 16.9854 3.6409C17.0965 3.71119 17.1355 3.78461 17.1271 3.91829C17.0791 4.69898 17.0364 5.4803 16.998 6.26162C16.9932 6.35763 16.9554 6.41976 16.8948 6.48252C16.6764 6.70782 16.4514 6.92684 16.2468 7.16531C16.1345 7.29647 16.0637 7.28267 15.9377 7.18477C15.0058 6.46306 13.9977 5.88131 12.8648 5.60204C10.0013 4.89603 7.55118 5.7194 5.55415 7.94035C4.10139 9.55571 3.46531 11.5294 3.57693 13.7391C3.76055 17.3802 6.22142 20.4057 9.62261 21.2247C13.8519 22.2426 18.1454 19.3244 18.9555 14.8712C19.4001 12.4281 18.8192 10.273 17.2417 8.41417C17.1373 8.29116 17.1061 8.21648 17.2459 8.10478C17.3521 8.02006 17.4535 7.91964 17.5309 7.80668C17.7859 7.43579 18.1316 7.33036 18.5546 7.32911C19.1301 7.32722 19.7055 7.27765 20.2798 7.23434C20.431 7.22305 20.5054 7.27765 20.5786 7.40567C21.7596 9.47224 22.302 11.7051 22.1136 14.1068C21.8142 17.9262 20.08 20.8588 17.0094 22.9235C15.5579 23.8994 13.9509 24.4259 12.2299 24.5677C12.1945 24.5709 12.1537 24.5608 12.1405 24.6129H10.4345L10.4339 24.6135Z" fill="#1AAEF4"></path>
    <path d="M23.4998 3.29448C22.7479 4.07768 21.9948 4.86026 21.246 5.6466C21.1553 5.74199 21.0647 5.78403 20.9351 5.79031C20.1436 5.82985 19.3521 5.87503 18.5613 5.93088C18.3956 5.94281 18.365 5.89323 18.3746 5.73006C18.4274 4.87971 18.47 4.0281 18.512 3.17712C18.5162 3.08989 18.5493 3.03278 18.6039 2.97568C19.3347 2.21318 20.0668 1.45257 20.7905 0.683806C20.9003 0.567079 20.9483 0.614774 21.0311 0.702005C21.7902 1.5009 22.5523 2.29728 23.3156 3.09178C23.3708 3.14951 23.4086 3.23423 23.4992 3.24867V3.29574L23.4998 3.29448Z" fill="#1AAEF4"></path>
    <path d="M16.1517 9.24112C17.7161 11.0623 18.1361 13.1251 17.4214 15.4208C16.4925 18.4042 13.677 20.2913 10.6833 19.975C7.27069 19.6142 4.73721 16.519 4.91723 12.9299C5.07865 9.71054 7.51612 7.05593 10.5753 6.77918C12.0598 6.64488 13.3872 7.13375 14.6251 7.94708C14.7517 8.02991 14.87 8.12782 14.999 8.20501C15.1226 8.27906 15.1316 8.3324 15.0236 8.44285C14.4475 9.03465 13.8756 9.63209 13.3104 10.2364C13.2078 10.3463 13.1436 10.3268 13.0301 10.2609C11.9104 9.61138 10.7757 9.58879 9.65716 10.2452C8.28181 11.0516 7.64334 12.7743 8.10959 14.3401C8.57884 15.9153 10.0562 16.9552 11.6212 16.8114C14.0713 16.5868 15.4796 13.7608 14.2447 11.5393C14.1679 11.4012 14.1595 11.3284 14.2753 11.2092C14.9042 10.5621 15.5216 9.90445 16.1511 9.24174L16.1517 9.24112Z" fill="#1AAEF4"></path>
    <path d="M12.2039 11.3983C11.7905 11.8269 11.3962 12.243 10.9924 12.6496C10.8856 12.7569 10.8598 12.8209 10.984 12.9389C11.227 13.1711 11.4592 13.4159 11.6825 13.6688C11.7887 13.7893 11.8463 13.7648 11.9429 13.6606C12.3383 13.2351 12.7422 12.8178 13.1472 12.3929C13.5775 13.2966 13.3044 14.4112 12.522 15.0024C11.7131 15.6142 10.6227 15.5308 9.91526 14.8028C9.21498 14.0824 9.10997 12.9377 9.66803 12.0986C10.2345 11.2464 11.281 10.9464 12.2039 11.3983Z" fill="#1AAEF4"></path>
  </g>
  <defs>
    <clipPath id="clip0_1_4999">
      <rect width="23" height="24" fill="white" transform="translate(0.5 0.613525)"></rect>
    </clipPath>
  </defs>
</svg>
