<svg width="27" height="12" viewBox="0 0 27 12" fill="none" xmlns="http://www.w3.org/2000/svg">
    <g clip-path="url(#gcdp6263sa)">
        <path d="M27 5.757c-.14-.31-.405-.534-.659-.765A7358.165 7358.165 0 0 1 21.237.336c-.573-.522-1.407-.423-1.745.201-.211.384-.123.817.238 1.149 1.132 1.037 2.266 2.071 3.4 3.103.07.065.159.123.238.183l-.027.057h-.275c-7.162 0-14.324-.003-21.486-.009-.675 0-1.253.07-1.581.686v.582c.084.021.082.097.114.15.089.159.223.292.389.385.165.093.356.142.55.142H23.376c-.085.085-.14.147-.206.204a4624.029 4624.029 0 0 1-3.457 3.158.93.93 0 0 0-.297.449.866.866 0 0 0 .011.526c.048.17.148.323.288.442.14.12.313.2.5.23.393.08.724-.038 1.006-.295 1.021-.933 2.043-1.865 3.066-2.797.723-.66 1.441-1.324 2.169-1.978.233-.209.44-.426.546-.711L27 5.757z" fill="#1AAEF4"/>
    </g>
    <defs>
        <clipPath id="gcdp6263sa">
            <path fill="#fff" transform="matrix(1 0 0 -1 0 12)" d="M0 0h27v12H0z"/>
        </clipPath>
    </defs>
</svg>
