<?xml version="1.0" encoding="UTF-8"?>
<svg xmlns="http://www.w3.org/2000/svg" width="27" height="24" viewBox="0 0 27 24" fill="none">
  <g clip-path="url(#clip0_1_5005)">
    <path d="M0.5 13.0765C1.33746 12.135 2.20823 11.2296 3.16872 10.4158C4.54251 9.25142 6.02438 8.26198 7.64696 7.49682C7.73261 7.45655 7.81418 7.36976 7.92634 7.43017C5.9061 10.3735 6.51109 13.9222 8.22747 16.0108C10.0166 18.1883 13.0789 19.2499 16.1677 18.0188C16.1888 18.5764 16.2574 19.1194 16.4695 19.6332C16.5287 19.7769 16.4002 19.7596 16.3295 19.7755C15.3676 19.997 14.3949 20.113 13.4079 20.1005C10.8377 20.0692 8.49325 19.2464 6.28269 17.9695C4.15505 16.7406 2.30679 15.1575 0.679456 13.2994C0.625075 13.2376 0.589048 13.1522 0.5 13.1272V13.0751L0.5 13.0765Z" fill="#11B400"></path>
    <path d="M13.4368 6.07935C16.6066 6.08351 19.0557 8.75116 18.8511 11.8875C18.7865 12.8735 18.4888 13.7844 17.9341 14.5961C17.8118 14.7746 17.8376 14.8593 17.9783 14.9933C18.2876 15.2884 18.584 15.5987 18.8776 15.9105C18.9646 16.0035 19.0346 16.0251 19.159 15.9792C20.0713 15.6432 20.9047 15.7959 21.5987 16.4889C22.8352 17.7234 24.0472 18.9823 25.2728 20.2279C25.3639 20.3202 25.3768 20.3709 25.2782 20.4716C24.2735 21.4902 23.2736 22.513 22.2757 23.5378C22.1874 23.6288 22.1364 23.6468 22.0364 23.5441C20.8061 22.279 19.5587 21.0306 18.342 19.7523C17.6874 19.0649 17.5514 18.2282 17.8559 17.3249C17.9049 17.1798 17.8988 17.0971 17.7886 16.9909C17.4753 16.6868 17.1687 16.375 16.8723 16.0542C16.7554 15.9279 16.6806 15.9299 16.5406 16.0278C14.0384 17.7734 10.643 17.0638 9.01095 14.4607C6.91254 11.114 8.98172 6.60635 12.84 6.12378C13.0671 6.09532 13.2961 6.08907 13.4368 6.07935ZM13.5266 13.8664C14.7923 13.8629 15.8146 12.8117 15.8078 11.5202C15.8017 10.2461 14.7746 9.19901 13.5252 9.19346C12.2697 9.1879 11.2317 10.2482 11.2317 11.5348C11.2317 12.8262 12.2595 13.8705 13.5266 13.8671V13.8664Z" fill="#11B400"></path>
    <path d="M19.0762 7.4243C19.2128 7.37917 19.3046 7.45346 19.4025 7.49998C22.1283 8.79979 24.4333 10.6655 26.4332 12.9436C26.5297 13.054 26.5154 13.1144 26.4298 13.2193C25.5719 14.2635 24.6203 15.2078 23.587 16.0695C23.4878 16.1522 23.428 16.1556 23.3382 16.0584C23.1228 15.8258 22.8998 15.6008 22.6748 15.378C21.959 14.6663 21.1046 14.2774 20.1026 14.2635C19.8674 14.2601 19.8762 14.1955 19.9422 14.0046C20.7185 11.7757 20.488 9.65799 19.2448 7.65899C19.1958 7.58053 19.1367 7.50832 19.0762 7.4243Z" fill="#11B400"></path>
    <path d="M8.17871 1.44048C8.26368 1.44048 8.2664 1.50783 8.28475 1.56338C8.58045 2.45352 8.8741 3.34436 9.17387 4.23312C9.21058 4.34213 9.18883 4.38309 9.08347 4.41781C8.68989 4.54765 8.29835 4.68235 7.90885 4.82539C7.8062 4.86288 7.76134 4.85386 7.72531 4.74276C7.43098 3.8429 7.13392 2.94442 6.83211 2.04664C6.7988 1.94805 6.8158 1.91055 6.90893 1.87931C7.30998 1.7446 7.709 1.60365 8.1087 1.46479C8.13249 1.45645 8.15628 1.44743 8.17803 1.43979L8.17871 1.44048Z" fill="#11B400"></path>
    <path d="M19.2224 4.86149C19.1891 4.8483 19.1578 4.83442 19.1258 4.82331C18.7418 4.69138 18.3584 4.55668 17.9737 4.42962C17.8649 4.39351 17.8329 4.35671 17.8758 4.23034C18.1755 3.35061 18.4678 2.46811 18.754 1.58352C18.7975 1.44882 18.8431 1.43354 18.9688 1.48006C19.342 1.61893 19.7199 1.74391 20.0979 1.8675C20.2189 1.90708 20.2495 1.95221 20.2026 2.0883C19.9048 2.9597 19.6187 3.83526 19.3277 4.70874C19.3073 4.76915 19.3155 4.85247 19.2224 4.8608V4.86149Z" fill="#11B400"></path>
    <path d="M23.7541 7.30529C23.716 7.28238 23.6786 7.26155 23.6433 7.23794C23.3082 7.01923 22.9771 6.79565 22.6373 6.58526C22.5237 6.51514 22.5067 6.46445 22.5815 6.34711C23.0777 5.56458 23.5685 4.77859 24.0552 3.98913C24.1225 3.87942 24.1728 3.87665 24.2714 3.94261C24.6099 4.17105 24.9518 4.39393 25.2965 4.61264C25.3957 4.67583 25.4161 4.72235 25.3468 4.83136C24.8512 5.61458 24.3625 6.40196 23.8703 7.18726C23.8411 7.23378 23.8275 7.30321 23.7534 7.30529H23.7541Z" fill="#11B400"></path>
    <path d="M2.87786 3.88873C2.94652 3.8922 2.95603 3.95469 2.98118 3.99426C3.47469 4.77887 3.96343 5.56694 4.45898 6.35016C4.53171 6.46542 4.51743 6.5175 4.40391 6.58832C4.06472 6.7987 3.7296 7.01811 3.40059 7.24516C3.28707 7.32362 3.23609 7.30488 3.16608 7.19239C2.67869 6.40362 2.18587 5.61902 1.69509 4.83233C1.65702 4.77123 1.59108 4.71568 1.70188 4.64625C2.07575 4.41017 2.44418 4.16507 2.81464 3.92414C2.83572 3.91025 2.85815 3.89983 2.87786 3.88873Z" fill="#11B400"></path>
    <path d="M14.2837 2.19795C14.2837 2.63886 14.2783 3.07976 14.2871 3.52067C14.2905 3.6769 14.266 3.74841 14.0866 3.74147C13.7066 3.7255 13.3246 3.72689 12.9446 3.74147C12.7774 3.74772 12.7536 3.68731 12.7549 3.53664C12.7617 2.62914 12.7624 1.72164 12.7549 0.813439C12.7536 0.648187 12.8032 0.610692 12.9561 0.615553C13.328 0.626662 13.7012 0.630828 14.073 0.614164C14.2626 0.605832 14.2932 0.678738 14.2891 0.850239C14.2783 1.29948 14.2857 1.74941 14.2857 2.19865L14.2837 2.19795Z" fill="#11B400"></path>
    <path d="M13.5178 12.3081C13.0984 12.3067 12.7599 11.9644 12.7578 11.538C12.7558 11.1187 13.0991 10.7597 13.5096 10.7514C13.9243 10.743 14.288 11.1152 14.2832 11.5429C14.2784 11.9685 13.9379 12.3095 13.5178 12.3081Z" fill="#11B400"></path>
  </g>
  <defs>
    <clipPath id="clip0_1_5005">
      <rect width="26" height="23" fill="white" transform="translate(0.5 0.613525)"></rect>
    </clipPath>
  </defs>
</svg>
