<svg width="414" height="405" viewBox="0 0 414 405" fill="none" xmlns="http://www.w3.org/2000/svg">
    <path d="M.353 334.423c1.249 10.175 5.848 19.346 12.785 25.496 6.938 6.15 15.648 8.776 24.215 7.302a27.404 27.404 0 0 0 5.35-1.485c5.59-1.188 68.22-26.443 96 13.186 6.526 8.96 14.745 15.958 23.985 20.42 9.239 4.462 19.237 6.262 29.175 5.252 9.937-1.009 19.533-4.799 28.001-11.059 8.468-6.261 15.568-14.814 20.719-24.959l20.89-36.197c9.799-17.678 23.928-31.361 40.48-39.201l48.57-23.01a84.632 84.632 0 0 0 9.49-4.502h.12c21.346-11.82 38.106-32.847 46.875-58.812 8.77-25.965 8.893-54.922.343-80.99-8.549-26.069-25.13-47.295-46.375-59.369-21.245-12.074-45.562-14.09-68.013-5.64l-49.67 13.519c-13.411 3.649-27.358 3.472-40.7-.515-13.342-3.987-25.699-11.671-36.06-22.424-5.64-5.857-12.4-14.433-13.33-16.132h-.07C142.266 19.448 127.321 8.266 110.59 3.472 93.859-1.322 76.266.536 60.51 8.762c-15.757 8.226-28.806 22.365-37.148 40.249-8.34 17.884-11.513 38.524-9.03 58.755.08.701 15.83 102.412 15.83 102.412s0 .297.07.451c3.522 24.333-.454 49.358-11.2 70.491l-13.75 26.527C.94 315.556-.814 325.082.353 334.423z" fill="url(#gl8pgick2a)"/>
    <defs>
        <linearGradient id="gl8pgick2a" x1="206.838" y1=".867" x2="206.838" y2="404.867" gradientUnits="userSpaceOnUse">
            <stop stop-color="#1AAEF4"/>
            <stop offset="1" stop-color="#00E0FF"/>
        </linearGradient>
    </defs>
</svg>
