<svg width="20" height="8" viewBox="0 0 20 8" fill="none" xmlns="http://www.w3.org/2000/svg">
    <g clip-path="url(#ni5v533n9a)">
        <path d="M19.791 3.839c-.1-.207-.288-.356-.468-.51a5103.57 5103.57 0 0 1-3.63-3.104c-.408-.348-1-.282-1.241.134-.15.255-.088.545.17.765.804.692 1.61 1.382 2.417 2.07.05.043.113.081.17.122l-.02.037h-.196c-5.093 0-10.187-.002-15.28-.005-.48 0-.892.046-1.125.457v.388c.06.014.058.064.08.1a.696.696 0 0 0 .277.256.843.843 0 0 0 .392.095h15.877c-.06.056-.1.098-.146.136l-2.459 2.105a.619.619 0 0 0-.212.3.543.543 0 0 0 .009.35.603.603 0 0 0 .204.295c.1.08.223.133.356.154a.816.816 0 0 0 .715-.197l2.18-1.865c.515-.44 1.026-.882 1.544-1.319.165-.139.313-.284.388-.474l-.002-.29z" fill="#000"/>
    </g>
    <defs>
        <clipPath id="ni5v533n9a">
            <path fill="#fff" transform="matrix(1 0 0 -1 .588 8)" d="M0 0h19.267v8H0z"/>
        </clipPath>
    </defs>
</svg>
