<svg width="20" height="21" viewBox="0 0 20 21" fill="none" xmlns="http://www.w3.org/2000/svg">
<path d="M15.8308 17.6097C8.72165 17.6197 3.32582 12.1597 3.33332 5.1122C3.33332 4.65137 3.70665 4.27637 4.16665 4.27637H6.36665C6.77915 4.27637 7.12999 4.5797 7.19082 4.98803C7.33591 5.96725 7.62075 6.92057 8.03665 7.81887L8.12249 8.00387C8.18014 8.12836 8.19255 8.26907 8.15756 8.40173C8.12257 8.53439 8.04238 8.65067 7.93082 8.73053C7.24915 9.2172 6.98915 10.1964 7.51999 10.9597C8.18831 11.9208 9.02244 12.7552 9.98332 13.4239C10.7475 13.9539 11.7267 13.6939 12.2125 13.013C12.2923 12.9011 12.4087 12.8207 12.5415 12.7855C12.6744 12.7503 12.8153 12.7627 12.94 12.8205L13.1242 12.9055C14.0225 13.3222 14.9758 13.6072 15.955 13.7522C16.3633 13.813 16.6667 14.1639 16.6667 14.5772V16.7764C16.6667 16.8859 16.6451 16.9943 16.6031 17.0955C16.5612 17.1966 16.4998 17.2885 16.4223 17.3659C16.3448 17.4433 16.2528 17.5047 16.1516 17.5465C16.0504 17.5883 15.942 17.6098 15.8325 17.6097H15.8308Z" fill="#1AAEF4"/>
</svg>
