<svg width="172" height="91" viewBox="0 0 172 91" fill="none" xmlns="http://www.w3.org/2000/svg">
    <path d="M1 32.523c9.95 11.507 21.356 16.323 30.578 6.69 9.222-9.633 0-21.675 0-9.9 0 11.773 27.909 15.252 45.14 13.914 17.23-1.338 62.611 3.479 69.892 29.97 7.28 26.491-44.897 23.28-31.064-18.731 11.067-33.61 23.541-37.552 28.394-35.322" stroke="#1AAEF4" stroke-dasharray="4 4"/>
    <g clip-path="url(#89du4m8rla)">
        <path d="M140.863 9.303c0-.485-.348-.378-.619-.448a720.903 720.903 0 0 1-6.313-1.718c-.214-.06-.607-.019-.546-.442.05-.359.388-.315.635-.357l18.535-3.074c5.119-.858 10.237-1.731 15.353-2.619.738-.128 1.453-.43 2.225-.254a.32.32 0 0 0 .161-.015.347.347 0 0 0 .138-.091c.141-.276.315-.406.522-.138.159.2.39.427.244.755-.146.329-.245.71-.545.944C168.362 3.634 166.58 6 164.56 8.11c-2.019 2.11-3.955 4.287-5.941 6.434-.606.653-1.419.704-2.401.162-1.062-.587-2.201-.921-3.346-1.239-.157-.266-.432-.283-.67-.377l-5.482-1.983c-.317-.115-.712-.145-.697-.674 1.931-.918 3.943-1.596 5.919-2.377 3.522-1.392 7.046-2.783 10.543-4.245 2.228-.933 4.516-1.7 6.687-2.796.188-.012.393.024.513-.19l.235-.075-.047-.073-.186.15c-.195 0-.402-.052-.522.178a3.023 3.023 0 0 0-.94.123 1844.53 1844.53 0 0 1-10.806 3.034c-4.389 1.23-8.79 2.406-13.156 3.716-1.157.342-2.508.283-3.4 1.426z" fill="#1AAEF4"/>
        <path d="M140.863 9.304c.892-1.133 2.243-1.084 3.402-1.432 4.366-1.31 8.767-2.486 13.156-3.716a6644.31 6644.31 0 0 0 10.805-3.034c.307-.09.623-.132.94-.123l.014.02c-2.171 1.092-4.458 1.863-6.686 2.796-3.498 1.461-7.021 2.853-10.543 4.244-1.978.782-3.99 1.46-5.919 2.377-.851-.047-.851.709-.992 1.275a335.969 335.969 0 0 0-1.567 6.824 1.06 1.06 0 0 1-.196.438.966.966 0 0 1-.359.29c-.436-.288-.38-.817-.476-1.245-.55-2.455-1.067-4.91-1.58-7.364-.089-.437-.256-.897.001-1.35z" fill="#80D6FF"/>
        <path d="M142.918 19.264a.958.958 0 0 0 .361-.292c.098-.127.165-.278.197-.44a257.92 257.92 0 0 1 1.567-6.823c.136-.578.146-1.322.991-1.278-.023.528.372.566.696.674 1.827.662 3.654 1.323 5.482 1.982.239.087.514.104.67.378-.078.266-.303.377-.492.506a6974.168 6974.168 0 0 1-7.692 5.466c-.644.451-1.237.521-1.78-.174z" fill="#0982BB"/>
        <path d="M169.694.82c-.12.222-.326.188-.514.188l-.014-.019c.127-.23.335-.18.523-.177l.005.007zM169.696.821l.186-.151.047.074-.235.075.002.002z" fill="#4B83AF"/>
    </g>
    <defs>
        <clipPath id="89du4m8rla">
            <path fill="#fff" transform="translate(133.378)" d="M0 0h37.873v19.781H0z"/>
        </clipPath>
    </defs>
</svg>
