<?xml version="1.0" encoding="utf-8"?>
<!-- Generator: Adobe Illustrator 26.0.1, SVG Export Plug-In . SVG Version: 6.00 Build 0)  -->
<svg version="1.1" id="Layer_1" xmlns="http://www.w3.org/2000/svg" xmlns:xlink="http://www.w3.org/1999/xlink" x="0px" y="0px"
	 width="273.7px" height="240px" viewBox="0 0 273.7 240" style="enable-background:new 0 0 273.7 240;" xml:space="preserve">
<style type="text/css">
	.st0{fill:#00F0FF;fill-opacity:0.1;}
	.st1{fill:#99EDFF;fill-opacity:0.29;}
</style>
<path class="st0" d="M264.6,94c-7.2,16-19.3,29.3-34.3,37.8c0,0.1,0,0.1,0,0.1c-1.6,0.7-9.9,6.2-15.8,10.9
	c-10.8,8.8-19.5,20-25.4,32.7c-5.9,12.8-8.8,26.7-8.4,40.6l0.6,23.3H0.5V1.4h245.8c12.1,10.9,20.4,25.5,23.9,41.7
	C273.8,60.1,271.8,78,264.6,94z"/>
<path class="st1" d="M183.9,33.4c0,79-57,143-127.3,143c-20.1,0-39.2-5.2-56.1-14.6V1.4h180.2C182.8,11.7,183.9,22.4,183.9,33.4z"/>
</svg>
