<svg width="172" height="134" viewBox="0 0 172 134" fill="none" xmlns="http://www.w3.org/2000/svg">
<path d="M99.3346 51.4868C99.3346 40.3307 99.3346 29.1748 99.3346 18.0187C99.3346 6.86262 105.825 1.04011 118.098 1.04011H153.418C155.714 0.847253 158.028 1.1085 160.206 1.80651C162.384 2.50453 164.376 3.62329 166.047 5.08782C167.719 6.55234 169.032 8.32893 169.9 10.299C170.767 12.2691 171.169 14.3876 171.078 16.5122C171.343 31.4142 171.343 46.3432 171.078 61.2994C171.078 71.6005 164.19 77.3006 152.976 77.5856C143.66 77.5856 134.39 77.5856 125.074 77.5856C122.116 77.5856 121.409 78.3184 121.365 80.9649C120.927 88.9398 123.894 96.7556 129.629 102.738C135.365 108.72 143.413 112.392 152.049 112.967L154.831 113.212C156.279 113.243 157.704 113.54 159.026 114.085C160.348 114.63 161.539 115.413 162.529 116.387C163.52 117.361 164.29 118.507 164.795 119.758C165.3 121.009 165.53 122.341 165.471 123.675C165.372 125.053 164.973 126.397 164.296 127.628C163.619 128.859 162.678 129.95 161.531 130.837C160.384 131.724 159.055 132.387 157.623 132.786C156.19 133.186 154.684 133.314 153.197 133.163C142.452 132.84 132.04 129.648 123.223 123.974C114.407 118.301 107.565 110.389 103.529 101.2C100.775 94.4508 99.4419 87.2793 99.5998 80.0692C99.3349 70.3789 99.3346 60.9328 99.3346 51.4868Z" fill="#1AAEF4" fill-opacity="0.12"/>
<path d="M0.483816 50.6729C0.483816 39.6797 0.483816 28.6866 0.483816 17.6934C0.272352 15.4575 0.595514 13.2059 1.43234 11.0984C2.26917 8.99101 3.59851 7.07917 5.32562 5.49805C7.05273 3.91694 9.13619 2.7051 11.4275 1.94886C13.7187 1.19261 16.1618 0.910391 18.5845 1.12182C30.5049 1.12182 42.4258 1.12182 54.3462 1.12182C56.7296 0.973774 59.119 1.30172 61.3523 2.08355C63.5857 2.86538 65.6106 4.08279 67.2871 5.65213C68.9636 7.22146 70.2528 9.10592 71.0672 11.177C71.8816 13.248 72.202 15.457 72.006 17.6526C72.006 31.9031 72.006 46.1535 72.006 60.404C72.006 71.2751 65.3829 77.3006 53.6833 77.3821C44.5885 77.3821 35.4497 77.3821 26.3107 77.3821C23.2644 77.3821 22.2493 77.9929 22.2493 81.0058C21.9631 89.0785 25.1568 96.927 31.131 102.833C37.1051 108.74 45.3729 112.222 54.1252 112.52C55.711 112.453 57.2947 112.686 58.7795 113.204C60.2643 113.722 61.6191 114.514 62.76 115.532C63.901 116.55 64.8043 117.772 65.4148 119.124C66.0254 120.475 66.3302 121.927 66.3106 123.391C66.0015 129.417 60.7477 133.244 53.0657 133.04C39.3545 132.467 26.3694 127.194 16.6519 118.255C6.93443 109.316 1.18477 97.3543 0.528009 84.7111C0.174812 73.3921 0.528009 62.0733 0.528009 50.7136L0.483816 50.6729Z" fill="#1AAEF4" fill-opacity="0.12"/>
</svg>
