<?xml version="1.0" encoding="UTF-8"?>
<svg xmlns="http://www.w3.org/2000/svg" width="190" height="187" viewBox="0 0 190 187" fill="none">
  <g clip-path="url(#v30vskml8a)">
    <path d="M14.233 98.766s5.655 30.58 34.34 47.166c28.683 16.586 64.331 12.618 93.306 10.177 28.974-2.441 48.533-22.1 48.111-47.248-.421-25.149-23.45-29.01-39.587-55.228-16.138-26.218-16.477-35.588-44.269-48.98-27.792-13.39-65.534 3.215-81.68 35.91C8.305 73.258 14.232 98.766 14.232 98.766z" fill="#DCF5FF"></path>
    <path opacity=".7" d="M14.233 98.766s5.655 30.58 34.34 47.166c28.683 16.586 64.331 12.618 93.306 10.177 28.974-2.441 48.533-22.1 48.111-47.248-.421-25.149-23.45-29.01-39.587-55.228-16.138-26.218-16.477-35.588-44.269-48.98-27.792-13.39-65.534 3.215-81.68 35.91C8.305 73.258 14.232 98.766 14.232 98.766z" fill="#DCF5FF"></path>
    <g opacity=".7" fill="#DCF5FF">
      <path opacity=".7" d="M82.654 187c41.533 0 75.202-2.442 75.202-5.455 0-3.014-33.669-5.456-75.201-5.456-41.533 0-75.202 2.442-75.202 5.456 0 3.013 33.669 5.455 75.201 5.455z"></path>
      <path opacity=".5" d="M82.654 187c41.533 0 75.202-2.442 75.202-5.455 0-3.014-33.669-5.456-75.201-5.456-41.533 0-75.202 2.442-75.202 5.456 0 3.013 33.669 5.455 75.201 5.455z"></path>
    </g>
    <path d="M177.88 6.847H64.637c-2.676 0-4.846 2.177-4.846 4.862v149.934c0 2.685 2.17 4.862 4.846 4.862H177.88c2.677 0 4.846-2.177 4.846-4.862V11.709c0-2.685-2.169-4.862-4.846-4.862z" stroke="#263238" stroke-width="1.02" stroke-linecap="round" stroke-linejoin="round"></path>
    <path d="M111.406 50.72v.5h-.494" stroke="#263238" stroke-width="1.02" stroke-linecap="round" stroke-linejoin="round"></path>
    <path d="M109.933 51.22h-28.83" stroke="#263238" stroke-width="1.02" stroke-linecap="round" stroke-linejoin="round" stroke-dasharray="2.02 2.02"></path>
    <path d="M80.614 51.22h-.494v-.5" stroke="#263238" stroke-width="1.02" stroke-linecap="round" stroke-linejoin="round"></path>
    <path d="M80.12 49.762V27.264" stroke="#263238" stroke-width="1.02" stroke-linecap="round" stroke-linejoin="round" stroke-dasharray="1.97 1.97"></path>
    <path d="M80.12 26.787v-.5h.494" stroke="#263238" stroke-width="1.02" stroke-linecap="round" stroke-linejoin="round"></path>
    <path d="M81.594 26.286h28.829" stroke="#263238" stroke-width="1.02" stroke-linecap="round" stroke-linejoin="round" stroke-dasharray="2.02 2.02"></path>
    <path d="M110.912 26.286h.494v.501" stroke="#263238" stroke-width="1.02" stroke-linecap="round" stroke-linejoin="round"></path>
    <path d="M111.406 27.745v22.499" stroke="#263238" stroke-width="1.02" stroke-linecap="round" stroke-linejoin="round" stroke-dasharray="1.97 1.97"></path>
    <path d="M106.415 30.269H85.116v16.97h21.299v-16.97z" fill="#fff" stroke="#263238" stroke-width="1.02" stroke-linecap="round" stroke-linejoin="round"></path>
    <path d="m83.862 29.01-7.308-5.655M107.874 48.075l6.266 5.451M76.268 25.221l-.218-2.407h2.505M114.309 51.25l.436 2.626-3.053.107" stroke="#263238" stroke-width="1.02" stroke-linecap="round" stroke-linejoin="round"></path>
    <path d="M132.787 115.211h-10.342v3.744h10.342v-3.744z" fill="#263238"></path>
    <path d="m136.989 117.083-6.63-3.842v7.683l6.63-3.841z" fill="#263238"></path>
    <path d="M114.988 89.387H91.203a3.364 3.364 0 0 0-3.358 3.37v52.99a3.364 3.364 0 0 0 3.358 3.37h23.785a3.365 3.365 0 0 0 3.358-3.37v-52.99a3.364 3.364 0 0 0-3.358-3.37z" fill="#263238" stroke="#263238" stroke-width=".83" stroke-linecap="round" stroke-linejoin="round"></path>
    <path d="M116.994 93.441H89.202v52.126h27.792V93.441z" fill="#fff" stroke="#263238" stroke-width=".83" stroke-linecap="round" stroke-linejoin="round"></path>
    <path d="m111.837 157.349 2.128-8.266a10.86 10.86 0 0 0 .349-2.733v-9.944c.039-.127.06-.26.063-.393a1.683 1.683 0 0 0-.561-1.148 1.666 1.666 0 0 0-1.203-.418 1.86 1.86 0 0 0-1.289.486 1.699 1.699 0 0 0-.601-1.053 1.684 1.684 0 0 0-1.149-.381 1.796 1.796 0 0 0-1.488.734 1.698 1.698 0 0 0-1.744-1.415 1.837 1.837 0 0 0-1.493.734c0-1.313 0-7.61-.218-8.12-.639-1.663-3.877-.905-3.3.856v14.587c0-1.021-.756-2.368-1.071-3.36-.315-.992-.485-1.945-1.086-2.772-.998-1.424-2.757-.641-2.655.851.082 1.303 1.027 2.334 1.536 3.521.94 2.193.378 4.478 1.265 6.676a39.495 39.495 0 0 0 2.452 4.036c.483.85.865 1.754 1.139 2.694l-.824 4.828" fill="#fff"></path>
    <path d="m111.837 157.349 2.128-8.266c.232-.893.349-1.811.349-2.733v-9.944c.039-.127.06-.26.063-.393a1.683 1.683 0 0 0-.561-1.148 1.666 1.666 0 0 0-1.203-.418 1.86 1.86 0 0 0-1.289.486 1.699 1.699 0 0 0-.601-1.053 1.684 1.684 0 0 0-1.149-.381 1.796 1.796 0 0 0-1.488.734 1.698 1.698 0 0 0-1.744-1.415 1.837 1.837 0 0 0-1.493.734c0-1.313 0-7.61-.218-8.12-.639-1.663-3.877-.905-3.3.856v14.587c0-1.021-.756-2.368-1.071-3.36-.315-.992-.485-1.945-1.086-2.772-.998-1.424-2.757-.641-2.655.851.082 1.303 1.027 2.334 1.536 3.521.94 2.193.378 4.478 1.265 6.676a39.495 39.495 0 0 0 2.452 4.036c.483.85.865 1.754 1.139 2.694l-.824 4.828M103.124 120.434v2.723M106.173 125.709h2.205M97.019 125.709h2.204M100.071 122.815l.848 1.362M105.155 124.347l1.188-1.532M116.005 113.631H90.238v3.233h25.767v-3.233zM103.464 96.281H91.087v14.797h12.377V96.281zM91.087 96.281l12.377 14.797" stroke="#263238" stroke-width="1.02" stroke-linecap="round" stroke-linejoin="round"></path>
    <path d="M90.748 139.655v-21.093h25.088v20.923" stroke="#263238" stroke-width="1.02" stroke-linecap="round" stroke-linejoin="round"></path>
    <path d="M166.288 89.387h-23.784a3.364 3.364 0 0 0-3.358 3.37v52.99a3.364 3.364 0 0 0 3.358 3.37h23.784a3.365 3.365 0 0 0 3.359-3.37v-52.99a3.364 3.364 0 0 0-3.359-3.37z" fill="#263238" stroke="#263238" stroke-width=".83" stroke-linecap="round" stroke-linejoin="round"></path>
    <path d="M168.294 93.441h-27.792v52.126h27.792V93.441z" fill="#fff" stroke="#263238" stroke-width=".83" stroke-linecap="round" stroke-linejoin="round"></path>
    <path d="M167.03 95.941h-25.089v27.556h25.089V95.941zM141.941 126.049h25.089M141.941 128.087h25.089M141.941 130.129h25.089M141.941 132.171h25.089M141.941 134.213h25.089M141.941 136.251h25.089M141.941 138.293h25.089M141.941 123.497l25.089-27.556" stroke="#263238" stroke-width="1.02" stroke-linecap="round" stroke-linejoin="round"></path>
    <path d="M166.288 20.821h-23.784a3.364 3.364 0 0 0-3.358 3.37v52.99a3.364 3.364 0 0 0 3.358 3.37h23.784a3.364 3.364 0 0 0 3.359-3.37v-52.99a3.364 3.364 0 0 0-3.359-3.37z" fill="#263238" stroke="#263238" stroke-width=".83" stroke-linecap="round" stroke-linejoin="round"></path>
    <path d="M168.294 24.876h-27.792v52.125h27.792V24.876z" fill="#fff" stroke="#263238" stroke-width=".83" stroke-linecap="round" stroke-linejoin="round"></path>
    <path d="M108.411 87.606V71.721h22.278" stroke="#263238" stroke-width="1.02" stroke-linecap="round" stroke-linejoin="round"></path>
    <path d="m129.967 74.2 4.279-2.479-4.279-2.48v4.96z" fill="#263238"></path>
    <path d="M153.829 87.188v-12.19" stroke="#263238" stroke-width="1.02" stroke-linecap="round" stroke-linejoin="round"></path>
    <path d="m156.3 75.723-2.471-4.293-2.472 4.293h4.943z" fill="#263238"></path>
    <path d="M142.344 154.553h11.238M142.344 157.091h11.238M142.344 159.629h11.238M115.095 154.553h11.238M115.095 157.091h11.238M115.095 159.629h11.238M112.002 76.754h11.238M112.002 79.292h11.238M112.002 81.83h11.238M120.43 46.028h11.238M120.43 48.566h11.238M120.43 51.105h11.238M79.98 54.766h11.233M79.98 57.304h11.233M79.98 59.842h11.233" stroke="#263238" stroke-width="1.02" stroke-linecap="round" stroke-linejoin="round"></path>
    <path d="M25.151 92.192s0-2.106-2.937-5.052c-2.936-2.947-4.821-4.63-4.821-4.63s-1.454 4.839 1.255 7.78a51.551 51.551 0 0 0 6.503 5.68v-3.778zM20.891 105.321s0-2.106-2.936-5.047c-2.937-2.942-4.822-4.63-4.822-4.63s-1.454 4.839 1.255 7.78a51.98 51.98 0 0 0 6.503 5.68v-3.783z" fill="#1AAEF4"></path>
    <path d="M24.967 95.785s.223-2.095 3.45-4.711c3.227-2.616 5.282-4.094 5.282-4.094s.97 4.969-2.07 7.61a51.787 51.787 0 0 1-7.08 4.959l.418-3.764zM19.82 111.301s.436-2.057 3.925-4.318c3.49-2.261 5.68-3.515 5.68-3.515s.427 5.042-2.854 7.352a51.606 51.606 0 0 1-7.546 4.186l.795-3.705zM20.785 128.223s0-2.105 2.937-5.052c2.937-2.947 4.822-4.629 4.822-4.629s1.453 4.862-1.255 7.78a52.06 52.06 0 0 1-6.504 5.679v-3.778z" fill="#1AAEF4"></path>
    <path d="M20.736 132.351s.3-2.081-2.19-5.417c-2.491-3.336-4.12-5.266-4.12-5.266s-2.136 4.58.146 7.882a51.208 51.208 0 0 0 5.617 6.55l.547-3.749zM17.843 144.594s0-2.105 2.936-5.052c2.937-2.946 4.822-4.629 4.822-4.629s1.454 4.838-1.26 7.78a51.514 51.514 0 0 1-6.498 5.684v-3.783zM19.8 155.691s-.528-2.038 1.566-5.631c2.093-3.593 3.499-5.704 3.499-5.704s2.64 4.309.746 7.848a51.406 51.406 0 0 1-4.846 7.148l-.964-3.661z" fill="#1AAEF4"></path>
    <path d="M25.417 91.662a60.7 60.7 0 0 1-.804 6.53c-1.163 6.02-4.061 9.9-5.224 15.332-1.163 5.431 2.17 12.438 1.28 19.415-.893 6.978-3.602 10.863-2.826 15.521.775 4.659 4.846 17.272 4.846 17.272M24.938 97.181l3.164-2.436M25.084 94.375l-1.323-2.358" stroke="#263238" stroke-width="1.03" stroke-linecap="round" stroke-linejoin="round"></path>
    <path d="M19.564 113.275s2.65-1.993 5.374-3.987M20.891 109.128s-2.21-4.342-4.71-7.221M20.892 131.218a32.899 32.899 0 0 1 5.665-7.605M20.373 134.169a37.204 37.204 0 0 0-2.869-5.465c-1.546-2.285-1.764-2.582-1.764-2.582M17.843 148.461a35.625 35.625 0 0 1 2.384-4.863 30.834 30.834 0 0 1 3.092-4.06M20.76 159.353a9.059 9.059 0 0 1 .79-4.659c1.105-2.139 2.355-4.945 2.874-6.053" stroke="#263238" stroke-width="1.03" stroke-linecap="round" stroke-linejoin="round"></path>
    <path d="M5.927 120.312s-.228-1.323 1.294-3.487c1.522-2.163 2.525-3.428 2.525-3.428s1.454 2.874.053 5.019a32.743 32.743 0 0 1-3.465 4.269l-.407-2.373zM10.012 128.086s-.223-1.317 1.3-3.486c1.52-2.169 2.52-3.404 2.52-3.404s1.453 2.874.052 5.018a32.89 32.89 0 0 1-3.46 4.27l-.412-2.398z" fill="#1AAEF4"></path>
    <path d="M6.43 122.538s-.382-1.259-2.674-2.577c-1.265-.734-3.31-1.75-3.756-1.993 0 0-.058 3.219 2.123 4.546a32.622 32.622 0 0 0 4.981 2.339l-.673-2.315zM11.335 131.709s-.485-1.244-2.908-2.28c-2.423-1.036-3.945-1.585-3.945-1.585s.281 3.204 2.588 4.293a32.426 32.426 0 0 0 5.18 1.809l-.915-2.237zM12.561 142.426s-.228-1.322-2.39-2.849c-2.16-1.527-3.522-2.378-3.522-2.378s-.398 3.195 1.628 4.746a32.786 32.786 0 0 0 4.691 2.854l-.407-2.373z" fill="#1AAEF4"></path>
    <path d="M13.036 145.008s-.412-1.274.79-3.637 2.01-3.749 2.01-3.749 1.838 2.636.767 4.96a33.221 33.221 0 0 1-2.826 4.721l-.741-2.295zM16.724 155.652s.15-1.333 2.22-2.981c2.068-1.648 3.391-2.572 3.391-2.572s.582 3.165-1.357 4.828a32.964 32.964 0 0 1-4.521 3.117l.267-2.392zM16.176 152.37s-.228-1.323-2.389-2.85c-2.161-1.527-3.523-2.377-3.523-2.377s-.397 3.194 1.633 4.745a32.626 32.626 0 0 0 4.691 2.855l-.412-2.373zM16.147 159.542s.112-1.337-1.59-3.36c-1.7-2.023-2.81-3.2-2.81-3.2s-1.192 2.991.378 5.009a33.35 33.35 0 0 0 3.819 3.953l.203-2.402z" fill="#1AAEF4"></path>
    <path d="M5.7 120a39.755 39.755 0 0 0 1.21 4.012c1.382 3.641 3.62 5.762 4.934 9.044 1.313 3.282 0 8.032 1.299 12.311 1.298 4.279 3.436 6.419 3.45 9.424.015 3.005-1.163 11.358-1.163 11.358M6.6 123.414l-2.248-1.186M6.203 121.668l.577-1.624" stroke="#263238" stroke-width="1.03" stroke-linecap="round" stroke-linejoin="round"></path>
    <path d="M11.709 132.92s-1.876-.973-3.8-1.916M10.429 130.459a27.123 27.123 0 0 1 2.17-5.037M12.818 144.313a20.815 20.815 0 0 0-4.362-4.153M13.462 146.107a23.588 23.588 0 0 1 1.207-3.74c.722-1.599.828-1.808.828-1.808M16.491 157.072a19.794 19.794 0 0 1 2.423-2.519 13.3 13.3 0 0 0 1.57-1.366M16.593 154.792a22.281 22.281 0 0 0-2.016-2.772 19.362 19.362 0 0 0-2.38-2.212M15.944 161.944a5.777 5.777 0 0 0-.999-2.839c-.925-1.221-2.016-2.845-2.457-3.482" stroke="#263238" stroke-width="1.03" stroke-linecap="round" stroke-linejoin="round"></path>
    <path d="M9.436 164.696H28.64v14.495a1.453 1.453 0 0 1-1.454 1.459H10.91a1.454 1.454 0 0 1-1.454-1.459v-14.495h-.02z" fill="#263238"></path>
    <path d="M28.47 167.21H9.435a1.493 1.493 0 0 1-1.062-.441 1.51 1.51 0 0 1-.44-1.066 1.515 1.515 0 0 1 .438-1.069 1.493 1.493 0 0 1 1.064-.444H28.47a1.5 1.5 0 0 1 1.064.444 1.504 1.504 0 0 1 .439 1.069 1.502 1.502 0 0 1-1.502 1.507z" fill="#263238"></path>
    <path d="M34.417 175.826s-1.042 4.026-1.042 5.042-.252 1.697 1.938 2.125c2.19.428 3.635.17 3.974-.851.34-1.021.592-6.112.592-6.112l-5.331-1.016-.131.812z" fill="#fff" stroke="#263238" stroke-width="1.03" stroke-linecap="round" stroke-linejoin="round"></path>
    <path d="M39.296 182.147c.07-.232.118-.469.146-.71a35.748 35.748 0 0 1-6.068-.486c0 .973-.189 1.624 1.939 2.038 2.127.413 3.644.17 3.983-.842zM85.828 176.195s1.692.594 4.149 1.357c2.456.763 7.443 1.614 7.952 1.697.509.083.485 1.104.082 1.532-.402.427-2.621 1.697-5.243 2.377-2.622.681-11.51 1.269-12.27.764-.635-.428-.422-4.586-.17-5.519.252-.934 5.5-2.208 5.5-2.208z" fill="#fff" stroke="#263238" stroke-width="1.03" stroke-linecap="round" stroke-linejoin="round"></path>
    <path d="M98.012 180.781a1.27 1.27 0 0 0 .252-1.191c-1.716 1.376-5.142 2.878-8.626 3.229a62.225 62.225 0 0 1-9.498-.049c.063.583.174 1.026.358 1.152.761.487 9.644-.087 12.27-.763 2.627-.676 4.822-1.955 5.244-2.378z" fill="#fff" stroke="#263238" stroke-width="1.03" stroke-linecap="round" stroke-linejoin="round"></path>
    <path d="M44.904 102.189s-1.478 8.874-.33 13.805c0 0-2.127 19.562-2.457 28.27 0 0-4.584 15.288-5.243 20.053a117.698 117.698 0 0 1-2.457 11.509c1.018.569 2.127.959 3.276 1.153 2.297.486 2.622-1.313 2.622-1.313s12.6-29.097 13.598-33.366c.998-4.269 4.26-19.562 4.26-19.562l13.593 24.983s.659 8.549 2.621 13.479c1.963 4.931 5.733 18.575 5.733 18.575a13.573 13.573 0 0 0 4.425-.487c1.967-.656 1.967-1.643 1.967-1.643s-2.951-11.014-2.951-14.626c0-3.613-1.144-15.944-1.938-19.397-.795-3.452-6.392-21.531-7.211-23.505-.82-1.974-2.622-8.217-2.622-8.217l-1.144-9.696s-14.111 3.929-25.742-.015z" fill="#263238" stroke="#263238" stroke-width="1.03" stroke-linecap="round" stroke-linejoin="round"></path>
    <path d="M55.299 60.295s-.756-1.639-.756-2.645c0-1.007-.485-5.787-.485-5.787s7.27-13.216 9.28-15.735a30.84 30.84 0 0 1 4.391-4.405s4.895-1.007 5.898-1.007c1.003 0 2.132-.486 2.132-1.133 0-.646-1.633-.486-2.636-.486-1.003 0-2.258-.88-2.258-.88s1.633-4.692 2.132-6.545c.266-.972 1.129-3.02.484-3.02-.644 0-.75.487-1.129 1.26-.378.773-2.006 3.273-2.006 3.273l.373-5.539s-.484-.754-.877.127a38.304 38.304 0 0 0-1.255 4.152c-.117.442-.33.852-.625 1.201l-.485-4.133s-.853-.91-1.003.666c-.082.875 0 3.778 0 4.28 0 .5-.485-.716-.485-.716s-.295-1.366-.625-1.55c-.33-.185-.625.252-.484 1.259.14 1.006-.126 5.159-.126 5.159s-.752 1.006-1.88 2.392c-1.13 1.386-10.177 9.564-13.57 12.21-3.392 2.645-3.76 4.784-4.264 7.425-.504 2.64-1.003 17.99-1.003 23.539 0 5.548.484 14.349.877 17.242.392 2.893-.252 6.671-.751 8.684-.5 2.013 0 3.778 1.38 4.785 1.382 1.006 7.27 1.634 12.165 1.634 4.894 0 9.91-.487 11.417-1.007 1.507-.52 2.631-.627 2.631-2.645s-1.003-6.04-1.003-7.172c0-1.133 2.011-12.837 2.011-12.837s12.794 3.89 15.178 3.02c2.384-.87 22.326-19.761 22.326-19.761s3.135-1.26 4.768-1.513c1.634-.253 4.139-1.38 4.265-1.76.126-.38-.252-.253-1.255-.253a11.78 11.78 0 0 0-2.636.487s3.426-2.179 4.017-2.393c.407-.15 1.11-1.08.126-.88-1.236.248-4.269 1.133-4.269 1.133l4.017-2.519s.625-1.006-.126-1.006-4.516 2.266-4.516 2.266l2.931-2.728c.567-.53.092-1.274-.576-.885l-3.393 1.945c-.827.482-1.705.874-2.616 1.167l-.626.38a16.62 16.62 0 0 0 .252-2.014c0-.632-.378-2.266-1.255-2.392-.877-.127-.126 1.133-.126 1.76s-1.255 3.89-1.255 4.405v1.513s-4.264 3.778-8.15 5.79c-3.888 2.014-12.673 8.685-12.673 8.685s-10.037-5.159-12.29-7.05c-2.254-1.892-4.769-4.153-7.27-6.166a30.721 30.721 0 0 0-4.138-2.893l-8.175-.384z" fill="#fff" stroke="#263238" stroke-width="1.03" stroke-linecap="round" stroke-linejoin="round"></path>
    <path d="M97.241 69.644c-4.26 2.733-10.06 7.138-10.06 7.138s-10.037-5.158-12.29-7.05c-2.254-1.891-4.769-4.153-7.27-6.166a30.729 30.729 0 0 0-4.138-2.893l-8.15-.379s-.757-1.639-.757-2.645c0-1.007-.484-5.787-.484-5.787s3.755-6.807 6.614-11.601l-.227-.234c-1.406-1.405-3.349-2.163-5.045-2.577-2.365 2.106-4.715 4.133-6.111 5.222-3.392 2.646-3.765 4.785-4.265 7.425-.499 2.64-1.003 17.991-1.003 23.54 0 5.548.485 14.349.877 17.242.393 2.893-.252 6.671-.75 8.684-.5 2.013 0 3.778 1.376 4.785 1.376 1.006 7.269 1.634 12.168 1.634 4.9 0 9.91-.487 11.417-1.007 1.507-.52 2.632-.627 2.632-2.645s-1.003-6.04-1.003-7.172c0-1.133 2.01-12.837 2.01-12.837s12.794 3.89 15.179 3.02c1.27-.487 7.56-6.079 13.137-11.184a17.185 17.185 0 0 0-3.857-4.513z" fill="#1AAEF4"></path>
    <path d="M68.843 65.809s-5.05 1.38-5.33 5.217M72.735 82.321s-5.883-1.624-8.941-4.692M69.454 81.466s-5.05 1.38-9.639-.462M48.15 73.331s1.59 11.184 9.28 16.756M59.853 93.13c.587.166 1.193.302 1.818.414M48.15 84.5a21.585 21.585 0 0 0 8.602 7.469M46.663 59.672s4.895-2.455 7.802-.155M48.04 48.469s4.438 1.536 5.66 4.605M50.946 47.395a6.276 6.276 0 0 1 2.142 3.379" stroke="#263238" stroke-width="1.03" stroke-linecap="round" stroke-linejoin="round"></path>
    <path d="M71.853 40.164s.756 4.279.756 5.412-1.255 1.512-.756 3.024c.499 1.513 1.633 1.634 1.38 2.893-.251 1.26-1.88 2.014-1.88 2.014s-.877 3.525-1.759 5.037c-.882 1.512-4.138.375-4.138.375l-.252 4.03s-1.13 1.634-5.268 1.129c-2.383-.264-4.71-.9-6.896-1.887l-.63-.88s3.262-1.639 3.392-2.767c.131-1.128 0-3.778 0-7.556s-1.129-11.072 5.016-12.963c6.145-1.892 11.035 2.139 11.035 2.139z" fill="#fff" stroke="#263238" stroke-width="1.03" stroke-linecap="round" stroke-linejoin="round"></path>
    <path d="M64.191 50.487s-1.415-3.258-3-1.395c-1.027 1.21.252 4.784.878 5.285.625.5 2.006.253 2.006.253s-2.006 2.013-4.139 2.013c-2.132 0-4.012-2.013-5.393-5.538-1.382-3.526-2.385-9.565-.877-13.216 1.507-3.652 9.28-3.774 11.039-3.774 1.759 0 4.39 1.007 4.39 1.007s5.646-.486 5.772 1.386c.126 1.872-.756 2.013-.756 2.013s4.017 2.14 2.132 3.02c-1.885.88-4.763.379-6.648.379a2.682 2.682 0 0 0-2.506 1.38s1.754 1.133 1.13 1.639c-.626.506-2.908 1.512-3.136 2.392-.228.88.877 2.266.121 2.893-.756.628-1.013.263-1.013.263z" fill="#263238" stroke="#263238" stroke-width="1.03" stroke-linecap="round" stroke-linejoin="round"></path>
    <path d="M71.17 48.965c0 .642-.267 1.162-.591 1.162-.325 0-.587-.52-.587-1.162 0-.642.267-1.157.587-1.157.32 0 .59.52.59 1.157z" fill="#263238"></path>
    <path d="M69.134 47.482s.81-1.896 2.093-.88" stroke="#263238" stroke-width="1.03" stroke-linecap="round" stroke-linejoin="round"></path>
    <path d="m58.172 122.733-1.148-2.135-5.733-1.483" stroke="#fff" stroke-width="1.03" stroke-linecap="round" stroke-linejoin="round"></path>
  </g>
  <defs>
    <clipPath id="v30vskml8a">
      <path fill="#fff" d="M0 0h190v187H0z"></path>
    </clipPath>
  </defs>
</svg>
