<?xml version="1.0" encoding="UTF-8"?>
<svg xmlns="http://www.w3.org/2000/svg" width="59" height="59" viewBox="0 0 59 59" fill="none">
  <g clip-path="url(#clip0_1285_136)">
    <path d="M28.8506 41.131C22.7176 41.131 16.7182 41.1232 11.0192 41.1074C4.98831 41.0917 0.0567054 36.1596 0.0252539 30.112C-0.0061977 24.2988 -0.00619769 18.0641 0.0236813 11.0474C0.0346893 8.39801 1.00497 5.83361 2.75368 3.82772C4.49452 1.83126 6.89585 0.514453 9.51734 0.117994H9.56452C9.7548 0.117994 9.89947 0.0707962 10.0111 0H48.9026C48.9953 0.0519172 49.1117 0.0928217 49.258 0.110127C53.6124 0.615141 57.3457 3.79153 58.5488 8.01256C58.6667 8.4279 58.7721 8.86054 58.8727 9.2806C58.9152 9.4568 58.9576 9.63301 59.0017 9.80764V31.3234C58.8224 31.6459 58.7815 31.9763 58.7469 32.2516C58.7328 32.368 58.7186 32.4766 58.6966 32.5678C57.4841 37.5849 53.0935 41.098 48.0203 41.109C41.2425 41.1247 34.9727 41.131 28.8522 41.131H28.8506ZM40.376 37.6699C42.7931 37.6699 45.2102 37.6699 47.6272 37.6699C52.2176 37.6683 55.5499 34.3267 55.5514 29.7265C55.553 23.6255 55.553 17.5229 55.5514 11.4218C55.5514 6.8043 52.205 3.45171 47.5973 3.45014C41.5681 3.45014 35.5372 3.45014 29.508 3.45014C23.4787 3.45014 17.4479 3.45014 11.4186 3.45014C6.81093 3.45014 3.46606 6.80273 3.46448 11.4218C3.46448 17.504 3.46448 23.5862 3.46448 29.6683C3.46448 34.3031 6.82194 37.6683 11.4469 37.6699C13.7617 37.6699 23.9505 37.6699 23.9505 37.6699H29.5064H40.3745H40.376Z" fill="#1AAEF4"></path>
    <path d="M51.5917 54.3074C50.3698 54.3074 49.1463 54.3074 47.9244 54.3027C46.9085 54.2995 46.1411 53.5585 46.1411 52.58C46.1411 51.6014 46.907 50.8604 47.9228 50.8573C49.1573 50.8525 50.3918 50.8525 51.6263 50.8525C52.477 50.8525 55.8785 50.8541 56.7293 50.8541C58.1194 50.8541 58.4874 51.0649 59.0001 52.237V52.9843C58.9388 53.0866 58.8837 53.1888 58.8318 53.2879C58.7029 53.5286 58.5912 53.7347 58.4308 53.8637C58.0502 54.1658 57.6618 54.3058 57.2058 54.3058C56.5862 54.3058 55.9682 54.3058 55.3501 54.3058H51.5917V54.3074Z" fill="#1AAEF4"></path>
    <path d="M33.771 59C31.1857 59 28.8693 57.4881 27.8675 55.1472C27.6159 54.5572 27.2165 54.2944 26.5733 54.2944C24.0572 54.3039 21.6244 54.3039 19.5738 54.3039H7.64103C5.69418 54.3039 3.74733 54.3039 1.80047 54.3023C1.05665 54.3023 0.536122 53.9924 0.209025 53.3584C-0.111781 52.7369 -0.0646033 52.1533 0.350557 51.5712C0.702815 51.0787 1.20132 50.8506 1.91842 50.8506C4.62011 50.8538 7.31551 50.8553 10.0125 50.8553H22.06C23.3133 50.8538 24.9646 50.8553 26.6268 50.8616C27.2291 50.8616 27.6128 50.6068 27.8471 50.0593C28.8535 47.7104 31.214 46.1309 33.7175 46.1309C34.2019 46.1309 34.6831 46.1891 35.1501 46.3055C38.3268 47.0937 40.3868 49.872 40.1604 53.0642C39.9575 55.9228 37.6993 58.4321 34.9064 58.9025C34.529 58.9654 34.1468 58.9985 33.7694 58.9985L33.771 59ZM33.7458 49.5967C32.1088 49.5967 30.7721 50.9277 30.7642 52.5623C30.7595 53.3568 31.0662 54.1072 31.6276 54.6736C32.189 55.2415 32.9344 55.5578 33.7285 55.5609C35.3797 55.5609 36.718 54.2299 36.7259 52.5953C36.7337 50.9497 35.4033 49.6046 33.7616 49.5967H33.7474H33.7458Z" fill="#1AAEF4"></path>
    <path d="M20.5646 31.7013C19.5456 31.7013 18.8678 30.9462 18.8395 29.7788C18.7388 25.6742 15.438 22.3845 11.3257 22.287C10.184 22.2602 9.42132 21.5586 9.43075 20.5423C9.43861 19.5244 10.1966 18.8416 11.3147 18.8416C11.3414 18.8416 11.3682 18.8416 11.3965 18.8416C14.4866 18.9328 17.1427 20.1285 19.2955 22.394C19.4559 22.5623 19.6965 22.8156 20.063 22.8156C20.541 22.8156 20.7816 22.4018 20.8854 22.2256C23.488 17.7686 27.3975 15.0925 32.5036 14.2713C33.1751 14.1627 33.9079 14.114 34.809 14.114C35.1408 14.114 35.4978 14.1202 35.9633 14.1344C35.9885 14.1344 36.012 14.1344 36.0356 14.1344C36.8251 14.1344 37.1254 13.6451 37.2811 13.2786C38.286 10.9297 40.5993 9.41309 43.1751 9.41309C43.5919 9.41309 44.0102 9.45399 44.419 9.5358C47.4132 10.1352 49.5865 12.7877 49.5897 15.843C49.5913 18.8919 47.4211 21.5491 44.4301 22.1627C44.018 22.2477 43.595 22.2901 43.1736 22.2901C40.6464 22.2901 38.2797 20.7405 37.2843 18.4325C37.0295 17.841 36.6489 17.5814 36.012 17.5641C35.7809 17.5578 35.5481 17.5547 35.3185 17.5547C32.8008 17.5547 30.8225 17.9904 29.0896 18.9265C24.7886 21.2502 22.5052 24.9002 22.3007 29.7725C22.252 30.9446 21.5711 31.7013 20.5678 31.7013H20.5646ZM43.128 12.8679C41.4878 12.8821 40.1637 14.2335 40.1778 15.8791C40.192 17.5075 41.5286 18.8321 43.161 18.8337H43.1877C43.9803 18.8258 44.7241 18.508 45.284 17.937C45.8422 17.3659 46.1473 16.6154 46.1395 15.8209C46.1253 14.1926 44.787 12.8679 43.1563 12.8679H43.1295H43.128Z" fill="#1AAEF4"></path>
  </g>
  <defs>
    <clipPath id="clip0_1285_136">
      <rect width="59" height="59" fill="white"></rect>
    </clipPath>
  </defs>
</svg>
