<?xml version="1.0" encoding="UTF-8"?>
<svg xmlns="http://www.w3.org/2000/svg" width="39" height="38" viewBox="0 0 39 38" fill="none">
  <g clip-path="url(#clip0_270_1755)">
    <path d="M6.41174 25.5703C4.98298 24.612 4.02864 23.4037 3.5678 21.823C3.31689 20.967 3.2449 20.0685 3.35632 19.1834C3.46774 18.2984 3.7602 17.4458 4.21545 16.6786C4.6707 15.9114 5.279 15.2462 6.00252 14.7243C6.72603 14.2023 7.54925 13.8349 8.42094 13.6448C9.30179 13.4571 10.2121 13.4545 11.094 13.6372C11.9759 13.8199 12.8102 14.1839 13.5439 14.7061C14.2776 15.2283 14.8947 15.8973 15.3561 16.6707C15.8175 17.444 16.1131 18.3048 16.2241 19.1984C16.3242 19.9055 16.2915 20.625 16.1275 21.3201C16.0405 21.6735 16.1343 21.7523 16.481 21.7482C17.9564 21.7319 19.4314 21.7319 20.9059 21.7482C21.2295 21.7482 21.2988 21.6531 21.2906 21.3486C21.2594 20.1947 21.2431 19.038 21.6223 17.9221C22.2871 15.9595 23.5446 14.5242 25.4287 13.6502C25.5334 13.6013 25.6367 13.5497 25.7509 13.4953C22.9981 11.3587 23.0973 7.80032 24.9176 5.79145C25.8454 4.78446 27.1325 4.18333 28.5003 4.1182C29.8681 4.05308 31.2066 4.5292 32.2258 5.44349C34.0869 7.11664 34.9243 10.8598 31.7677 13.4749C33.7674 14.3489 35.1472 15.7937 35.8541 17.8691C36.2158 18.9334 36.262 20.0316 36.2144 21.1312C36.1913 21.6042 36.2905 21.8298 36.8044 21.7414C37.0071 21.7265 37.2107 21.7265 37.4134 21.7414C37.7397 21.7414 38.017 21.8148 38.1774 22.1329C38.2522 22.2769 38.283 22.4397 38.2661 22.6011C38.2491 22.7625 38.1852 22.9154 38.0823 23.0408C37.4216 23.9841 36.7609 24.9283 36.1002 25.8733C33.395 29.7307 30.6911 33.5894 27.9885 37.4495C27.8802 37.6284 27.7251 37.7744 27.5399 37.8716C27.3547 37.9689 27.1465 38.0137 26.9377 38.0013C18.3933 37.9895 9.84972 37.9864 1.30709 37.9918C0.507748 37.9918 0.280732 37.7743 0.295686 36.9615C0.324234 35.4202 0.14205 33.8626 0.477828 32.3403C1.18473 29.1231 3.07435 26.89 6.14121 25.6722L6.41174 25.5703ZM13.1749 25.6015L13.531 25.7537C16.4946 27.0151 18.3597 29.2061 19.0897 32.3553C19.3725 33.5785 19.2746 34.8222 19.2773 36.0577C19.2773 36.426 19.3317 36.5796 19.7586 36.5742C21.9799 36.5497 24.1998 36.5552 26.4197 36.5742C26.5509 36.5826 26.6818 36.5539 26.7975 36.4914C26.9131 36.4289 27.0088 36.3351 27.0736 36.2208C30.0046 32.0046 32.94 27.7912 35.88 23.5804C35.9602 23.4649 36.1057 23.3711 36.0717 23.1727H32.1049C26.7152 23.1727 21.3228 23.1727 15.9277 23.1727C15.7279 23.1727 15.5009 23.0789 15.3486 23.3521C14.8282 24.2753 14.0798 25.0498 13.1749 25.6015ZM9.79397 36.5633C12.3524 36.5633 14.9122 36.5633 17.4706 36.5715C17.82 36.5715 17.9397 36.4926 17.922 36.127C17.8907 35.4841 17.941 34.8358 17.9084 34.1929C17.7439 30.8969 16.205 28.5115 13.1844 27.132C11.916 26.5529 10.5634 26.538 9.20125 26.5489C7.60597 26.5546 6.05362 27.0659 4.76732 28.0094C3.48102 28.9528 2.52703 30.2797 2.04253 31.7994C1.60479 33.1382 1.67004 34.5177 1.66596 35.8769C1.66596 36.5565 1.66597 36.5565 2.31985 36.5565L9.79397 36.5633ZM4.69341 20.0669C4.70239 21.412 5.24347 22.6988 6.19843 23.6462C7.15339 24.5936 8.44459 25.1245 9.78989 25.1231C12.559 25.1068 14.8483 22.8274 14.8592 20.0764C14.8556 18.7223 14.3162 17.4245 13.3587 16.4667C12.4012 15.5089 11.1035 14.9689 9.7491 14.9646C8.40344 14.9757 7.11678 15.5183 6.16969 16.4742C5.2226 17.43 4.69192 18.7215 4.69341 20.0669ZM28.7552 21.7414C30.2955 21.7414 31.837 21.7496 33.3773 21.7414C33.8463 21.7414 34.4866 21.9508 34.7367 21.6504C34.9868 21.35 34.8142 20.7465 34.821 20.2749C34.8491 19.4505 34.6954 18.6301 34.3707 17.8718C34.046 17.1136 33.5583 16.4361 32.9423 15.8874C31.5828 14.6261 29.9284 14.2999 28.138 14.425C25.9249 14.5786 24.3317 15.655 23.2931 17.6095C22.6827 18.7662 22.6949 20.018 22.6935 21.2793C22.6935 21.6544 22.7751 21.7632 23.1639 21.7591C25.0318 21.7292 26.8942 21.7414 28.758 21.7414H28.7552ZM25.0359 9.25464C25.0362 10.2394 25.4268 11.1839 26.1221 11.8814C26.8174 12.5789 27.7608 12.9725 28.7457 12.9761C30.7617 12.9978 32.4556 11.3056 32.4692 9.25736C32.4699 8.76535 32.3735 8.27804 32.1856 7.82333C31.9976 7.36863 31.7218 6.95545 31.3739 6.60749C31.026 6.25952 30.6129 5.9836 30.1581 5.79553C29.7034 5.60745 29.2161 5.51091 28.724 5.51145C27.7394 5.52114 26.7988 5.92048 26.1081 6.62204C25.4173 7.3236 25.0327 8.27022 25.0385 9.25464H25.0359Z" fill="#4800E2"></path>
    <path d="M14.083 0.00382643C15.2684 0.00382643 16.4538 0.00382643 17.6392 0.00382643C19.7354 0.0174182 21.1003 1.37795 21.1139 3.47517C21.1248 5.1891 21.1139 6.90167 21.1139 8.6156C21.1139 9.50315 20.6218 9.78858 19.8211 9.38082C18.7975 8.86026 17.8228 8.13308 16.7379 7.87484C15.6314 7.61116 14.4146 7.80688 13.2469 7.80416C12.2953 7.80416 11.3437 7.80416 10.4016 7.80416C8.43318 7.78649 7.04794 6.42052 7.01259 4.45379C7.00036 3.8272 6.94463 3.19382 7.08737 2.57675C7.4449 1.01641 8.73225 0.0255607 10.4247 0.00789136C11.6441 -0.00705964 12.8636 0.00382643 14.083 0.00382643ZM19.6756 7.69679C19.6756 6.11607 19.7056 4.62367 19.6648 3.13265C19.6437 2.67595 19.4464 2.24519 19.1143 1.93091C18.7822 1.61662 18.3412 1.44327 17.8839 1.44728C15.3463 1.41466 12.8046 1.41466 10.2589 1.44728C9.1795 1.46087 8.46446 2.2723 8.43591 3.36644C8.42911 3.63828 8.43591 3.91011 8.43591 4.18195C8.43591 5.64851 9.16048 6.37702 10.611 6.37838C12.6112 6.37838 14.6109 6.37838 16.6101 6.37838C16.9141 6.37329 17.2143 6.44531 17.4829 6.5877C18.1789 6.95196 18.8899 7.29991 19.6756 7.69679Z" fill="#4800E2"></path>
  </g>
  <defs>
    <clipPath id="clip0_270_1755">
      <rect width="38" height="38" fill="white" transform="translate(0.272522)"></rect>
    </clipPath>
  </defs>
</svg>
