<?xml version="1.0" encoding="UTF-8"?>
<svg xmlns="http://www.w3.org/2000/svg" width="54" height="55" viewBox="0 0 54 55" fill="none">
  <path d="M40.7529 14.4006C40.6748 14.462 40.6139 14.3886 40.5537 14.3667C39.5791 14.0158 38.7262 14.337 38.2413 15.2653C38.1458 15.4503 38.0268 15.4616 37.8622 15.4615C35.3609 15.4615 32.8598 15.4655 30.359 15.4734C30.1397 15.4741 30.0851 15.3944 30.027 15.1981C29.876 14.6745 29.5911 14.2013 29.2017 13.8272C28.8122 13.4531 28.3322 13.1915 27.8109 13.0693C27.2896 12.9471 26.7459 12.9687 26.2355 13.132C25.7251 13.2952 25.2665 13.5941 24.9068 13.998C24.5816 14.3538 24.3508 14.7885 24.2365 15.2609C24.1957 15.4296 24.1286 15.4713 23.9667 15.4712C21.4299 15.4642 18.8936 15.4641 16.3577 15.4712C16.1502 15.4711 16.1018 15.3511 16.0222 15.2064C15.9128 14.991 15.7623 14.8001 15.5795 14.645C15.3967 14.4898 15.1853 14.3736 14.9578 14.3032C14.7303 14.2327 14.4913 14.2094 14.2549 14.2347C14.0184 14.26 13.7893 14.3333 13.5811 14.4504C13.1674 14.6717 12.8555 15.0501 12.7125 15.5039C12.5696 15.9577 12.607 16.4507 12.8167 16.8766C12.9548 17.1847 13.1783 17.4449 13.4595 17.6251C13.7407 17.8052 14.0675 17.8974 14.3994 17.8903C15.096 17.9023 15.6515 17.591 15.9856 16.9536C16.0997 16.7354 16.2263 16.6712 16.4615 16.6726C17.7177 16.6839 18.9738 16.6727 20.2307 16.6748C20.3455 16.6748 20.4714 16.6268 20.6049 16.7433C20.127 16.9783 19.6552 17.1859 19.2028 17.4372C14.1647 20.2255 11.138 24.4998 10.1226 30.2601C10.079 30.5078 10.0279 30.6236 9.75185 30.5989C9.41071 30.5777 9.06863 30.577 8.7274 30.5968C8.30199 30.6074 8.08687 30.8128 8.08272 31.2391C8.06982 32.4496 8.06937 33.6572 8.08138 34.8619C8.08138 35.2855 8.30897 35.5036 8.72539 35.5064C9.90917 35.5145 11.0927 35.5142 12.276 35.5058C12.6572 35.5037 12.8896 35.2651 12.8986 34.8705C12.9143 33.6629 12.9205 32.4555 12.9172 31.2484C12.9172 30.8248 12.6654 30.5933 12.2428 30.5898C11.9273 30.5869 11.6112 30.5989 11.2771 30.6053C11.7274 27.7767 12.7684 25.2474 14.4867 23.0096C16.918 19.8436 20.0709 17.8671 23.91 17.0045C24.1653 16.9473 24.2759 16.9883 24.3832 17.2601C24.6062 17.8229 24.992 18.3029 25.4892 18.6363C25.9864 18.9696 26.5713 19.1404 27.166 19.1258C28.4582 19.0934 29.3802 18.4475 29.9046 17.2474C30.018 16.9905 30.1176 16.9354 30.3805 16.9919C32.9973 17.5512 35.437 18.765 37.4804 20.5244C40.4065 23.022 42.472 26.7478 43.0054 30.6311C42.6803 30.6156 42.3649 30.5873 42.0494 30.5887C41.6137 30.5915 41.3722 30.8379 41.3695 31.2826C41.3686 32.4648 41.3746 33.6475 41.3875 34.8306C41.391 35.2252 41.5964 35.4913 41.936 35.4934C43.251 35.4998 44.566 35.5401 45.881 35.4674L46.1916 35.1504C46.1964 33.848 46.2075 32.5463 46.2019 31.2446C46.2005 30.7998 45.9812 30.5958 45.5337 30.5881C45.2538 30.5684 44.9729 30.5696 44.6932 30.5916C44.3218 30.6361 44.1973 30.5175 44.1329 30.1229C43.633 26.9562 42.2751 23.9953 40.2128 21.5748C38.4487 19.4716 36.22 17.8263 33.7105 16.7745C33.689 16.7526 33.6434 16.7329 33.6447 16.7159C33.6489 16.6721 33.6849 16.675 33.7195 16.6919C35.0932 16.682 36.4705 16.6757 37.838 16.6595C38.0649 16.6567 38.1776 16.7237 38.28 16.9327C38.4902 17.3439 38.8474 17.6569 39.2775 17.8067C39.7076 17.9565 40.1777 17.9317 40.5904 17.7375C41.0056 17.5494 41.3359 17.2083 41.5154 16.7825C41.695 16.3567 41.7105 15.8774 41.5588 15.4404C41.5263 15.3409 41.4329 15.2555 41.4786 15.134L40.7529 14.4006ZM25.8586 17.3822C25.6876 17.2102 25.5516 17.0053 25.4586 16.7794C25.3656 16.5535 25.3174 16.311 25.3168 16.0659C25.3162 15.8209 25.3633 15.5781 25.4552 15.3517C25.5471 15.1253 25.6821 14.9198 25.8524 14.747C26.199 14.4004 26.666 14.2079 27.1513 14.2116C27.6366 14.2153 28.1007 14.4149 28.4422 14.7668C28.7787 15.1143 28.9667 15.5836 28.965 16.0722C28.9633 16.5607 28.7721 17.0287 28.4333 17.3738C28.2668 17.5505 28.0672 17.6912 27.8464 17.7876C27.6255 17.884 27.3879 17.9341 27.1477 17.9349C26.9075 17.9357 26.6696 17.8872 26.4481 17.7922C26.2267 17.6973 26.0262 17.5578 25.8586 17.3822ZM42.5634 31.8191C42.6284 31.8135 42.6762 31.8072 42.7239 31.8064C43.4308 31.805 44.1371 31.81 44.8427 31.8001C45.0211 31.7973 44.9997 31.9011 44.9997 32.0126C44.9983 32.7086 44.9962 33.4054 44.9983 34.1007C44.999 34.2271 44.99 34.3026 44.8282 34.2998C44.1337 34.2904 43.4403 34.2887 42.7481 34.2948C42.5842 34.2969 42.5537 34.2376 42.5537 34.0837C42.5627 33.387 42.5579 32.6917 42.5579 31.9956C42.5558 31.9413 42.5613 31.8834 42.562 31.822L42.5634 31.8191ZM9.28498 34.2958C9.27474 34.2455 9.26781 34.1946 9.26423 34.1433C9.26284 33.4219 9.26837 32.7018 9.25936 31.9811C9.2559 31.7728 9.3818 31.811 9.4987 31.8103C10.1565 31.8096 10.8137 31.818 11.4715 31.8046C11.6714 31.8011 11.7115 31.8703 11.7081 32.0602C11.697 32.7181 11.695 33.3767 11.7081 34.0368C11.7123 34.2457 11.6597 34.3121 11.4453 34.305C10.7999 34.2902 10.1545 34.2993 9.51187 34.3014C9.43786 34.3021 9.36661 34.2944 9.28222 34.293L9.28498 34.2958ZM14.0086 16.5074C13.8936 16.3939 13.8264 16.2391 13.8215 16.0759C13.8166 15.9127 13.8743 15.754 13.9823 15.6335C14.0392 15.5733 14.1073 15.5255 14.1827 15.4927C14.258 15.4599 14.339 15.4428 14.421 15.4426C14.5029 15.4423 14.584 15.4588 14.6596 15.4911C14.7351 15.5234 14.8035 15.5709 14.8608 15.6307C14.9199 15.6885 14.967 15.7579 14.9993 15.8348C15.0316 15.9116 15.0484 15.9942 15.0487 16.0778C15.049 16.1614 15.0329 16.2442 15.0012 16.3213C14.9695 16.3984 14.9229 16.4682 14.8643 16.5265C14.7474 16.638 14.5925 16.6984 14.4326 16.6948C14.2727 16.6913 14.1205 16.624 14.0086 16.5074ZM40.2314 16.5141C40.1209 16.6246 39.9722 16.6861 39.8176 16.6853C39.6629 16.6845 39.5148 16.6215 39.4055 16.5099C39.3501 16.4519 39.3066 16.3834 39.2773 16.3082C39.248 16.2331 39.2335 16.1527 39.2348 16.0719C39.236 15.991 39.2528 15.9111 39.2844 15.8369C39.3159 15.7627 39.3616 15.6956 39.4186 15.6395C39.6656 15.3874 39.9775 15.3853 40.2203 15.6388C40.3335 15.7542 40.3978 15.9103 40.3995 16.0735C40.4011 16.2368 40.3401 16.3942 40.2293 16.512L40.2314 16.5141Z" fill="#DDAC00" stroke="#DDAC00"></path>
  <path d="M34.3008 47.4032C34.2858 47.1243 34.2284 46.8495 34.1306 46.5886C33.7543 45.452 33.3967 44.3077 33.0086 43.1747C32.967 43.0609 32.9489 42.9396 32.9556 42.8183C32.9623 42.6971 32.9935 42.5785 33.0473 42.4702C33.8905 40.5494 34.722 38.6237 35.5728 36.7064C35.6453 36.5583 35.6836 36.3953 35.685 36.2298C35.6863 36.0642 35.6505 35.9006 35.5804 35.7513C33.495 30.8061 31.4167 25.8578 29.3456 20.9064C29.1616 20.4659 28.9063 20.2775 28.4332 20.2944C27.6176 20.3233 26.7993 20.3099 25.9824 20.2993C25.6088 20.2936 25.3806 20.4391 25.2298 20.8019C23.1353 25.8083 21.0327 30.8111 18.9221 35.8104C18.86 35.9501 18.83 36.1025 18.8343 36.2559C18.8386 36.4093 18.8772 36.5597 18.947 36.6956C19.8006 38.6383 20.6411 40.5859 21.4947 42.5286C21.5402 42.6207 21.5665 42.7213 21.5721 42.8241C21.5777 42.927 21.5624 43.03 21.5272 43.1266C21.1171 44.3429 20.7214 45.5655 20.3244 46.7867C20.1072 47.4545 20.3403 47.7786 21.0417 47.7786C25.1893 47.7815 29.3356 47.7815 33.4804 47.7787C33.634 47.7787 33.7869 47.7724 33.9404 47.7696L34.3008 47.4032ZM24.8723 33.3369C23.5712 34.6647 23.4633 36.6992 24.5763 38.0962C25.0401 38.6714 25.6694 39.0832 26.3752 39.2731C27.081 39.463 27.8275 39.4215 28.5088 39.1545C29.9124 38.6003 30.7756 37.2323 30.7057 35.6715C30.6671 34.9351 30.4012 34.2301 29.9461 33.6573C29.4909 33.0846 28.8699 32.6735 28.1719 32.4828C27.8993 32.4108 27.8488 32.2943 27.8502 32.0374C27.8589 28.6504 27.8633 25.2641 27.8632 21.8785C27.8632 21.7627 27.7325 21.5615 27.9718 21.5149C28.1779 21.4754 28.317 21.5255 28.4187 21.7648C30.398 26.5039 32.3847 31.2402 34.3788 35.9737C34.4156 36.0495 34.4348 36.1329 34.4349 36.2175C34.4351 36.3021 34.4161 36.3855 34.3795 36.4615C33.5794 38.2804 32.7881 40.1016 32.0056 41.9252C31.9129 42.1398 31.7974 42.2027 31.5712 42.202C28.7037 42.1934 25.8367 42.1929 22.9702 42.2004C22.7267 42.2018 22.6077 42.1312 22.5102 41.9032C21.7414 40.1125 20.9641 38.3249 20.1783 36.5403C20.1298 36.4437 20.1041 36.3368 20.1031 36.2283C20.1021 36.1197 20.126 36.0124 20.1727 35.9149C21.4722 32.8437 22.7648 29.7692 24.0505 26.6914C24.7429 25.0402 25.4415 23.3912 26.1207 21.7337C26.2155 21.4958 26.3663 21.4958 26.5482 21.5177C26.7751 21.5446 26.6631 21.7323 26.6637 21.8389C26.6703 25.2499 26.6745 28.6609 26.6763 32.0719C26.6777 32.3388 26.6037 32.4284 26.3568 32.4828C25.7902 32.6145 25.2735 32.9121 24.8703 33.339L24.8723 33.3369ZM21.7078 46.5764C21.7037 46.5185 21.6898 46.4776 21.6988 46.4444C22.0087 45.49 22.3248 44.5419 22.6243 43.5883C22.6852 43.385 22.818 43.4146 22.9612 43.4139C25.8393 43.4144 28.7173 43.413 31.5954 43.4098C31.7849 43.4098 31.8638 43.462 31.9184 43.6449C32.191 44.5188 32.4725 45.3906 32.7728 46.2547C32.8724 46.5398 32.7949 46.5723 32.5314 46.573C30.3104 46.5655 28.0907 46.5638 25.872 46.568C24.4858 46.5717 23.097 46.5752 21.7057 46.5785L21.7078 46.5764ZM28.8408 34.2144C29.0546 34.4275 29.225 34.6816 29.3425 34.962C29.46 35.2424 29.5222 35.5437 29.5254 35.8486C29.5287 36.1535 29.4731 36.4561 29.3616 36.7391C29.2502 37.0221 29.0852 37.2798 28.8761 37.4977C28.4456 37.9293 27.866 38.1709 27.2624 38.1704C26.6589 38.1698 26.0797 37.9272 25.6499 37.4948C25.2354 37.0646 25.0018 36.4864 24.9986 35.8831C24.9955 35.2798 25.2232 34.6991 25.6332 34.2645C26.5318 33.3362 27.9464 33.3158 28.8401 34.218L28.8408 34.2144Z" fill="#DDAC00" stroke="#DDAC00"></path>
</svg>
