<?xml version="1.0" encoding="UTF-8"?>
<svg xmlns="http://www.w3.org/2000/svg" width="37" height="37" viewBox="0 0 37 37" fill="none">
  <g clip-path="url(#clip0_155_743)">
    <path d="M10.8432 13.2031C10.952 13.3038 11.0346 13.3814 11.1142 13.4599C14.7277 17.0735 18.3432 20.6851 21.9607 24.2947C22.1975 24.5313 22.2005 24.6048 21.8862 24.7529C18.7548 26.222 15.6279 27.7018 12.5052 29.1923C12.2726 29.3041 12.1295 29.293 11.9351 29.0987C10.0716 27.2187 8.20005 25.3438 6.32044 23.4738C6.18345 23.3369 6.08473 23.2362 6.19755 23.0005C7.74778 19.7545 9.2829 16.5005 10.8432 13.2031Z" fill="#7B57C6"></path>
    <path d="M30.554 0.00134284C32.0851 0.00134284 33.6165 0.00134284 35.1483 0.00134284C36.3701 0.00134284 36.9936 0.628779 36.9946 1.85748C36.9946 3.84086 36.9946 5.82424 36.9946 7.80762C36.9946 9.04337 36.357 9.67181 35.112 9.67181H25.9607C24.7681 9.67181 24.1173 9.03028 24.1153 7.84589C24.1113 5.83767 24.1113 3.82944 24.1153 1.82122C24.1153 0.641873 24.7499 0.00839276 25.9214 0.00134284C27.4656 -0.00167855 29.0098 0.00134284 30.554 0.00134284ZM33.5859 4.81441C33.5859 4.28768 33.3945 3.82038 32.9523 3.55852C32.071 3.03885 31.1845 2.5101 30.2004 2.20192C29.9932 2.13762 29.7749 2.1175 29.5594 2.14287C29.344 2.16825 29.1363 2.23856 28.9497 2.34924C28.7631 2.45993 28.6019 2.60852 28.4764 2.78542C28.3509 2.96233 28.2639 3.16361 28.2211 3.37624C28.0478 4.29575 28.0831 5.2354 28.1798 6.1529C28.2966 7.26074 29.4198 7.84186 30.4321 7.37757C31.2158 7.01702 31.9863 6.62524 32.7489 6.2244C33.3069 5.93132 33.5779 5.44488 33.5859 4.81441V4.81441Z" fill="#7B57C6"></path>
    <path d="M35.9203 27.1398C35.9203 27.3401 35.8464 27.5334 35.7128 27.6827C35.2937 28.2325 35.5204 28.8096 36.1973 28.9335C36.8097 29.0453 36.988 29.2487 36.994 29.8651C37.0001 30.3546 37.0051 30.844 36.994 31.3335C36.981 31.8471 36.7684 32.0768 36.2617 32.1674C35.5032 32.3024 35.2847 32.8512 35.746 33.4676C36.0139 33.8261 36.0029 34.1927 35.6926 34.516C35.3189 34.9058 34.9361 35.2865 34.5493 35.6632C34.1948 36.0086 33.8442 36.0217 33.4413 35.7226C32.8732 35.2915 32.298 35.5211 32.1721 36.2191C32.0714 36.7992 31.8538 36.9865 31.2655 36.9946C30.7881 37.0016 30.3106 37.0026 29.8342 36.9946C29.2681 36.9855 29.0404 36.7932 28.9417 36.2402C28.8108 35.5091 28.2487 35.2875 27.6574 35.7367C27.2817 36.0207 26.9201 36.0076 26.5816 35.6793C26.1935 35.3046 25.812 34.9229 25.4373 34.5342C25.109 34.1948 25.0959 33.8292 25.3799 33.4585C25.8261 32.8684 25.6035 32.3034 24.8763 32.1734C24.3394 32.0788 24.1349 31.8562 24.1228 31.3194C24.1117 30.8158 24.1137 30.3123 24.1228 29.8137C24.1329 29.2709 24.3323 29.0453 24.8601 28.9456C25.5914 28.8066 25.8171 28.2507 25.3819 27.6575C25.1029 27.2778 25.117 26.9172 25.4434 26.5798C25.8188 26.1924 26.2005 25.8107 26.5887 25.4347C26.9261 25.1084 27.2867 25.0983 27.6645 25.3854C28.2517 25.8295 28.8148 25.6029 28.9457 24.8697C29.0414 24.336 29.2651 24.1325 29.805 24.1214C30.3086 24.1114 30.8123 24.1124 31.3159 24.1214C31.8588 24.1315 32.0855 24.3339 32.1792 24.8637C32.3131 25.616 32.8641 25.8265 33.4887 25.3673C33.8321 25.1125 34.2038 25.1165 34.509 25.4075C34.912 25.7983 35.3098 26.2042 35.7097 26.603C35.7804 26.6728 35.8357 26.7566 35.872 26.8491C35.9082 26.9415 35.9247 27.0406 35.9203 27.1398ZM33.7566 30.5802C33.7908 28.8298 32.3534 27.3694 30.5786 27.3513C30.1581 27.3484 29.7412 27.4283 29.3516 27.5865C28.962 27.7448 28.6075 27.9782 28.3081 28.2734C28.0088 28.5687 27.7706 28.92 27.6071 29.3073C27.4436 29.6947 27.358 30.1104 27.3552 30.5308C27.3479 31.3737 27.674 32.1853 28.2625 32.789C28.8509 33.3926 29.654 33.7393 30.497 33.7536C32.2648 33.807 33.7213 32.388 33.7566 30.5802V30.5802Z" fill="#7B57C6"></path>
    <path d="M0.132964 1.10059C1.15235 1.86601 2.17274 2.63143 3.19414 3.39685C4.08761 4.06458 4.98007 4.73432 5.8806 5.39197C6.3369 5.72533 6.53937 5.73037 6.99668 5.39197C8.78967 4.06256 10.5746 2.72207 12.3625 1.38762C12.4905 1.2869 12.6043 1.17109 12.7987 1.1157C12.8682 1.44665 12.8959 1.78499 12.8813 2.12283C12.8853 4.05585 12.8833 5.98887 12.8753 7.92189C12.8753 9.01362 12.1963 9.67229 11.1064 9.67329H1.76579C0.676903 9.67329 0 9.01162 0 7.91988C0 5.79786 0.0191373 3.67683 0.0332394 1.5548C0.0342467 1.40776 -0.00100656 1.24964 0.132964 1.10059Z" fill="#7B57C6"></path>
    <path d="M6.30653 33.8072C5.99842 33.8176 5.69144 33.7646 5.40466 33.6515C5.11788 33.5384 4.85742 33.3675 4.63946 33.1495C3.83967 32.37 3.04189 31.5864 2.2703 30.7787C1.83968 30.3382 1.598 29.747 1.59669 29.131C1.59537 28.515 1.83452 27.9228 2.26325 27.4804C3.15571 26.5447 4.09048 25.6494 5.00108 24.7309C5.12397 24.607 5.19347 24.5909 5.32744 24.7309C7.1164 26.5283 8.90972 28.3216 10.7074 30.111C10.8414 30.2439 10.8202 30.3185 10.6973 30.4403C9.76559 31.3558 8.84895 32.2854 7.91216 33.1958C7.69947 33.4005 7.44762 33.5602 7.17172 33.6653C6.89582 33.7703 6.60154 33.8186 6.30653 33.8072V33.8072Z" fill="#7B57C6"></path>
    <path d="M11.4158 0.0853321L7.78949 2.81869C7.40974 3.10572 7.02899 3.39174 6.65024 3.68079C6.52534 3.7815 6.42562 3.84093 6.26143 3.71605C4.70314 2.53569 3.13881 1.3654 1.57548 0.191086C1.51706 0.147779 1.4677 0.0903667 1.37402 0.00878906H11.3865L11.4158 0.0853321Z" fill="#7B57C6"></path>
    <path d="M14.0492 35.3649C14.0367 35.6598 13.9406 35.945 13.7723 36.1875C13.604 36.43 13.3703 36.6197 13.0984 36.7346C12.4809 37.0166 11.8785 36.936 11.3859 36.4858C10.6607 35.8131 9.98178 35.0909 9.27667 34.396C9.16184 34.2832 9.15378 34.2178 9.27667 34.0939C9.9482 33.4345 10.612 32.7695 11.2681 32.0987C11.3839 31.9809 11.4514 31.9819 11.5703 32.0987C12.2623 32.8037 12.9694 33.4997 13.6564 34.2137C13.9294 34.5038 14.0553 34.8744 14.0492 35.3649Z" fill="#7B57C6"></path>
    <path d="M15.834 15.7483C16.8856 15.5187 17.8999 15.7564 18.737 16.554C19.6285 17.401 19.9236 18.4565 19.6819 19.6036L15.834 15.7483Z" fill="#7B57C6"></path>
    <path d="M23.6062 12.6489C23.5847 12.8766 23.4854 13.0899 23.3252 13.2531C22.7933 13.7829 22.2715 14.3227 21.7306 14.8434C21.2904 15.2674 20.824 15.2785 20.4796 14.9038C20.1451 14.5463 20.1864 14.0981 20.5984 13.6781C21.1276 13.141 21.6591 12.6106 22.193 12.0869C22.3071 11.9599 22.4596 11.8737 22.6272 11.8414C22.7949 11.809 22.9685 11.8323 23.1217 11.9076C23.437 12.0446 23.576 12.3175 23.6062 12.6489Z" fill="#7B57C6"></path>
    <path d="M18.4959 11.679C18.4959 12.0818 18.503 12.4847 18.4959 12.8815C18.4976 13.0833 18.4217 13.278 18.2839 13.4255C18.1462 13.573 17.9571 13.662 17.7556 13.6741C17.3073 13.7023 16.9235 13.4203 16.9074 12.9691C16.8772 12.107 16.8772 11.2442 16.9074 10.3808C16.9225 9.92254 17.3013 9.63652 17.7465 9.66169C18.1917 9.68687 18.4909 10.0142 18.499 10.4805C18.501 10.8783 18.4959 11.2792 18.4959 11.679Z" fill="#7B57C6"></path>
    <path d="M23.711 18.4987C23.3081 18.4987 22.9051 18.5048 22.5093 18.4987C22.3072 18.5029 22.1115 18.4283 21.9635 18.2907C21.8156 18.1531 21.727 17.9633 21.7165 17.7615C21.6833 17.3133 21.9623 16.9367 22.4216 16.9095C23.2957 16.8531 24.1726 16.8531 25.0467 16.9095C25.4828 16.9397 25.7518 17.3123 25.7326 17.7424C25.7227 17.9437 25.6366 18.1337 25.4919 18.2739C25.3471 18.4141 25.1545 18.4941 24.953 18.4977H23.711V18.4987Z" fill="#7B57C6"></path>
    <path d="M29.7461 5.96074V3.71484L31.9904 4.83074L29.7461 5.96074Z" fill="#7B57C6"></path>
    <path d="M32.165 30.6128C32.1589 30.8232 32.1114 31.0303 32.0252 31.2223C31.939 31.4143 31.8159 31.5874 31.6627 31.7318C31.5096 31.8762 31.3295 31.989 31.1328 32.0638C30.936 32.1386 30.7265 32.174 30.5161 32.1678C30.3026 32.1637 30.0921 32.117 29.8969 32.0304C29.7017 31.9439 29.5258 31.8192 29.3794 31.6638C29.233 31.5084 29.1192 31.3253 29.0445 31.1252C28.9699 30.9252 28.936 30.7123 28.9447 30.499C28.9573 30.0745 29.138 29.6724 29.447 29.381C29.756 29.0896 30.1681 28.9328 30.5927 28.945C30.8062 28.9487 31.0169 28.9951 31.2123 29.0814C31.4076 29.1677 31.5838 29.2923 31.7303 29.4477C31.8768 29.6031 31.9907 29.7862 32.0654 29.9863C32.1401 30.1864 32.1739 30.3994 32.165 30.6128V30.6128Z" fill="#7B57C6"></path>
  </g>
  <defs>
    <clipPath id="clip0_155_743">
      <rect width="37" height="37" fill="white"></rect>
    </clipPath>
  </defs>
</svg>
