<?xml version="1.0" encoding="UTF-8"?>
<svg xmlns="http://www.w3.org/2000/svg" width="34.436" height="47.333" viewBox="0 0 34.436 47.333">
  <g id="Consersion_rates" transform="translate(-7263.423 -3491.031)">
    <path id="Path_112" data-name="Path 112" d="M7276.486,3696c0-3.881,0-7.762.007-11.643a.971.971,0,0,0-.314-.762q-6.168-6.149-12.323-12.311c-.117-.117-.243-.224-.434-.4h34.338l.1.108a2.7,2.7,0,0,0-.406.28q-6.179,6.17-12.357,12.342a.922.922,0,0,0-.3.723c.011,2.51,0,5.021.013,7.531a.557.557,0,0,1-.391.612c-2.558,1.12-5.106,2.263-7.657,3.4a1.474,1.474,0,0,0-.187.118Z" transform="translate(0 -157.64)" fill="#1aaef4"></path>
    <path id="Path_113" data-name="Path 113" d="M7322.558,3491.031c0,1.424-.006,2.823.005,4.222,0,.274-.2.267-.354.338a4.156,4.156,0,0,0,1.731,7.927,1.382,1.382,0,0,1,.339,2.724,1.363,1.363,0,0,1-1.678-1.047c-.062-.247-.146-.305-.385-.3-.692.017-1.387.027-2.078,0-.337-.015-.378.118-.342.394a4.079,4.079,0,0,0,2.375,3.339.56.56,0,0,1,.394.65,4.78,4.78,0,0,0,0,.877c.021.256-.083.3-.312.3q-2.68-.012-5.36,0a.623.623,0,0,1-.485-.2c-3.188-3.187-4.363-6.982-3.057-11.312a10.769,10.769,0,0,1,8.763-7.834C7322.247,3491.084,7322.382,3491.063,7322.558,3491.031Z" transform="translate(-43.299)" fill="#1aaef4"></path>
    <path id="Path_114" data-name="Path 114" d="M7394.375,3491.172a11.188,11.188,0,0,1,9.52,9.056,11.05,11.05,0,0,1-3.271,10.062.864.864,0,0,1-.68.29q-2.588-.023-5.174,0c-.321,0-.392-.076-.408-.4a1.532,1.532,0,0,1,.871-1.732,3.878,3.878,0,0,0,1.762-4.5,4.142,4.142,0,0,0-3.922-3.076,1.416,1.416,0,0,1-1.466-1.252,1.4,1.4,0,0,1,1.058-1.481,1.336,1.336,0,0,1,1.636.977c.083.326.22.386.52.375.63-.023,1.264-.031,1.893,0,.371.019.473-.09.418-.452a4.124,4.124,0,0,0-2.418-3.312.493.493,0,0,1-.347-.538C7394.384,3493.85,7394.375,3492.513,7394.375,3491.172Z" transform="translate(-112.343 -0.124)" fill="#1aaef4"></path>
  </g>
</svg>
