<?xml version="1.0" encoding="UTF-8"?>
<svg xmlns="http://www.w3.org/2000/svg" width="31" height="35" viewBox="0 0 31 35" fill="none">
  <path d="M13.3658 34.9988C13.0001 34.8491 12.6076 34.909 12.2307 34.8782C10.5416 34.7513 8.86509 34.4939 7.2164 34.1083C5.41271 33.6746 3.6556 33.1135 2.09344 32.0759C1.23947 31.5079 0.510575 30.8193 0.17675 29.8279C-0.26835 28.5088 0.158636 27.3908 1.1049 26.4456C2.22197 25.3335 3.63748 24.7168 5.10562 24.2164C6.47828 23.7502 7.89022 23.4066 9.32458 23.1899C9.52384 23.1599 9.60579 23.1266 9.4626 22.9067C8.30758 21.1343 7.17327 19.3482 6.01652 17.5767C4.50871 15.267 3.83675 12.7376 4.23354 10.0217C4.92362 5.31691 7.56489 2.06634 12.1159 0.590759C16.1417 -0.711177 19.8526 0.172462 23.0528 2.94399C24.9307 4.56928 26.1159 6.63681 26.6162 9.04992C27.2278 11.9977 26.7439 14.7812 25.1273 17.3474C23.9568 19.2037 22.7535 21.0411 21.5527 22.8794C21.3914 23.1274 21.482 23.1548 21.7115 23.1941C23.924 23.5765 26.0926 24.1026 28.0947 25.153C29.0056 25.6312 29.8423 26.2129 30.4237 27.0734C31.2966 28.3668 31.1664 29.8655 30.0994 31.052C29.2419 32.0057 28.1404 32.6054 26.9707 33.0895C24.7806 33.9971 22.4792 34.4582 20.1321 34.7294C19.3014 34.8252 18.4707 34.9193 17.6305 34.9355C17.5753 34.9355 17.5132 34.9253 17.4925 34.9997L13.3658 34.9988ZM15.4982 28.4652C15.5913 28.3223 15.6535 28.2291 15.7147 28.1341C17.962 24.6429 20.208 21.1514 22.4524 17.6596C22.9493 16.8898 23.5238 16.1524 23.8904 15.3047C25.4888 11.5999 25.0178 8.15602 22.3248 5.14155C20.076 2.62493 17.1595 1.69167 13.8222 2.27335C11.0256 2.76094 8.87344 4.28271 7.48898 6.7309C5.69736 9.89592 5.72842 13.1217 7.63389 16.2302C9.35046 19.0317 11.1826 21.7639 12.963 24.5277C13.7997 25.8254 14.6356 27.1239 15.4982 28.4652ZM15.6543 32.9493C17.1268 32.9159 18.7976 32.8466 20.4598 32.6199C22.3791 32.3582 24.2656 31.9647 26.0667 31.2359C26.9776 30.8663 27.8687 30.4403 28.5381 29.6833C29.0323 29.1247 29.0332 28.6089 28.5475 28.0426C28.1628 27.5935 27.6806 27.2676 27.1674 26.9913C25.0911 25.8793 22.8242 25.4293 20.5254 25.0872C20.2295 25.0435 20.1079 25.1428 19.963 25.3703C18.8097 27.1838 17.6409 28.9887 16.4807 30.7988C16.3082 31.0648 16.1106 31.2906 15.7906 31.3779C15.2955 31.5122 14.8771 31.3257 14.5502 30.8184C13.361 28.9724 12.1743 27.1253 10.9903 25.2771C10.8859 25.1137 10.7962 25.0521 10.5848 25.0812C9.85939 25.1804 9.13654 25.2925 8.41972 25.4422C6.81788 25.7758 5.24968 26.212 3.80742 27.011C3.29417 27.2941 2.81112 27.62 2.43416 28.076C1.98389 28.6209 1.99338 29.1273 2.45487 29.667C2.67177 29.9175 2.9219 30.1376 3.19842 30.3214C4.28788 31.0597 5.50932 31.5028 6.7644 31.8612C9.59803 32.6567 12.5119 32.9159 15.6543 32.9493Z" fill="#EAB700"></path>
  <path d="M20.6635 11.3755C20.6644 12.0489 20.5312 12.7158 20.2716 13.3379C20.0121 13.9601 19.6312 14.5254 19.1508 15.0013C18.6704 15.4772 18.1001 15.8543 17.4724 16.1111C16.8447 16.3679 16.1721 16.4993 15.4931 16.4977C14.8144 16.4974 14.1424 16.3643 13.5157 16.106C12.889 15.8477 12.3198 15.4693 11.8408 14.9926C11.3618 14.5158 10.9824 13.95 10.7242 13.3275C10.4661 12.7051 10.3343 12.0383 10.3365 11.3652C10.3385 10.0106 10.8821 8.7121 11.8481 7.75433C12.8141 6.79655 14.1236 6.25769 15.4896 6.25588C16.1686 6.25397 16.8414 6.385 17.4692 6.64147C18.0971 6.89794 18.6677 7.2748 19.1484 7.75044C19.6291 8.22608 20.0104 8.79113 20.2703 9.41321C20.5303 10.0353 20.6639 10.7021 20.6635 11.3755V11.3755ZM15.4931 14.4456C17.2183 14.3806 18.5639 13.1625 18.5786 11.3918C18.5932 9.70661 17.3347 8.34479 15.5232 8.32426C13.7868 8.30373 12.4179 9.59882 12.4179 11.3789C12.4205 13.1111 13.729 14.3695 15.4931 14.4456Z" fill="#EAB700"></path>
</svg>
