<?xml version="1.0" encoding="UTF-8"?>
<svg xmlns="http://www.w3.org/2000/svg" width="41" height="37" viewBox="0 0 41 37" fill="none">
  <g clip-path="url(#clip0_111_4719)">
    <path d="M37.3723 20.1108C37.1765 20.4814 37.2257 20.8973 37.1629 21.2906C36.1896 26.9525 33.2225 31.3204 28.2605 34.3284C24.6299 36.5293 20.6319 37.3364 16.413 36.8752C11.1978 36.3059 7.00091 33.9053 3.8454 29.7721C3.45083 29.2574 3.4477 28.6634 3.81296 28.2094C3.98006 28.0013 4.21082 27.8516 4.47111 27.7824C4.7314 27.7133 5.00741 27.7284 5.25832 27.8254C5.51332 27.9315 5.73148 28.1082 5.88628 28.334C8.28614 31.4841 11.4406 33.4915 15.3716 34.2296C23.2191 35.7017 30.9022 31.5767 33.7521 24.2883C36.6826 16.8084 33.7154 8.65219 26.6802 4.58901C20.9437 1.27628 13.3318 1.91248 8.22962 6.11978C5.20704 8.61102 3.33466 11.7601 2.5518 15.5515C2.53925 15.6153 2.49633 15.6832 2.57378 15.709C2.60444 15.7158 2.63625 15.7157 2.66687 15.7087C2.69749 15.7018 2.72613 15.6882 2.75066 15.6688C2.92335 15.5124 3.08243 15.3415 3.25093 15.1819C3.78575 14.6765 4.53826 14.662 5.03958 15.1459C5.16053 15.2593 5.25682 15.3957 5.32261 15.5468C5.3884 15.698 5.42232 15.8606 5.42232 16.025C5.42232 16.1894 5.3884 16.3521 5.32261 16.5032C5.25682 16.6543 5.16053 16.7907 5.03958 16.9042C4.0167 17.9302 2.98196 18.9472 1.93535 19.9554C1.31681 20.5525 0.470112 20.4701 -0.0165577 19.7701C-0.85384 18.5615 -1.67856 17.3465 -2.49073 16.1249C-2.90937 15.4979 -2.75342 14.7526 -2.15058 14.3697C-1.56448 13.996 -0.836048 14.1576 -0.402754 14.7588C-0.268789 14.9451 -0.143197 15.1366 0.0315851 15.3929C0.203228 14.6456 0.326726 13.96 0.54442 13.2991C2.82183 6.3792 7.542 1.97527 14.7562 0.423912C23.9025 -1.54128 32.9671 3.48957 36.2231 12.1307C36.7776 13.6112 37.1363 15.1556 37.2906 16.7261C37.298 16.8043 37.2425 16.9124 37.3702 16.9525L37.3723 20.1108Z" fill="#3D00BF"></path>
    <path d="M22.3801 13.1502C22.3801 14.8055 22.3874 16.4608 22.3728 18.1162C22.363 18.2339 22.3857 18.352 22.4383 18.4582C22.491 18.5643 22.5718 18.6546 22.6721 18.7194C24.8407 20.3205 27.0036 21.9268 29.161 23.5382C29.4824 23.777 29.7587 24.0396 29.8173 24.4534C29.8916 24.9866 29.7126 25.4252 29.2427 25.7062C28.7728 25.9872 28.2693 25.9636 27.8162 25.6321C26.7915 24.8816 25.7732 24.1229 24.7517 23.3673C23.344 22.3297 21.9416 21.2838 20.5245 20.2595C20.3141 20.12 20.1435 19.93 20.0286 19.7075C19.9138 19.4851 19.8586 19.2374 19.8683 18.9881C19.8745 15.37 19.8745 11.7519 19.8683 8.13373C19.8683 7.34519 20.3811 6.79547 21.1064 6.7862C21.8474 6.779 22.3717 7.33901 22.3728 8.14609C22.3777 9.81515 22.3801 11.4832 22.3801 13.1502Z" fill="#3D00BF"></path>
  </g>
  <defs>
    <clipPath id="clip0_111_4719">
      <rect width="40.0964" height="37" fill="white" transform="translate(0.452637)"></rect>
    </clipPath>
  </defs>
</svg>
