<?xml version="1.0" encoding="UTF-8"?>
<svg xmlns="http://www.w3.org/2000/svg" width="37.691" height="38.206" viewBox="0 0 37.691 38.206">
  <g id="Customer_Engagement" transform="translate(-7754.625 -3195.972)">
    <path id="Path_106" data-name="Path 106" d="M7764.266,3431.582c-2.415,0-4.832.011-7.246,0a2.276,2.276,0,0,1-2.3-3.01,9.312,9.312,0,0,1,.376-1.191,9.654,9.654,0,0,1,6.72-5.933,1.671,1.671,0,0,1,.869-.007,6.336,6.336,0,0,0,3.166-.01,1.548,1.548,0,0,1,.824.012,9.647,9.647,0,0,1,7.123,7.269,2.266,2.266,0,0,1-2.29,2.871c-1.394.019-2.788,0-4.181,0Z" transform="translate(0 -197.41)" fill="#4800e2"></path>
    <path id="Path_107" data-name="Path 107" d="M7912.721,3294.995q-3.555,0-7.109,0a2.265,2.265,0,0,1-2.375-3.044,9.572,9.572,0,0,1,7.208-7.119,1.1,1.1,0,0,1,.59,0,6.4,6.4,0,0,0,3.395,0,1.7,1.7,0,0,1,.994.111,9.549,9.549,0,0,1,6.868,7.226,2.234,2.234,0,0,1-2.23,2.827C7917.615,3295,7915.167,3294.994,7912.721,3294.995Z" transform="translate(-130.053 -77.786)" fill="#4800e2"></path>
    <path id="Path_108" data-name="Path 108" d="M7943.485,3200.58a4.61,4.61,0,1,1,4.593,4.617A4.6,4.6,0,0,1,7943.485,3200.58Z" transform="translate(-165.404 0)" fill="#4800e2"></path>
    <path id="Path_109" data-name="Path 109" d="M7804.147,3337.095a4.61,4.61,0,1,1-4.59-4.608A4.59,4.59,0,0,1,7804.147,3337.095Z" transform="translate(-35.297 -119.56)" fill="#4800e2"></path>
    <path id="Path_110" data-name="Path 110" d="M7814.832,3229.913c0-.805-.023-1.611.005-2.415a3.207,3.207,0,0,1,3.023-3.129c1.7-.069,3.4-.044,5.107-.018a1.524,1.524,0,0,1,1.487,1.582,1.568,1.568,0,0,1-1.61,1.57c-.976.019-1.951,0-2.927,0-.511,0-1.022.021-1.531-.007-.356-.019-.4.145-.4.442.012,1.486.018,2.972,0,4.458a1.584,1.584,0,0,1-2.168,1.543,1.482,1.482,0,0,1-.994-1.431c-.014-.866,0-1.734,0-2.6Z" transform="translate(-52.722 -24.832)" fill="#4800e2"></path>
    <path id="Path_111" data-name="Path 111" d="M7946.438,3401.586c0,.789.025,1.58-.005,2.368a3.255,3.255,0,0,1-3.279,3.223c-1.564.029-3.127.015-4.69,0a1.554,1.554,0,0,1-1.65-1.566,1.581,1.581,0,0,1,1.676-1.6c1.408-.012,2.817-.021,4.225.008.441.009.576-.1.566-.554-.031-1.455-.021-2.91-.007-4.365a1.588,1.588,0,0,1,3.086-.572,2.473,2.473,0,0,1,.085.826c0,.744,0,1.486,0,2.229Z" transform="translate(-159.561 -176.473)" fill="#4800e2"></path>
  </g>
</svg>
