<?xml version="1.0" encoding="UTF-8"?>
<svg xmlns="http://www.w3.org/2000/svg" width="40.059" height="34.546" viewBox="0 0 40.059 34.546">
  <g id="Efficiency" transform="translate(526.07 -212.93)">
    <path id="Path_196" data-name="Path 196" d="M-230.1,289.141q-3.556,0-7.112.007c-.219,0-.3-.037-.332-.287a12.321,12.321,0,0,0-2.6-6.332c-.175-.222-.2-.339.018-.556,1.6-1.572,3.175-3.161,4.76-4.744.072-.072.148-.14.232-.22a19.879,19.879,0,0,1,4.01,6.866,20.5,20.5,0,0,1,.944,4.254c.009.079-.044.19.082.231Z" transform="translate(-255.911 -57.38)" fill="#1aaef4"></path>
    <path id="Path_197" data-name="Path 197" d="M-216.959,416.355a7.809,7.809,0,0,0-.3,1.621,19.857,19.857,0,0,1-5.523,10.505,1.148,1.148,0,0,1-1.678.035c-.36-.339-.7-.705-1.055-1.045-.153-.145-.12-.2.044-.3a3.492,3.492,0,0,0,1.126-5.1c-.379-.592-.752-1.187-1.145-1.768a.487.487,0,0,1-.041-.56,11.827,11.827,0,0,0,1.119-3.917c.03-.275.116-.331.375-.33,2.358.009,4.717,0,7.075,0Z" transform="translate(-269.051 -181.387)" fill="#1aaef4"></path>
    <path id="Path_198" data-name="Path 198" d="M-369.614,372.934a3.681,3.681,0,0,1,2.335-3.432,3.669,3.669,0,0,1,4.046.929,32.875,32.875,0,0,1,2.649,3.478c1.849,2.645,3.607,5.351,5.352,8.065a1.176,1.176,0,0,1,.061,1.356,1.129,1.129,0,0,1-1.135.535,1.11,1.11,0,0,1-.508-.186c-3.616-2.339-7.253-4.65-10.688-7.256-.331-.251-.647-.527-.952-.81A3.611,3.611,0,0,1-369.614,372.934Z" transform="translate(-140.101 -139.976)" fill="#1aaef4"></path>
    <path id="Path_199" data-name="Path 199" d="M-526.053,415.744c-.067-.2.073-.225.276-.224q3.42.007,6.84,0c.192,0,.291.015.319.258a12.432,12.432,0,0,0,3.474,7.377,1.343,1.343,0,0,1,.483,1.138,1.332,1.332,0,0,1-.417.774c-1.127,1.12-2.248,2.248-3.374,3.369a1.189,1.189,0,0,1-1.873-.016,19.883,19.883,0,0,1-5.555-11.114C-525.958,416.806-525.993,416.3-526.053,415.744Z" transform="translate(0 -181.413)" fill="#1aaef4"></path>
    <path id="Path_200" data-name="Path 200" d="M-323.228,216.615c0-1.133,0-2.266,0-3.4,0-.2.017-.293.268-.273a19.9,19.9,0,0,1,10.4,3.823c.451.33.87.7,1.313,1.045.156.12.144.19.01.324q-2.453,2.438-4.89,4.891c-.167.169-.255.12-.409,0a12.323,12.323,0,0,0-6.356-2.644c-.314-.037-.338-.15-.335-.4C-323.222,218.855-323.228,217.735-323.228,216.615Z" transform="translate(-181.633 -0.009)" fill="#1aaef4"></path>
    <path id="Path_201" data-name="Path 201" d="M-520.853,276.875q2.546,2.556,5.082,5.095c.158.158.059.237-.031.35a12.458,12.458,0,0,0-2.562,5.655,3.8,3.8,0,0,0-.1.694c0,.287-.091.365-.382.363-2.253-.014-4.507-.01-6.76,0-.219,0-.318-.016-.3-.288a19.925,19.925,0,0,1,4.868-11.671C-520.985,277.01-520.929,276.956-520.853,276.875Z" transform="translate(-0.146 -57.261)" fill="#1aaef4"></path>
    <path id="Path_202" data-name="Path 202" d="M-461.876,217.965a19.888,19.888,0,0,1,6.914-4.03,20.764,20.764,0,0,1,5-1c.189-.015.247.021.246.218q-.009,3.477,0,6.955c0,.19-.062.229-.241.249a12.512,12.512,0,0,0-6.469,2.671c-.114.09-.193.187-.35.029C-458.471,221.358-460.169,219.668-461.876,217.965Z" transform="translate(-57.483 0)" fill="#1aaef4"></path>
  </g>
</svg>
