<?xml version="1.0" encoding="UTF-8"?>
<svg xmlns="http://www.w3.org/2000/svg" width="35.252" height="35.26" viewBox="0 0 35.252 35.26">
  <g id="Evolving_Field" transform="translate(-2705.124 -617.44)">
    <path id="Path_165" data-name="Path 165" d="M2740.376,767.859a1.258,1.258,0,0,1-1.308.766q-16.4-.019-32.8-.01a1.03,1.03,0,0,1-1.14-1.081,1.016,1.016,0,0,1,.96-.981,6.916,6.916,0,0,1,.86,0c.255.021.321-.052.319-.314-.011-2.249.015-4.5-.019-6.746a1.141,1.141,0,0,1,1.232-1.219c1.284.042,2.57.011,3.855.012a1.027,1.027,0,0,1,1.121,1.134c0,2.272,0,4.543-.006,6.815,0,.254.054.332.316.319.48-.024.964-.023,1.445,0,.258.012.319-.059.318-.317-.011-2.421-.007-4.842-.007-7.263,0-.688,0-1.377,0-2.065a1.019,1.019,0,0,1,1.083-1.1q2.013,0,4.027,0a1.02,1.02,0,0,1,1.085,1.1c0,3.1,0,6.2-.007,9.293,0,.286.064.369.353.353.48-.027.963-.02,1.444,0,.228.009.283-.06.281-.283-.011-1.216-.006-2.432-.006-3.649q0-4.7,0-9.4a1.048,1.048,0,0,1,1.188-1.2c1.251,0,2.5.033,3.751-.012a1.153,1.153,0,0,1,1.27,1.252c-.025,4.314-.009,8.628-.02,12.942,0,.287.066.367.353.352.493-.027.987-.017,1.48,0,.2.006.269-.056.242-.248a1.453,1.453,0,0,1,0-.206c0-6.574.01-13.149-.012-19.723a1.15,1.15,0,0,1,1.235-1.251c1.238.043,2.479.045,3.717,0a1.153,1.153,0,0,1,1.269,1.252c-.02,6.6-.01,13.194-.02,19.792,0,.311.074.43.387.383.146-.022.3.009.447-.006a1.174,1.174,0,0,1,1.308.76Z" transform="translate(0 -115.926)" fill="#1aaef4"></path>
    <path id="Path_166" data-name="Path 166" d="M2740.378,625.082a.368.368,0,0,0-.063.071,1.02,1.02,0,0,1-.984.665,1.155,1.155,0,0,1-1.02-.881q-.446-1.652-.89-3.305c-.02-.077-.048-.152-.081-.259-.427.646-.822,1.279-1.25,1.887a38.516,38.516,0,0,1-8.961,8.956,39.27,39.27,0,0,1-13.787,6.522,29.6,29.6,0,0,1-7.1.894,1.028,1.028,0,0,1-1.114-1.041,1.04,1.04,0,0,1,1.089-1.04,31.071,31.071,0,0,0,13.132-3.142,39.445,39.445,0,0,0,13.021-9.76,28.536,28.536,0,0,0,3.1-4.24c.051-.086.1-.175.175-.315l-2.554.68c-.5.132-.991.271-1.49.39a1.032,1.032,0,1,1-.5-2c1.96-.533,3.924-1.054,5.886-1.583a.716.716,0,0,0,.372-.138h.62a1.432,1.432,0,0,1,.741.911q.508,1.987,1.054,3.963a18.9,18.9,0,0,0,.615,2.148Z" transform="translate(-0.002 0)" fill="#1aaef4"></path>
  </g>
</svg>
