<svg width="22" height="10" viewBox="0 0 22 10" fill="none" xmlns="http://www.w3.org/2000/svg">
    <g clip-path="url(#3pau52wtya)">
        <path d="M0 4.797c.115-.258.33-.444.536-.637L4.696.28c.467-.435 1.146-.353 1.422.167.171.32.1.682-.195.957-.922.865-1.846 1.727-2.77 2.587-.058.054-.13.102-.194.153l.022.046h.224c5.836 0 11.672-.002 17.507-.007.55 0 1.021.058 1.288.572v.485c-.068.017-.066.08-.092.125a.83.83 0 0 1-.317.32.901.901 0 0 1-.448.12H2.953c.07.07.114.121.168.17l2.816 2.63c.117.101.201.23.243.375a.738.738 0 0 1-.01.438.758.758 0 0 1-.234.369.834.834 0 0 1-.408.192c-.32.066-.59-.032-.82-.247-.831-.777-1.664-1.554-2.497-2.33-.59-.55-1.175-1.103-1.768-1.649-.19-.174-.359-.355-.445-.593L0 4.797z" fill="#737373"/>
    </g>
    <defs>
        <clipPath id="3pau52wtya">
            <path fill="#fff" transform="rotate(-180 11 5)" d="M0 0h22v10H0z"/>
        </clipPath>
    </defs>
</svg>
