<svg width="26" height="18" viewBox="0 0 26 18" fill="none" xmlns="http://www.w3.org/2000/svg">
<path d="M5 13.6013C5.06843 13.6346 5.05703 13.7084 5.07389 13.7661C5.17785 14.1145 5.38254 14.4203 5.65964 14.6414C5.93674 14.8624 6.27255 14.9878 6.6206 15C6.66374 15 6.70738 15 6.75052 15C11.9191 15 17.088 15 22.2573 15C23.084 15 23.7331 14.4958 23.9404 13.7006C23.9817 13.5377 24.0017 13.3697 23.9999 13.2011C23.9999 9.73614 23.9999 6.26923 23.9999 2.80042C23.9999 1.7578 23.2749 1.00052 22.2786 1C17.0975 1 11.9161 1 6.73466 1C5.89559 1 5.26927 1.50156 5.04513 2.34511C5.0362 2.37838 5.05356 2.42672 5.00099 2.43867L5 13.6013ZM22.0877 2.17412C22.0158 2.23805 21.9801 2.26507 21.9498 2.29678C19.6399 4.72436 17.3309 7.1516 15.0226 9.57848C14.6755 9.94231 14.3239 9.94231 13.9773 9.57848L7.49537 2.76715C7.31436 2.57692 7.12889 2.39137 6.91715 2.17464L22.0877 2.17412ZM22.0912 13.8217H6.94987C6.9712 13.7931 6.98013 13.777 6.99203 13.7646C8.52369 12.1537 10.0549 10.5424 11.5855 8.93087C11.6812 8.82692 11.7244 8.86226 11.7998 8.94231C12.2684 9.44075 12.742 9.93555 13.2121 10.4309C13.9559 11.2147 15.0439 11.2136 15.7908 10.4283C16.2485 9.94595 16.7102 9.4683 17.1624 8.97973C17.273 8.86019 17.3325 8.83992 17.46 8.97245C18.5628 10.144 19.6704 11.3103 20.7825 12.4714C21.2015 12.9142 21.6315 13.3488 22.0912 13.8222V13.8217ZM22.8727 3.02859V13.0281C22.7284 12.8721 22.6034 12.7401 22.476 12.6076C21.0567 11.1152 19.6368 9.62422 18.2162 8.13461C18.1141 8.03066 18.1076 7.97089 18.2162 7.86643C18.4299 7.65852 18.6283 7.43711 18.8346 7.22245L22.8727 3.02859ZM6.12123 2.95842C6.18867 3.03587 6.22785 3.08368 6.27 3.12838C7.77158 4.70738 9.27415 6.28517 10.7777 7.86175C10.8923 7.98129 10.8769 8.03482 10.7713 8.14397C9.25316 9.73302 7.73819 11.3252 6.22636 12.9205C6.20203 12.9566 6.18313 12.9964 6.17032 13.0385L6.12073 12.9943L6.12123 2.95842Z" fill="#1AAEF4"/>
</svg>
