<svg width="21" height="21" viewBox="0 0 21 21" fill="none" xmlns="http://www.w3.org/2000/svg">
    <path d="M.617 9.863V4.097c0-.708.459-1.255 1.176-1.404.148-.025.299-.035.45-.03 1.403-.003 2.807-.003 4.21 0a.896.896 0 0 0 .389-.085c1.116-.512 2.239-1.017 3.35-1.535a.92.92 0 0 1 .838-.004c1.107.512 2.22 1.013 3.328 1.523.147.069.31.103.474.101 1.381-.004 2.763.019 4.143-.01.938-.02 1.646.613 1.643 1.496-.013 3.811-.005 7.618-.006 11.427 0 .916-.62 1.486-1.617 1.487-1.88 0-3.759-.001-5.638-.004-.174 0-.227.037-.225.203.009.895.007 1.79 0 2.686 0 .132.031.175.181.172.453-.01.908-.006 1.359-.003.325 0 .524.17.518.427-.006.257-.198.4-.521.4h-8.1c-.339 0-.532-.152-.532-.411 0-.26.2-.414.53-.416.453 0 .908-.006 1.358.003.144.003.172-.04.172-.162-.006-.902-.008-1.805 0-2.706 0-.16-.049-.193-.215-.192-1.896.006-3.79.006-5.683 0-.753 0-1.319-.372-1.517-.986a1.622 1.622 0 0 1-.067-.51c.002-1.9.003-3.8.002-5.701zm4.136-6.338-.011-.034H2.096a.589.589 0 0 0-.22.044.545.545 0 0 0-.182.122c-.154.145-.17.328-.17.518 0 3.285-.002 6.57-.005 9.856 0 .205.041.273.287.273 3.97-.008 7.938-.01 11.907-.006h5.772c.117 0 .229.032.228-.156-.006-3.347-.009-6.694-.006-10.042 0-.4-.234-.607-.674-.607-.807-.003-1.614-.003-2.42 0-.043 0-.107-.034-.131.039l.224.1c.272.121.442.309.448.594a.572.572 0 0 1-.103.366.66.66 0 0 1-.318.242c-.125.055-.15.126-.15.24.004.917 0 1.833 0 2.749a1.04 1.04 0 0 1-.02.246.392.392 0 0 1-.171.248.464.464 0 0 1-.312.07.452.452 0 0 1-.28-.12.38.38 0 0 1-.121-.259c-.005-.062-.004-.124-.004-.186V5.508c0-.05.055-.134-.05-.152-.134-.022-.39.19-.39.318 0 .847.003 1.694 0 2.54 0 .508-.352.89-.897.995-.464.09-.933.158-1.403.214a19.68 19.68 0 0 1-5.985-.206c-.623-.118-.947-.485-.948-1.061 0-.82-.005-1.64.004-2.459 0-.139-.046-.205-.182-.264a47.241 47.241 0 0 1-1.352-.615.655.655 0 0 1-.286-.23.572.572 0 0 1-.103-.334.576.576 0 0 1 .09-.337.655.655 0 0 1 .273-.24c.097-.056.202-.102.307-.152zm.484.708c.07.038.106.06.144.078 1.695.773 3.39 1.549 5.087 2.327.13.06.222.032.335-.02a4859.44 4859.44 0 0 1 4.962-2.269c.07-.032.16-.04.2-.117a.182.182 0 0 0-.035-.028l-5.184-2.369a.29.29 0 0 0-.273.008L5.236 4.234zm5.383 10.89H1.952c-.43 0-.412 0-.433.383-.023.427.17.738.798.736 5.528-.01 11.057-.012 16.588-.006.083 0 .166 0 .249-.004a.605.605 0 0 0 .34-.125.517.517 0 0 0 .188-.286c.044-.156.007-.316.028-.472.023-.178-.036-.23-.242-.23-2.948.007-5.897.008-8.848.004zm3.707-9.185c-.09.038-.159.064-.224.095-1 .457-2.007.906-3 1.376-.342.161-.64.157-.98-.005-.987-.468-1.987-.914-2.982-1.366-.072-.033-.137-.084-.236-.082v2.228c0 .163.11.207.257.232.526.088 1.053.165 1.585.22 1.786.177 3.592.1 5.353-.224.156-.028.231-.101.23-.254-.006-.73-.003-1.458-.003-2.22zM9.001 18.565c0 .468.005.936 0 1.404 0 .116.034.151.164.151.973-.005 1.945-.005 2.917 0 .117 0 .155-.028.155-.138-.005-.923-.005-1.845 0-2.766 0-.138-.06-.155-.187-.154-.958.004-1.915.004-2.872 0-.14 0-.182.035-.178.162.004.446 0 .894 0 1.341H9z" fill="#1AAEF4" stroke="#1AAEF4" stroke-width=".3"/>
</svg>
