<svg width="23" height="22" viewBox="0 0 23 22" fill="none" xmlns="http://www.w3.org/2000/svg">
    <path d="M19.11 16.405a8.034 8.034 0 0 0-1.732-2.567 8.07 8.07 0 0 0-2.567-1.732l-.026-.01a5.327 5.327 0 0 0-3.12-9.646 5.327 5.327 0 0 0-3.12 9.648l-.025.01a8 8 0 0 0-2.567 1.732 8.071 8.071 0 0 0-2.366 5.535.172.172 0 0 0 .172.176h1.29c.094 0 .169-.075.171-.168a6.405 6.405 0 0 1 1.886-4.39 6.403 6.403 0 0 1 4.56-1.888c1.722 0 3.34.67 4.558 1.889a6.406 6.406 0 0 1 1.887 4.39.17.17 0 0 0 .172.167h1.289a.172.172 0 0 0 .172-.176 8.006 8.006 0 0 0-.634-2.97zm-7.445-4.932a3.671 3.671 0 0 1-2.612-1.083A3.671 3.671 0 0 1 7.97 7.777c0-.986.385-1.914 1.083-2.612a3.671 3.671 0 0 1 2.612-1.083c.987 0 1.915.385 2.613 1.083a3.672 3.672 0 0 1 1.083 2.612c0 .986-.385 1.915-1.083 2.613a3.671 3.671 0 0 1-2.613 1.083z" fill="#1AAEF4"/>
</svg>
