<svg width="19" height="19" viewBox="0 0 19 19" fill="none" xmlns="http://www.w3.org/2000/svg">
<path d="M15.4909 4.69791C15.4909 4.69791 16.6847 4.25904 16.5852 5.32487C16.552 5.76375 16.2536 7.29981 16.0215 8.96127L15.2256 13.8829C15.2256 13.8829 15.1593 14.6039 14.5625 14.7293C13.9656 14.8547 13.0703 14.2905 12.9045 14.1651C12.7719 14.071 10.4176 12.6603 9.58858 11.9707C9.35646 11.7826 9.09119 11.4064 9.62173 10.9675L13.1035 7.83274C13.5014 7.45655 13.8993 6.57881 12.2413 7.64465L7.59904 10.6227C7.59904 10.6227 7.06849 10.9362 6.07373 10.6541L3.91837 10.0271C3.91837 10.0271 3.12255 9.55689 4.48208 9.08664C7.79801 7.61327 11.8766 6.10856 15.4909 4.69791Z" fill="white"/>
</svg>
