<?xml version="1.0" encoding="UTF-8"?>
<svg xmlns="http://www.w3.org/2000/svg" width="39.558" height="39.553" viewBox="0 0 39.558 39.553">
  <g id="Increased_reach" transform="translate(-7852.103 -1941.295)">
    <path id="Path_88" data-name="Path 88" d="M7856.829,1941.295h1.467c.024.025.045.067.072.071a5.436,5.436,0,0,1,3.928,8.113.28.28,0,0,0,.071.413q1.276,1.235,2.536,2.487c.156.156.248.168.433.032a10.738,10.738,0,0,1,13.048.019c.2.146.3.148.469-.024q1.241-1.243,2.51-2.458a.364.364,0,0,0,.082-.541,5.445,5.445,0,0,1,3.549-7.978c.112-.026.264.01.334-.134h1.544c.026.023.049.062.078.066a5.357,5.357,0,0,1,4.524,3.966c.072.225.041.477.186.68v1.622c-.142.054-.1.2-.127.3a5.442,5.442,0,0,1-8.056,3.549.307.307,0,0,0-.45.064c-.829.827-1.66,1.653-2.509,2.459-.219.208-.2.33-.033.555a10.369,10.369,0,0,1,2.128,5.652,10.581,10.581,0,0,1-2.187,7.369c-.144.188-.121.283.039.44.854.838,1.7,1.682,2.537,2.541a.367.367,0,0,0,.543.072,5.453,5.453,0,0,1,7.928,3.321,1.645,1.645,0,0,0,.188.638v1.622c-.14.121-.114.3-.149.453a5.446,5.446,0,0,1-4.959,4.168,5.459,5.459,0,0,1-5.082-8.146.329.329,0,0,0-.077-.478c-.663-.647-1.311-1.31-1.973-1.959a.933.933,0,0,1-.309-.588,6.035,6.035,0,0,0-1.15-2.863,6.406,6.406,0,0,0-2.526-2.033,4.463,4.463,0,1,0-7.19-.013,1.862,1.862,0,0,1-.16.1,6.144,6.144,0,0,0-3.532,5.034.617.617,0,0,1-.224.384c-.628.628-1.247,1.265-1.888,1.88a.414.414,0,0,0-.1.6,5.227,5.227,0,0,1-.352,5.816,5.44,5.44,0,1,1-7.672-7.537,5.225,5.225,0,0,1,5.91-.4c.227.117.35.138.545-.063.813-.843,1.643-1.669,2.482-2.486.192-.187.169-.288.014-.489a10.772,10.772,0,0,1,.016-13.145c.132-.172.16-.265-.015-.432q-1.283-1.228-2.535-2.488c-.17-.172-.28-.134-.453-.034a5.317,5.317,0,0,1-2.568.716,5.453,5.453,0,0,1-1.34-10.772C7856.524,1941.4,7856.707,1941.438,7856.829,1941.295Z" transform="translate(0 0)" fill="#1aaef4"></path>
    <path id="Path_89" data-name="Path 89" d="M7999.809,2186.034a8.107,8.107,0,0,1,2.146.143,3.935,3.935,0,0,1,2.852,3.624.346.346,0,0,1-.22.385,10.808,10.808,0,0,1-9.593-.013.315.315,0,0,1-.206-.354,3.925,3.925,0,0,1,3.748-3.782C7998.959,2186.018,7999.384,2186.034,7999.809,2186.034Z" transform="translate(-127.955 -219.47)" fill="#1aaef4"></path>
    <path id="Path_90" data-name="Path 90" d="M8024.728,2122.249a2.133,2.133,0,1,1-2.123,2.133A2.13,2.13,0,0,1,8024.728,2122.249Z" transform="translate(-152.901 -162.274)" fill="#1aaef4"></path>
  </g>
</svg>
