<?xml version="1.0" encoding="UTF-8"?>
<svg xmlns="http://www.w3.org/2000/svg" width="36" height="39" viewBox="0 0 36 39" fill="none">
  <g clip-path="url(#clip0_270_1738)">
    <path d="M6.25976 39C5.94797 38.8076 5.85029 38.5307 5.8534 38.1704C5.86691 36.3931 5.8534 34.6159 5.8534 32.8396C5.8534 32.2289 6.04255 32.0416 6.65781 32.0344C6.9301 32.0344 7.20238 32.0212 7.47363 32.0344C7.76463 32.0517 7.78542 31.9143 7.68149 31.7128C7.54751 31.4815 7.37343 31.2748 7.16705 31.102C5.47821 29.4897 3.80601 27.86 2.08912 26.2772C0.775458 25.0659 0.35143 23.5746 0.530187 21.89C0.877308 18.7253 1.27223 15.5658 1.63598 12.4031C1.7399 11.4952 1.79498 10.5821 1.89372 9.67413C1.98517 8.82723 2.45596 8.22768 3.26453 7.94369C4.07309 7.65969 4.84322 7.82562 5.48757 8.42109C5.8534 8.75802 5.93447 9.20589 6.00722 9.65987C6.32524 11.6763 6.70976 13.6826 6.95503 15.7103C6.97686 15.8844 7.03402 15.9475 7.22317 15.9322C7.74282 15.8915 8.13877 16.1287 8.45991 16.5185C10.0386 18.4342 11.4614 20.4619 12.9288 22.458C13.6168 23.3934 14.2727 24.3533 14.9721 25.2817C15.4744 25.95 15.7381 26.7616 15.7225 27.5913C15.7225 28.9624 15.737 30.3335 15.7225 31.7036C15.7225 31.9713 15.7952 32.0365 16.0644 32.0344C17.1962 32.0283 17.2408 32.0823 17.2419 33.1969C17.2419 34.8469 17.2419 36.4969 17.2544 38.147C17.2544 38.5215 17.1567 38.8086 16.823 39.003L6.25976 39ZM11.742 32.0324V32.0232C12.5589 32.0232 13.3747 32.0171 14.1916 32.0232C14.4067 32.0232 14.5127 32.0039 14.5034 31.7443C14.4857 30.3193 14.495 28.9003 14.4836 27.4793C14.4837 26.9561 14.3133 26.4465 13.9972 26.0247C12.7574 24.337 11.5372 22.6351 10.3026 20.9444C9.41294 19.728 8.5202 18.5136 7.56302 17.3451C7.37076 17.1099 7.24501 17.0662 7.12549 17.3919C6.97375 17.8082 6.81369 18.2215 6.64949 18.6347C6.61691 18.7225 6.60503 18.8164 6.61475 18.9093C6.62447 19.0022 6.65554 19.0917 6.70561 19.1712C7.32918 20.3927 7.94305 21.6199 8.54722 22.8529C8.99806 23.7359 9.39643 24.6437 9.74032 25.5718C9.88062 25.9698 9.7237 26.3077 9.38177 26.4187C9.03985 26.5296 8.72807 26.3759 8.58361 26.0115C7.7851 23.9934 6.84758 22.0308 5.77754 20.1372C5.29011 19.2689 5.29323 18.4983 5.67361 17.6545C5.70998 17.5731 5.74012 17.4896 5.77754 17.4102C5.86654 17.2265 5.89729 17.0208 5.86586 16.8198C5.56135 14.4033 5.13836 12.0041 4.74447 9.60186C4.69043 9.27511 4.49194 9.11835 4.18847 9.05219C4.06865 9.02175 3.94343 9.01769 3.82182 9.04031C3.70022 9.06293 3.58522 9.11167 3.48515 9.18302C3.38507 9.25436 3.30239 9.34656 3.24304 9.45295C3.18368 9.55934 3.14914 9.67728 3.1419 9.79831C3.0494 10.6808 2.99329 11.5684 2.89248 12.451C2.52769 15.6136 2.14106 18.7742 1.78251 21.9378C1.62869 23.2886 1.92282 24.4897 3.01719 25.4527C4.01802 26.3342 4.95441 27.2849 5.91575 28.2122C6.77523 29.0398 7.68876 29.8124 8.4859 30.701C8.76027 31.0064 8.94943 31.3535 8.96606 31.7566C8.97541 32.0029 9.06477 32.0416 9.28718 32.0385C10.1051 32.0324 10.9209 32.0324 11.742 32.0324ZM11.5165 37.7785C12.8883 37.7785 14.2612 37.7652 15.6331 37.7876C15.9708 37.7927 16.0301 37.692 16.0259 37.3866C16.0062 36.1315 16.0072 34.8764 16.0259 33.6203C16.0259 33.3323 15.9667 33.2345 15.6476 33.2366C12.9164 33.2529 10.1848 33.2566 7.45285 33.2478C7.19303 33.2478 7.10156 33.2966 7.10468 33.5735C7.12131 34.8663 7.12131 36.1593 7.10468 37.4527C7.10468 37.7164 7.16706 37.7897 7.44143 37.7866C8.79354 37.7724 10.1529 37.7805 11.5123 37.7805L11.5165 37.7785Z" fill="#11B400"></path>
    <path d="M19.1697 39.0001C18.835 38.8067 18.7353 38.5187 18.7384 38.1441C18.754 36.3801 18.7477 34.615 18.7508 32.851C18.7508 32.2056 18.9421 32.0275 19.6155 32.0244C20.262 32.0244 20.262 32.0244 20.263 31.3974C20.263 30.1403 20.2713 28.8842 20.2713 27.6312C20.2589 26.7766 20.5298 25.9411 21.0435 25.2503C23.0285 22.5427 24.9575 19.7933 27.0267 17.1447C27.2148 16.9025 27.4154 16.6704 27.6139 16.4322C27.743 16.2639 27.913 16.1298 28.1085 16.0422C28.304 15.9545 28.5187 15.9161 28.7332 15.9304C28.9514 15.9446 29.02 15.8825 29.045 15.6718C29.3079 13.5342 29.7059 11.4109 30.0572 9.28446C30.2796 7.93268 32.1358 7.34229 33.305 8.2472C33.529 8.41137 33.7154 8.61978 33.852 8.85895C33.9886 9.09813 34.0724 9.36273 34.098 9.63563C34.3391 12.3148 34.6266 14.9888 34.9606 17.6577C35.13 19.0299 35.2973 20.4061 35.4521 21.7762C35.6507 23.5372 35.2329 25.0762 33.8558 26.3313C32.2719 27.7747 30.738 29.2741 29.1884 30.751C28.8922 31.034 28.5794 31.3068 28.357 31.6499C28.1813 31.9155 28.253 32.0316 28.5648 32.0346C28.8766 32.0377 29.1884 32.0255 29.5002 32.0346C29.9253 32.055 30.1456 32.2687 30.1466 32.683C30.1518 34.5743 30.1466 36.4656 30.1466 38.3568C30.1466 38.6622 29.9523 38.8281 29.7444 38.9961L19.1697 39.0001ZM24.2248 32.0255V32.0346C25.0666 32.0346 25.9094 32.0346 26.7513 32.0346C26.8666 32.0346 27.0246 32.0937 27.0256 31.8779C27.0256 31.2101 27.433 30.746 27.8831 30.3154C29.5677 28.6989 31.2327 27.0581 32.9589 25.4885C33.9982 24.5459 34.3536 23.417 34.2362 22.0978C34.1499 21.138 34.0283 20.1811 33.9078 19.2243C33.6074 16.8322 33.3019 14.4401 33.0764 12.0409C33.0067 11.2836 32.9392 10.5243 32.8539 9.76796C32.832 9.56372 32.7332 9.37479 32.5768 9.23798C32.4204 9.10118 32.2176 9.02631 32.008 9.02794C31.5746 9.02794 31.3106 9.25697 31.2368 9.71401C30.9271 11.6419 30.6181 13.5698 30.3098 15.4978C30.1632 16.4139 30.0136 17.3229 30.5093 18.1952C30.5997 18.355 30.6132 18.5606 30.6486 18.7469C30.7018 18.9714 30.6739 19.207 30.5696 19.4136C29.444 21.6062 28.2832 23.7835 27.3936 26.084C27.3661 26.1562 27.3243 26.2223 27.2705 26.2785C27.2168 26.3348 27.1522 26.3801 27.0805 26.4117C27.0087 26.4433 26.9313 26.4607 26.8527 26.4628C26.774 26.4649 26.6958 26.4517 26.6224 26.4239C26.3023 26.3048 26.1547 26.0616 26.2285 25.7307C26.2833 25.5095 26.3574 25.2932 26.4499 25.0844C27.1979 23.2786 28.0483 21.5153 28.9972 19.8025C29.3869 19.0971 29.391 18.5097 29.0605 17.8216C28.6448 16.9666 28.7685 16.9289 28.1533 17.7097C26.0227 20.4091 24.0533 23.2226 22.0287 25.9974C21.691 26.4502 21.5107 26.9972 21.5143 27.5579C21.5091 28.9412 21.5143 30.3256 21.4966 31.7089C21.4966 31.9919 21.5923 32.0377 21.849 32.0326C22.643 32.0153 23.4339 32.0255 24.2248 32.0255ZM24.4461 37.7787C25.8315 37.7787 27.2169 37.7736 28.6033 37.7787C28.8309 37.7787 28.915 37.741 28.9088 37.4936C28.895 36.1751 28.895 34.8566 28.9088 33.5381C28.9088 33.305 28.8506 33.2419 28.6095 33.2419C25.8519 33.248 23.0944 33.2449 20.3368 33.2327C20.0687 33.2327 19.9866 33.2978 19.9897 33.5676C20.0022 34.8603 20.0004 36.1537 19.9845 37.4478C19.9845 37.7196 20.0635 37.7797 20.3285 37.7776C21.7014 37.7715 23.0701 37.7787 24.4461 37.7787Z" fill="#11B400"></path>
    <path d="M20.527 8.01869C23.1055 8.88289 24.7881 10.5431 25.4979 13.1082C25.6642 13.7612 25.737 14.4337 25.7141 15.1064C25.7058 15.9695 25.7141 16.8368 25.7141 17.6959C25.7141 18.1926 25.4875 18.4227 24.9803 18.4227C20.3271 18.4227 15.6739 18.4227 11.0207 18.4227C10.5956 18.4227 10.3098 18.2191 10.3098 17.8761C10.3098 16.5447 10.1685 15.2031 10.3732 13.8839C10.8211 10.9889 12.5162 9.07222 15.3223 8.08893C15.3659 8.07366 15.4127 8.0645 15.5187 8.03701C14.1302 6.99875 13.4401 5.68362 13.5648 4.00408C13.6563 2.83654 14.1728 1.86648 15.0614 1.09084C16.8729 -0.490988 19.655 -0.323037 21.3189 1.44303C22.8623 3.07575 23.0629 6.14981 20.527 8.01869ZM19.6457 9.08647C19.6404 9.17121 19.6404 9.2562 19.6457 9.34094C19.839 10.6968 20.0281 12.0537 20.2339 13.4126C20.2911 13.7872 20.2412 14.0956 19.9668 14.3908C19.496 14.8997 19.0658 15.4382 18.6157 15.9614C18.1844 16.4612 17.828 16.4704 17.405 15.9746C16.928 15.4229 16.4644 14.8549 15.9791 14.3144C15.883 14.212 15.8127 14.0889 15.7739 13.9551C15.7351 13.8213 15.7289 13.6805 15.7557 13.5439C15.8748 12.7418 15.9912 11.9386 16.1048 11.1345C16.2005 10.4637 16.2898 9.79188 16.3886 9.07425C14.151 9.60255 12.6471 10.8536 11.8635 12.9189C11.3574 14.2574 11.5933 15.655 11.5393 17.0302C11.533 17.1961 11.6286 17.2094 11.7606 17.2073C12.1493 17.2073 12.539 17.191 12.9267 17.2073C13.1844 17.2205 13.2551 17.1381 13.251 16.8887C13.2364 15.9726 13.2395 15.0565 13.251 14.1475C13.251 13.7302 13.5679 13.4533 13.941 13.5072C14.2809 13.5561 14.4877 13.8126 14.4898 14.2198C14.496 15.1206 14.4981 16.0225 14.4898 16.9233C14.4898 17.1381 14.549 17.2022 14.7714 17.2012C16.9228 17.1944 19.0741 17.1944 21.2254 17.2012C21.4686 17.2012 21.5309 17.135 21.5268 16.903C21.5143 16.0276 21.5195 15.1512 21.5268 14.2758C21.5268 13.7841 21.7845 13.4808 22.1732 13.494C22.5619 13.5072 22.7698 13.7831 22.7708 14.2747C22.7708 15.1501 22.7802 16.0255 22.7656 16.9019C22.7656 17.1361 22.828 17.2134 23.0701 17.2012C23.4453 17.1819 23.8226 17.1839 24.1978 17.2012C24.4181 17.2114 24.4846 17.1422 24.4804 16.9254C24.468 16.2026 24.4752 15.4789 24.4752 14.7552C24.4782 13.7868 24.2228 12.8345 23.7342 11.9926C22.8228 10.4301 21.4592 9.47531 19.6457 9.08647ZM14.787 4.35831C14.7854 4.77411 14.8675 5.18615 15.0285 5.57086C15.1896 5.95557 15.4265 6.30541 15.7257 6.60037C16.025 6.89533 16.3806 7.12962 16.7724 7.28985C17.1641 7.45008 17.5843 7.5331 18.0088 7.53416C18.8591 7.53121 19.6738 7.19913 20.2752 6.61032C20.8766 6.02151 21.2159 5.22371 21.2192 4.39087C21.2223 3.97491 21.1413 3.56245 20.9807 3.17735C20.8201 2.79226 20.5831 2.44216 20.2835 2.14731C19.9839 1.85246 19.6276 1.6187 19.2352 1.45955C18.8428 1.3004 18.4221 1.21902 17.9974 1.22011C17.1474 1.22118 16.3324 1.55196 15.7307 2.14008C15.1291 2.7282 14.7898 3.52577 14.787 4.35831ZM18.0036 8.98773C17.7958 8.96127 17.6482 8.97246 17.6128 9.25341C17.4393 10.6245 17.2408 11.9916 17.0475 13.3596C17.0298 13.4848 16.9903 13.5988 17.0942 13.7149C17.3593 14.0091 17.6139 14.3104 17.8695 14.6157C17.9735 14.7369 18.0369 14.7399 18.1366 14.6157C18.3549 14.349 18.5763 14.0834 18.8101 13.8299C18.8763 13.764 18.9246 13.6829 18.9505 13.594C18.9765 13.5051 18.9793 13.4112 18.9587 13.321C18.755 11.9685 18.5666 10.6113 18.3933 9.24934C18.358 8.97349 18.2146 8.96127 18.0036 8.98773Z" fill="#11B400"></path>
  </g>
  <defs>
    <clipPath id="clip0_270_1738">
      <rect width="35.1691" height="39" fill="white" transform="translate(0.499969)"></rect>
    </clipPath>
  </defs>
</svg>
