<?xml version="1.0" encoding="UTF-8"?>
<svg xmlns="http://www.w3.org/2000/svg" width="42.367" height="44.286" viewBox="0 0 42.367 44.286">
  <g id="Measurable_Results" transform="translate(-7183.068 -2855.598)">
    <path id="Path_99" data-name="Path 99" d="M7237.988,3108.405c1.367,0,2.734,0,4.1,0a4.629,4.629,0,0,0,1.649-.355c2.122-.791,4.256-1.552,6.387-2.319,1.483-.534,2.964-1.075,4.455-1.587a1.97,1.97,0,0,1,2.647,1.589,2.057,2.057,0,0,1-1.037,2,45.064,45.064,0,0,1-9.039,4.155,40.494,40.494,0,0,1-6.8,1.755,18.9,18.9,0,0,1-9.8-1.151,25.364,25.364,0,0,0-6.389-1.656c-.426-.047-.856-.073-1.286-.085-.215-.006-.284-.073-.283-.294q.01-4.447,0-8.895a.368.368,0,0,1,.205-.364c3.48-2.075,7.2-2.206,10.544.321a7.136,7.136,0,0,0,4.689,1.569c1.381-.045,2.765-.023,4.147,0a1.938,1.938,0,0,1,2,2.442,1.892,1.892,0,0,1-1.6,1.4,3.845,3.845,0,0,1-.733.049q-3.986.005-7.972,0c-.139,0-.277-.006-.415,0a.71.71,0,1,0,.02,1.419c.768.01,1.536,0,2.3,0Z" transform="translate(-34.655 -213.974)" fill="#11b400"></path>
    <path id="Path_100" data-name="Path 100" d="M7302.458,2863.937a2.323,2.323,0,0,1-1.979-1.328.468.468,0,0,0-.492-.292c-.722.016-1.444.017-2.165,0a.47.47,0,0,0-.485.3,2.429,2.429,0,0,1-3.232,1.08.374.374,0,0,0-.5.108q-1.8,1.815-3.618,3.614a.372.372,0,0,0-.082.505,2.449,2.449,0,0,1-.668,2.953,2.491,2.491,0,0,1-2.957.167,2.451,2.451,0,0,1-1-2.862.456.456,0,0,0-.146-.548q-1.608-1.584-3.193-3.192a.42.42,0,0,0-.546-.124,2.453,2.453,0,0,1-3-.927,2.5,2.5,0,0,1,3.425-3.49,2.443,2.443,0,0,1,.983,2.976.427.427,0,0,0,.118.548q1.593,1.567,3.16,3.16a.4.4,0,0,0,.549.093,2.234,2.234,0,0,1,1.789-.089.413.413,0,0,0,.512-.125q1.846-1.867,3.713-3.714a.465.465,0,0,0,.134-.556,2.484,2.484,0,0,1,4.693-1.628.4.4,0,0,0,.453.314c.675-.019,1.352-.011,2.027,0a.318.318,0,0,0,.361-.247,2.423,2.423,0,0,1,3.394-1.436c.257.11.352-.01.493-.152,1.041-1.044,2.088-2.081,3.125-3.129a.809.809,0,0,1,.864-.281.732.732,0,0,1,.183,1.27q-1.539,1.556-3.1,3.093a.644.644,0,0,0-.219.774A2.5,2.5,0,0,1,7302.458,2863.937Z" transform="translate(-83.219 0)" fill="#11b400"></path>
    <path id="Path_101" data-name="Path 101" d="M7455.037,2954.537c0-2.487.008-4.974-.009-7.461,0-.351.1-.433.435-.427,1.166.021,2.333.017,3.5,0,.272,0,.363.053.362.348q-.015,7.53,0,15.06c0,.264-.077.33-.333.327-1.2-.013-2.395-.019-3.591,0-.322.006-.368-.109-.368-.391C7455.041,2959.511,7455.037,2957.024,7455.037,2954.537Z" transform="translate(-238.454 -79.833)" fill="#11b400"></path>
    <path id="Path_102" data-name="Path 102" d="M7396.925,2981.7c0-1.9.008-3.808-.007-5.711,0-.322.081-.412.405-.406,1.166.02,2.333.017,3.5,0,.291,0,.4.061.4.379q-.018,5.711,0,11.423c0,.319-.107.371-.39.368-1.183-.014-2.365-.019-3.546,0-.327.007-.364-.116-.363-.392C7396.93,2985.478,7396.925,2983.589,7396.925,2981.7Z" transform="translate(-187.503 -105.202)" fill="#11b400"></path>
    <path id="Path_103" data-name="Path 103" d="M7183.075,3099.222c0-2.195.006-4.39-.006-6.584,0-.34.052-.49.445-.475.873.033,1.749.019,2.624.005.264,0,.382.041.381.345q-.013,6.7,0,13.4c0,.287-.094.364-.371.359-.89-.015-1.78-.021-2.67,0-.332.008-.409-.105-.407-.42C7183.081,3103.642,7183.075,3101.432,7183.075,3099.222Z" transform="translate(0 -207.418)" fill="#11b400"></path>
    <path id="Path_104" data-name="Path 104" d="M7285.1,3008.982c0,1.3-.011,2.608.007,3.911,0,.3-.084.38-.381.376-1.181-.017-2.362-.02-3.542,0-.325.006-.366-.114-.365-.392q.013-3.911,0-7.823c0-.3.078-.387.382-.382,1.15.018,2.3.02,3.45,0,.348-.006.468.067.461.444C7285.085,3006.4,7285.1,3007.694,7285.1,3008.982Z" transform="translate(-85.707 -130.708)" fill="#11b400"></path>
    <path id="Path_105" data-name="Path 105" d="M7343.115,3036.28c0,.721-.008,1.442,0,2.163,0,.242-.039.349-.318.345-1.228-.015-2.455-.012-3.682,0-.238,0-.316-.065-.314-.31q.016-2.187,0-4.373c0-.233.05-.321.3-.318q1.864.018,3.728,0c.221,0,.286.063.283.284C7343.106,3034.807,7343.115,3035.543,7343.115,3036.28Z" transform="translate(-136.55 -156.234)" fill="#11b400"></path>
  </g>
</svg>
