<?xml version="1.0" encoding="UTF-8"?>
<svg xmlns="http://www.w3.org/2000/svg" width="51" height="58" viewBox="0 0 51 58" fill="none">
  <g clip-path="url(#clip0_1285_141)">
    <path d="M7.76189 58C7.40601 57.8454 7.04774 57.7733 6.72638 57.7082C6.5038 57.6629 6.29432 57.621 6.10864 57.5571C4.32326 56.9444 2.81998 55.854 1.76066 54.402C0.700143 52.9465 0.133584 51.1934 0.122872 49.3321C0.110969 47.1117 0.11335 44.8529 0.11692 42.6685C0.118111 41.6827 0.119301 40.6957 0.119301 39.7098V30.9141C0.118111 23.5425 0.11692 16.1709 0.121681 8.79922C0.124062 4.94077 2.39506 1.7531 6.04793 0.480127C6.95014 0.166242 7.92734 0.00697521 8.94976 0.00697521C11.235 0.00697521 13.5203 0.00581267 15.8044 0.0034876C18.1016 0.00232507 20.3988 0 22.696 0C26.2405 0 29.1531 0.0034876 31.8644 0.0127879C34.2735 0.0197631 36.5052 0.907939 38.1478 2.5134C39.7891 4.11653 40.7044 6.29977 40.7259 8.65856C40.7366 9.80714 40.7366 10.9546 40.7259 12.0671C40.7151 13.0936 40.0331 13.8109 39.0666 13.8109C38.099 13.8097 37.4181 13.089 37.4086 12.059C37.4027 11.4731 37.4039 10.8743 37.4062 10.2966C37.4074 9.80249 37.4086 9.30841 37.4062 8.81433C37.386 5.54529 35.0555 3.25975 31.7383 3.2551C27.9842 3.25045 24.2302 3.24696 20.4761 3.24696C16.7221 3.24696 12.9026 3.24928 9.1164 3.25393C5.77894 3.25858 3.44605 5.54296 3.44486 8.81085C3.43891 21.6906 3.43891 34.8946 3.44486 49.1752C3.44605 52.4559 5.7956 54.7496 9.15687 54.753C12.9835 54.7565 16.8102 54.7589 20.6368 54.7589C24.4635 54.7589 28.0259 54.7565 31.7192 54.753C35.046 54.7496 37.3848 52.471 37.4062 49.2124C37.411 48.5288 37.4098 47.8348 37.4086 47.1629C37.4086 46.5118 37.4062 45.8608 37.4098 45.2098C37.4158 44.1438 38.0978 43.3997 39.0666 43.3997C39.5249 43.4009 39.9212 43.5578 40.2188 43.8531C40.5509 44.1821 40.7294 44.6634 40.7223 45.2063C40.7151 45.7945 40.7259 46.3863 40.7366 46.9594C40.7604 48.2277 40.7818 49.4251 40.6235 50.6272C40.1272 54.3868 36.9647 57.442 33.1035 57.8919C32.9559 57.9093 32.8357 57.9477 32.7369 57.9988H7.76189V58Z" fill="#11B400"></path>
    <path d="M20.3965 37.9381C20.3584 37.9381 20.3215 37.9381 20.2834 37.9346C19.9347 37.9149 19.6085 37.773 19.2598 37.487C18.7516 37.072 18.2445 36.657 17.7363 36.242C16.3568 35.1155 14.9297 33.9506 13.5335 32.7974C12.3778 31.8418 11.7946 30.6374 11.7517 29.1145C11.8017 27.6311 12.348 26.472 13.424 25.5711C15.2272 24.0598 17.14 22.4903 19.2741 20.771C19.6431 20.4733 20.0549 20.3164 20.4655 20.3164C20.9369 20.3164 21.3749 20.5292 21.6986 20.9163C22.3176 21.6545 22.1854 22.6043 21.3689 23.2797C19.8668 24.5225 18.3314 25.7757 16.8448 26.9882L16.0985 27.5974C15.551 28.0449 15.0594 28.4983 15.0582 29.1284C15.0582 29.762 15.5557 30.2235 16.1116 30.6792C16.6389 31.1117 17.1673 31.543 17.6946 31.9743C18.9349 32.9869 20.2168 34.0343 21.4653 35.0771C22.0712 35.5828 22.2402 36.2466 21.9414 36.9453C21.6748 37.5673 21.0964 37.9381 20.3941 37.9381H20.3965Z" fill="#11B400"></path>
    <path d="M41.5628 37.9546C41.0748 37.9546 40.6106 37.7361 40.2905 37.3559C39.6882 36.6398 39.7882 35.697 40.5333 35.0622C41.6711 34.0915 42.8423 33.1161 43.9743 32.1722C44.6277 31.6281 45.28 31.0829 45.931 30.5365C46.3857 30.1552 46.8047 29.7204 46.8047 29.1286C46.8047 28.5369 46.3822 28.1021 45.9263 27.7208C44.1683 26.2502 42.4103 24.7819 40.6487 23.3148C40 22.7742 39.7894 22.2325 39.9667 21.5594C40.1631 20.8165 40.8118 20.2969 41.545 20.2969C41.8794 20.2969 42.2008 20.4108 42.4758 20.6282C44.5718 22.2802 46.6976 24.06 48.7936 25.9177C49.6541 26.6804 50.0862 27.7476 50.1136 29.1798C50.0636 30.5725 49.578 31.6804 48.671 32.4721C46.8618 34.0508 44.867 35.726 42.571 37.5919C42.2794 37.8291 41.9306 37.9546 41.5616 37.9546H41.5628Z" fill="#11B400"></path>
    <path d="M28.4284 39.9107C27.9154 39.9072 27.45 39.6887 27.1512 39.3108C26.862 38.9458 26.7692 38.4878 26.8894 38.0228C27.2917 36.4661 27.7547 34.8897 28.2022 33.3668C28.3498 32.8657 28.4962 32.3635 28.6414 31.8625C29.0783 30.3535 29.5186 28.8457 29.9579 27.3379C30.6827 24.8501 31.4326 22.2762 32.1598 19.7431C32.436 18.7805 32.8252 18.3399 33.5476 18.1725C33.6798 18.1423 33.8131 18.126 33.9452 18.126C34.4665 18.126 34.9676 18.3666 35.2866 18.7689C35.5818 19.1409 35.6782 19.5966 35.5592 20.05C35.0224 22.0832 34.4201 24.1398 33.8381 26.13C33.6393 26.8066 33.4417 27.4844 33.2453 28.161C32.5502 30.5604 31.8515 32.9588 31.1529 35.3582L30.2864 38.332C30.0769 39.0528 29.5865 39.9119 28.4403 39.9119H28.426L28.4284 39.9107Z" fill="#11B400"></path>
    <path d="M18.9469 11.4984C18.5981 11.4984 18.3101 11.4949 18.0411 11.4891C17.1186 11.467 16.4247 10.8148 16.3926 9.93939C16.3593 9.04773 17.0127 8.31998 17.8792 8.28395C18.7231 8.24791 19.5801 8.23047 20.4251 8.23047C21.2702 8.23047 22.1272 8.24907 22.9699 8.28395C23.8364 8.32115 24.4887 9.04889 24.4553 9.94056C24.422 10.8148 23.7281 11.467 22.8056 11.4891C22.5438 11.496 22.2629 11.4984 21.9225 11.4984C21.6797 11.4984 21.4357 11.4972 21.1929 11.4949C20.9465 11.4937 20.7001 11.4914 20.4537 11.4914C20.2073 11.4914 19.9455 11.4925 19.6943 11.4949C19.4456 11.496 19.1968 11.4984 18.948 11.4984H18.9469Z" fill="#11B400"></path>
    <path d="M20.4275 49.7689C19.517 49.7689 18.7719 49.0505 18.7671 48.1658C18.7612 47.2869 19.5158 46.5382 20.4156 46.5312H20.4287C21.3202 46.5312 22.0772 47.2706 22.0832 48.1448C22.0855 48.575 21.9153 48.9807 21.6035 49.2876C21.2916 49.5945 20.8774 49.7654 20.437 49.7677H20.4287L20.4275 49.7689Z" fill="#11B400"></path>
  </g>
  <defs>
    <clipPath id="clip0_1285_141">
      <rect width="50" height="58" fill="white" transform="translate(0.114746)"></rect>
    </clipPath>
  </defs>
</svg>
