<?xml version="1.0" encoding="UTF-8"?>
<svg xmlns="http://www.w3.org/2000/svg" width="92" height="254" viewBox="0 0 92 254" fill="none">
  <g clip-path="url(#clip0_270_1545)">
    <path d="M71.6849 101.241C71.6849 101.241 73.5217 106.484 80.517 113.138V114.405C80.517 114.405 79.1394 115.809 79.4915 119.258C79.8435 122.708 79.9813 125.363 81.1829 125.31C82.3845 125.256 82.3156 122.639 82.3156 120.731C82.3156 118.823 84.6116 121.365 84.6116 121.365V124.669L83.0809 127.279C83.0809 127.279 80.9227 128.851 81.489 130.003C81.489 130.003 80.5706 131.01 81.489 131.43C82.4074 131.85 86.2878 131.148 87.3516 130.667C87.9746 130.44 88.5424 130.084 89.0173 129.622C89.4922 129.16 89.8636 128.604 90.1068 127.988C90.5967 126.508 91.0941 122.921 90.6655 121.655C90.237 120.388 87.3592 113.558 87.3592 113.558L86.2954 111.024L83.0503 94.7626L81.2364 91.8018L71.6772 96.243L71.2257 98.2805L70.9348 99.8983L71.6849 101.241Z" fill="white" stroke="#263238" stroke-linecap="round" stroke-linejoin="round"></path>
    <path d="M68.0495 46.8926C68.0495 46.8926 72.4273 49.4261 73.6978 57.0266C74.9682 64.6272 73.6978 66.0389 75.2285 71.953C76.7592 77.8671 81.4431 90.2676 81.4431 90.2676C81.4431 90.2676 73.0243 91.2367 70.0241 97.1355L64.9498 85.4676C64.9498 85.4676 56.332 51.9596 68.0495 46.8926Z" fill="#999999" stroke="#263238" stroke-linecap="round" stroke-linejoin="round"></path>
    <path d="M68.9909 97.2274L69.6873 98.0668C69.8258 98.6953 70.0258 99.3087 70.2843 99.8983C70.7102 100.389 71.1817 100.839 71.6925 101.241C71.6925 101.241 71.7997 97.7921 75.8254 95.747C78.0156 94.5249 80.5881 94.1732 83.0274 94.7625C83.0709 94.1758 83.0709 93.5866 83.0274 92.9998C82.8194 92.3485 82.5636 91.7134 82.262 91.0996L82.0783 89.6802C82.0559 89.5061 81.9973 89.3385 81.9064 89.1881C81.8155 89.0377 81.6942 88.9078 81.5503 88.8066C81.4064 88.7055 81.2429 88.6352 81.0703 88.6004C80.8977 88.5655 80.7197 88.5669 80.5476 88.6043C77.9378 89.1766 72.213 90.9318 68.9526 95.6859C68.7904 95.9122 68.7064 96.185 68.7133 96.463C68.7202 96.7411 68.8176 97.0094 68.9909 97.2274V97.2274Z" fill="#757575" stroke="#263238" stroke-linecap="round" stroke-linejoin="round"></path>
    <path d="M83.058 117.152L82.4534 118.907" stroke="#263238" stroke-width="0.75" stroke-linecap="round" stroke-linejoin="round"></path>
    <path d="M82.1013 130.346C82.1013 130.346 82.5605 130.941 83.4789 130.102C84.3973 129.262 86.9383 126.614 87.1832 125.63C87.4281 124.646 88.1399 120.738 88.5302 120.212" stroke="#263238" stroke-width="0.75" stroke-linecap="round" stroke-linejoin="round"></path>
    <path d="M84.7188 130.553C84.7188 130.553 88.5991 129.026 88.9894 127.775C89.3798 126.523 89.6936 123.868 89.8313 123.234C89.9036 122.9 89.9983 122.571 90.1145 122.25" stroke="#263238" stroke-width="0.75" stroke-linecap="round" stroke-linejoin="round"></path>
    <path d="M72.6798 68.3594C72.1849 69.4222 71.6039 70.4431 70.9425 71.4118" stroke="#263238" stroke-width="0.75" stroke-linecap="round" stroke-linejoin="round"></path>
    <path d="M19.335 199.369L11.5744 204.711C11.5744 204.711 9.33957 201.834 1.9616 205.291C1.6497 205.431 1.37507 205.642 1.15975 205.907C0.944433 206.172 0.794419 206.484 0.72174 206.817C0.499789 207.885 0.407943 209.778 1.3034 212.716C1.80853 214.387 3.27035 216.157 3.94386 218.821C5.07658 223.247 3.94386 227.833 8.32166 234.846C12.6995 241.859 15.2098 243.294 16.9395 242.874C18.6692 242.454 19.9014 240.905 17.3604 233.297C14.8195 225.689 18.4778 215.959 18.4778 215.959L26.9962 208.496L19.335 199.369Z" fill="#263238" stroke="#263238" stroke-linecap="round" stroke-linejoin="round"></path>
    <path d="M1.9616 205.276C1.6497 205.416 1.37507 205.627 1.15975 205.892C0.944433 206.157 0.794419 206.469 0.72174 206.802C0.499789 207.871 0.407943 209.763 1.3034 212.701C1.80853 214.372 3.27035 216.143 3.94386 218.806C5.07658 223.232 3.94386 227.818 8.32166 234.831C12.6995 241.844 15.2098 243.279 16.9395 242.859C18.6692 242.439 19.9014 240.89 17.3604 233.282C15.5695 227.94 16.8629 221.523 17.7814 218.203C16.9012 216.746 13.7939 219.241 12.2096 214.067C11.252 211.041 11.0342 207.831 11.5744 204.704C11.5744 204.704 9.33957 201.842 1.9616 205.276Z" fill="#757575" stroke="#263238" stroke-linecap="round" stroke-linejoin="round"></path>
    <path d="M17.8426 220.393C17.8426 220.393 15.9445 219.241 12.5846 219.973" stroke="#263238" stroke-linecap="round" stroke-linejoin="round"></path>
    <path d="M17.3834 222.43C16.7273 222.196 16.0305 222.096 15.3349 222.137C14.6392 222.177 13.9589 222.358 13.3347 222.666" stroke="#263238" stroke-linecap="round" stroke-linejoin="round"></path>
    <path d="M17.0084 224.91C16.0014 224.573 14.9016 224.644 13.947 225.109" stroke="#263238" stroke-linecap="round" stroke-linejoin="round"></path>
    <path d="M45.5941 106.835H65.5851L66.8555 116.977C66.8555 116.977 70.6823 139.359 70.2384 147.6C69.7945 155.842 68.126 168.799 68.0495 175.896C68.0495 178.659 68.5699 183.527 63.6793 186.03C52.1991 191.876 39.9994 197.858 23.1158 217.714C23.1158 217.714 13.2428 214.334 12.1867 203.353C12.1867 203.353 22.45 196.057 25.5267 193.211C31.4122 187.77 38.5912 178.567 49.5357 171.951L42.2802 135.833C42.2802 135.833 34.2364 130.018 32.9659 106.797L45.5941 106.835Z" fill="#263238"></path>
    <path opacity="0.3" d="M57.3193 117.145C57.3193 117.145 60.9624 124.508 59.8602 130.01C58.7581 135.512 63.4957 125.172 65.8223 129.247C68.149 133.322 59.1102 139.664 58.7581 146.036C58.4061 152.408 65.8835 176.446 53.1558 177.499C40.428 178.552 49.5586 144.128 49.5586 144.128L52.7578 120.235L57.3193 117.145Z" fill="black"></path>
    <path d="M45.5941 106.835H65.5851L66.8555 116.977C66.8555 116.977 70.6823 139.359 70.2384 147.6C69.7945 155.842 68.126 168.799 68.0495 175.896C68.0495 178.659 68.5699 183.527 63.6793 186.03C52.1991 191.876 39.9994 197.858 23.1158 217.714C23.1158 217.714 13.2428 214.334 12.1867 203.353C12.1867 203.353 22.45 196.057 25.5267 193.211C31.4122 187.77 38.5912 178.567 49.5357 171.951L42.2802 135.833C42.2802 135.833 34.2364 130.018 32.9659 106.797L45.5941 106.835Z" stroke="#263238" stroke-linecap="round" stroke-linejoin="round"></path>
    <path d="M62.539 132.124C61.5887 133.554 60.2871 134.718 58.7581 135.505" stroke="#999999" stroke-width="0.75" stroke-linecap="round" stroke-linejoin="round"></path>
    <path d="M63.2507 130.011C63.2503 130.269 63.2116 130.526 63.136 130.774" stroke="#999999" stroke-width="0.75" stroke-linecap="round" stroke-linejoin="round"></path>
    <path d="M57.3193 140.656C59.4974 142.562 61.2318 144.919 62.4012 147.562" stroke="#999999" stroke-width="0.75" stroke-linecap="round" stroke-linejoin="round"></path>
    <path d="M78.2898 241.958C75.2285 241.744 66.6412 238.577 66.6412 238.577L63.113 226.757L52.1532 228.23L55.6279 241.141C54.1784 244.347 53.9075 247.959 54.8625 251.344C55.0391 251.951 55.4005 252.489 55.8968 252.883C56.3932 253.277 56.9998 253.507 57.6331 253.542C65.6583 253.951 73.6986 253.115 81.4661 251.062C84.6882 250.177 91.2089 248.772 90.5737 244.514C89.9385 240.256 81.6268 242.194 78.2898 241.958Z" fill="#263238" stroke="#263238" stroke-linecap="round" stroke-linejoin="round"></path>
    <path d="M55.6279 241.142C54.1784 244.347 53.9075 247.96 54.8625 251.344C55.0391 251.952 55.4005 252.489 55.8968 252.883C56.3932 253.277 56.9998 253.507 57.6331 253.542C65.6583 253.952 73.6986 253.115 81.4661 251.062C84.6882 250.177 91.2089 248.773 90.5737 244.515C89.9385 240.257 81.6268 242.225 78.3281 241.981C75.2667 241.767 66.6795 238.601 66.6795 238.601C60.5567 240.012 60.0439 242.615 57.9928 242.76C57.4648 242.851 56.9216 242.734 56.4796 242.431C56.0376 242.129 55.7319 241.666 55.6279 241.142V241.142Z" fill="#757575" stroke="#263238" stroke-linecap="round" stroke-linejoin="round"></path>
    <path d="M69.5572 239.119C69.5572 239.119 66.6872 238.051 64.1998 241.286" stroke="#263238" stroke-linecap="round" stroke-linejoin="round"></path>
    <path d="M71.2869 239.738C71.2869 239.738 68.8837 238.975 67.7587 242.203" stroke="#263238" stroke-linecap="round" stroke-linejoin="round"></path>
    <path d="M73.1467 240.295C73.1467 240.295 70.9961 239.806 71.2793 242.836" stroke="#263238" stroke-linecap="round" stroke-linejoin="round"></path>
    <path d="M23.7128 110.651C23.7128 110.651 20.6055 123.623 28.7947 144.441L40.6729 182.474C40.6729 182.474 38.6983 196.553 46.0304 217.112C53.3624 237.67 52.8114 240.478 52.8114 240.478C52.8114 240.478 64.1079 239.921 68.0571 235.976C68.0571 235.976 58.1765 200.499 56.7606 189.235C58.3968 178.769 58.2078 168.099 56.2019 157.696C52.8114 141.366 57.6101 139.114 58.1765 128.973C58.7428 118.831 56.2019 108.415 56.2019 108.415L23.1465 103.348L23.7128 110.651Z" fill="#263238"></path>
    <path d="M23.7128 110.651C23.7128 110.651 20.6055 123.623 28.7947 144.441L40.6729 182.474C40.6729 182.474 38.6983 196.553 46.0304 217.112C53.3624 237.67 52.8114 240.478 52.8114 240.478C52.8114 240.478 64.1079 239.921 68.0571 235.976C68.0571 235.976 58.1765 200.499 56.7606 189.235C58.3968 178.769 58.2078 168.099 56.2019 157.696C52.8114 141.366 57.6101 139.114 58.1765 128.973C58.7428 118.831 56.2019 108.415 56.2019 108.415L23.1465 103.348L23.7128 110.651Z" stroke="#263238" stroke-linecap="round" stroke-linejoin="round"></path>
    <path d="M89.6553 247.422C92.931 242.081 79.1777 249.674 66.8326 252.1C58.4137 253.749 55.8957 252.795 55.161 252.009C55.4093 252.448 55.7644 252.818 56.1937 253.085C56.623 253.352 57.1128 253.506 57.6178 253.535C65.6477 253.949 73.6933 253.114 81.4661 251.062C83.8004 250.399 87.8567 249.536 89.6553 247.422Z" fill="#263238" stroke="#263238" stroke-linecap="round" stroke-linejoin="round"></path>
    <path d="M51.8164 134.161C50.0656 132.701 47.8756 131.866 45.5941 131.788" stroke="#263238" stroke-width="0.75" stroke-linecap="round" stroke-linejoin="round"></path>
    <path d="M53.5538 135.505C53.3242 135.345 53.0563 135.139 52.7884 134.895" stroke="#999999" stroke-width="0.75" stroke-linecap="round" stroke-linejoin="round"></path>
    <path d="M44.3313 124.188C44.3313 124.188 54.7783 129.819 54.7783 134.322" stroke="#999999" stroke-width="0.75" stroke-linecap="round" stroke-linejoin="round"></path>
    <path d="M49.5587 186.961C51.0439 188.121 52.8926 188.721 54.7783 188.655" stroke="#999999" stroke-width="0.75" stroke-linecap="round" stroke-linejoin="round"></path>
    <path d="M21.6847 103.142C21.8131 104.209 22.2745 105.208 23.0037 106C23.7329 106.791 24.6931 107.334 25.7487 107.552C32.9889 109.078 49.4209 112.222 58.1688 112.222C69.6032 112.222 66.779 105.042 66.6413 96.4491C66.5035 87.8565 69.1057 76.883 70.2767 68.0081C71.4476 59.1332 71.3022 48.7244 68.0495 46.8929C64.7968 45.0615 50.4006 37.4609 43.6272 37.4609C40.2597 37.4609 33.3868 40.3455 27.4707 43.1156C21.5545 45.8856 16.4344 48.6328 17.0773 51.5097C18.2482 56.8438 19.8937 87.7573 21.6847 103.142Z" fill="#999999" stroke="#263238" stroke-linecap="round" stroke-linejoin="round"></path>
    <path d="M34.4966 39.4679L38.7825 35.7363L47.8902 45.878L50.5383 50.2048L54.0359 42.9706L56.5769 39.5366L58.4903 41.5588L56.156 49.4646L55.1993 45.878L50.4388 51.9981L45.0354 46.084L41.224 50.2048L34.4966 39.4679Z" fill="#757575" stroke="#263238" stroke-linecap="round" stroke-linejoin="round"></path>
    <path d="M58.873 107.255C58.873 107.942 58.873 108.575 58.8194 109.14" stroke="#263238" stroke-width="0.75" stroke-linecap="round" stroke-linejoin="round"></path>
    <path d="M52.6124 58.8359C54.0262 64.1169 55.1732 69.4654 56.0488 74.8612C57.0514 81.607 58.6969 96.7623 58.8576 105.591" stroke="#263238" stroke-width="0.75" stroke-linecap="round" stroke-linejoin="round"></path>
    <path d="M51.1047 53.3721C51.1047 53.3721 51.4261 54.4404 51.9083 56.1956" stroke="#263238" stroke-width="0.75" stroke-linecap="round" stroke-linejoin="round"></path>
    <path d="M24.8532 84.499C24.5853 85.1477 24.3021 85.7963 23.996 86.4526" stroke="#263238" stroke-width="0.75" stroke-linecap="round" stroke-linejoin="round"></path>
    <path d="M28.0753 72.4951C27.5877 75.948 26.7439 79.3415 25.5573 82.6215" stroke="#263238" stroke-width="0.75" stroke-linecap="round" stroke-linejoin="round"></path>
    <path d="M38.6371 36.8652C38.6371 36.8652 40.0913 35.8427 39.3183 32.5995C38.5453 29.3563 37.1983 26.6854 35.9278 25.35C34.6573 24.0145 33.318 18.5202 33.318 18.5202C33.318 18.5202 30.3484 13.7355 35.1548 8.31741C39.9612 2.89935 46.8493 3.51747 49.0612 1.06027C51.273 -1.39693 49.0612 3.5251 49.0612 3.5251C50.7732 4.22427 52.6872 4.25154 54.4186 3.60142C57.1739 2.47202 59.6919 2.75437 60.7251 3.67009C61.7583 4.58582 58.1612 4.02112 58.7964 5.00553C59.4317 5.98994 63.2431 7.11933 63.0288 10.4999C62.8145 13.8805 60.7328 10.7746 60.7328 10.7746L59.8067 12.5374C60.8256 14.3062 61.6102 16.1992 62.141 18.1691V21.687L64.9345 24.6861C65.0604 24.8219 65.1558 24.9829 65.2145 25.1584C65.2733 25.3338 65.2939 25.5197 65.2751 25.7037C65.2563 25.8878 65.1984 26.0657 65.1054 26.2257C65.0124 26.3857 64.8863 26.5242 64.7355 26.632L63.0518 27.8148L62.9829 29.341L62.0645 30.7451L63.4804 31.5082L62.9829 33.126C62.9829 33.126 64.7508 37.0713 63.3349 38.1244C61.919 39.1774 56.133 38.5441 56.133 38.5441V40.986L54.7477 44.5955L50.4694 51.1277L41.7904 40.9784L37.9636 37.4604L38.6371 36.8652Z" fill="white"></path>
    <path d="M62.9676 33.1646C60.2506 31.3332 55.2375 31.8521 59.6459 29.5017C61.6359 28.441 61.3756 29.578 62.9829 28.9981L63.0364 27.8153L63.4957 27.4947C60.2659 27.5863 61.5899 28.9294 58.4826 27.9221C54.9161 26.7622 53.439 21.3594 53.439 21.3594L50.7526 23.2366C51.2195 25.0375 49.1683 31.1958 48.8392 33.5157C48.5101 35.8355 56.1177 38.5827 56.1177 38.5827C56.1177 38.5827 61.9114 39.2161 63.3196 38.163C64.7279 37.1099 62.9676 33.1646 62.9676 33.1646Z" fill="#999999"></path>
    <path d="M38.6371 36.8652C38.6371 36.8652 40.0913 35.8427 39.3183 32.5995C38.5453 29.3563 37.1983 26.6854 35.9278 25.35C34.6573 24.0145 33.318 18.5202 33.318 18.5202C33.318 18.5202 30.3484 13.7355 35.1548 8.31741C39.9612 2.89935 46.8493 3.51747 49.0612 1.06027C51.273 -1.39693 49.0612 3.5251 49.0612 3.5251C50.7732 4.22427 52.6872 4.25154 54.4186 3.60142C57.1739 2.47202 59.6919 2.75437 60.7251 3.67009C61.7583 4.58582 58.1612 4.02112 58.7964 5.00553C59.4317 5.98994 63.2431 7.11933 63.0288 10.4999C62.8145 13.8805 60.7328 10.7746 60.7328 10.7746L59.8067 12.5374C60.8256 14.3062 61.6102 16.1992 62.141 18.1691V21.687L64.9345 24.6861C65.0604 24.8219 65.1558 24.9829 65.2145 25.1584C65.2733 25.3338 65.2939 25.5197 65.2751 25.7037C65.2563 25.8878 65.1984 26.0657 65.1054 26.2257C65.0124 26.3857 64.8863 26.5242 64.7355 26.632L63.0518 27.8148L62.9829 29.341L62.0645 30.7451L63.4804 31.5082L62.9829 33.126C62.9829 33.126 64.7508 37.0713 63.3349 38.1244C61.919 39.1774 56.133 38.5441 56.133 38.5441V40.986L54.7477 44.5955L50.4694 51.1277L41.7904 40.9784L37.9636 37.4604L38.6371 36.8652Z" stroke="#263238" stroke-linecap="round" stroke-linejoin="round"></path>
    <path d="M55.8422 11.3393L59.7914 12.5374L60.7328 10.7746C60.7328 10.7746 62.8298 13.8728 63.0288 10.4999C63.2278 7.12697 59.4317 5.98994 58.7964 5.00553C58.1612 4.02113 61.7583 4.58582 60.7251 3.6701C59.6919 2.75437 57.1739 2.47202 54.4186 3.60142C52.6872 4.25154 50.7733 4.22427 49.0612 3.5251C49.0612 3.5251 51.2807 -1.3893 49.0612 1.06027C46.8417 3.50985 39.9535 2.89172 35.1548 8.31741C30.3561 13.7431 33.318 18.5202 33.318 18.5202C33.318 18.5202 34.6573 24.0145 35.9278 25.35C37.1983 26.6854 38.3769 29.0434 39.1423 32.05C40.1984 31.9279 41.7215 31.8974 42.1271 32.7063C42.7624 33.9807 48.1963 27.2196 48.1963 27.2196C48.1963 27.2196 44.1706 24.8234 44.6681 20.6721C45.1656 16.5208 49.8954 19.9701 49.8954 19.9701L50.7373 23.2743L53.4237 21.3971C53.4237 21.3971 52.7196 18.4896 53.4237 16.8184C54.1278 15.1472 55.8422 11.3393 55.8422 11.3393Z" fill="#757575" stroke="#263238" stroke-width="0.75" stroke-linecap="round" stroke-linejoin="round"></path>
    <path d="M60.7328 10.7746C60.7328 10.7746 62.8298 13.8728 63.0288 10.4999C63.2278 7.12697 59.4317 5.98994 58.7964 5.00553C58.1612 4.02113 61.7583 4.58582 60.7251 3.6701C59.6919 2.75437 57.1739 2.47202 54.4186 3.60142C52.6872 4.25154 50.7733 4.22427 49.0612 3.5251C49.0612 3.5251 51.2807 -1.3893 49.0612 1.06027C46.8417 3.50985 39.9535 2.89173 35.1548 8.31741C30.3561 13.7431 33.318 18.5202 33.318 18.5202C33.318 18.5202 34.6573 24.0145 35.9278 25.35C37.2186 26.9027 38.1771 28.7024 38.7443 30.6383C38.9671 28.7176 38.7767 26.7717 38.1856 24.9302C36.7085 19.7182 36.7085 14.0865 41.5761 12.9571C46.4437 11.8277 53.2936 14.8649 53.8217 13.8041C54.3497 12.7434 54.5258 10.1412 55.8728 11.3393L59.822 12.5374L60.7328 10.7746Z" fill="#263238" stroke="#263238" stroke-linecap="round" stroke-linejoin="round"></path>
    <path d="M61.2073 21.512C61.2073 22.0767 60.9547 22.5346 60.6409 22.5346C60.3271 22.5346 60.0746 22.0767 60.0746 21.512C60.0746 20.9473 60.3271 20.4971 60.6409 20.4971C60.9547 20.4971 61.2073 20.9473 61.2073 21.512Z" fill="#263238"></path>
    <path d="M58.4903 19.078C59.1559 18.9249 59.8457 18.9082 60.518 19.0289C61.1903 19.1495 61.831 19.4051 62.4012 19.7801C62.4012 19.7801 63.2507 19.3604 62.1257 18.1623C62.1027 18.17 58.3219 17.1169 58.4903 19.078Z" fill="#263238" stroke="#263238" stroke-width="0.75" stroke-linecap="round" stroke-linejoin="round"></path>
    <path d="M47.1555 34.9277C47.1555 34.9277 46.1682 39.0103 49.6964 46.0462" stroke="#263238" stroke-width="0.75" stroke-linecap="round" stroke-linejoin="round"></path>
    <path d="M48.8392 33.5156C48.7854 34.3094 48.9179 35.1047 49.2261 35.8386C49.5343 36.5724 50.0098 37.2245 50.6148 37.7432C52.2872 39.0689 54.127 40.1695 56.0871 41.017V38.5827C56.0871 38.5827 48.5101 35.866 48.8392 33.5156Z" fill="#263238" stroke="#263238" stroke-linecap="round" stroke-linejoin="round"></path>
    <path d="M59.1485 30.6387C59.7105 30.8304 60.3155 30.8595 60.8935 30.7226" stroke="#263238" stroke-width="0.75" stroke-linecap="round" stroke-linejoin="round"></path>
    <path d="M14.322 102.15C14.322 102.15 14.0082 107.965 13.373 114.504C12.7377 121.044 13.373 133.407 13.373 133.407C13.373 133.407 16.8936 138.481 17.0237 140.236C17.0926 141.244 17.0696 144.51 17.0237 147.104C16.9854 149.081 17.8732 150.325 17.0237 150.699C15.6843 151.256 14.3449 148.165 14.4904 144.716C14.4904 144.716 14.2072 148.302 14.2761 151.256L14.697 152.171C14.697 152.171 15.6154 152.522 15.4624 153.163C15.4624 153.163 14.6128 154.85 12.2173 153.163C12.2173 153.163 11.582 154.217 10.0284 153.301C9.21275 152.922 8.57818 152.24 8.26042 151.401C8.26042 151.401 6.72972 151.889 5.85723 149.569C5.85723 149.569 4.3801 149.852 3.81374 147.28C3.24738 144.708 3.31627 139.466 4.86993 134.75C4.86993 134.75 2.74991 106.232 3.24738 101.097L14.322 102.15Z" fill="white" stroke="#263238" stroke-linecap="round" stroke-linejoin="round"></path>
    <path d="M18.6539 48.1982C18.6539 48.1982 14.8271 50.1289 12.2096 57.1724C9.59213 64.2158 3.23973 90.8101 3.23973 94.9003V98.983L15.1026 100.814C15.1026 100.814 16.0899 96.1671 15.8068 94.9003C15.8068 94.9003 25.9706 74.7696 26.2538 70.9693C26.5699 69.5063 26.5332 67.9894 26.1466 66.5433" fill="#999999"></path>
    <path d="M18.6539 48.1982C18.6539 48.1982 14.8271 50.1289 12.2096 57.1724C9.59213 64.2158 3.23973 90.8101 3.23973 94.9003V98.983L15.1026 100.814C15.1026 100.814 16.0899 96.1671 15.8068 94.9003C15.8068 94.9003 25.9706 74.7696 26.2538 70.9693C26.5699 69.5063 26.5332 67.9894 26.1466 66.5433" stroke="#263238" stroke-linecap="round" stroke-linejoin="round"></path>
    <path d="M15.6537 102.371L15.7379 101.31L16.1588 99.0587C8.75025 93.8467 1.96925 97.0136 1.96925 97.0136L2.32131 99.1961L2.15294 100.547C2.13177 100.734 2.14942 100.923 2.20479 101.103C2.26016 101.283 2.35207 101.45 2.47481 101.593C2.59754 101.736 2.74848 101.853 2.91826 101.935C3.08803 102.018 3.273 102.065 3.46168 102.073C7.00714 102.326 10.5294 102.836 14.0005 103.599C14.1912 103.638 14.3878 103.635 14.5776 103.593C14.7674 103.55 14.9461 103.469 15.102 103.353C15.258 103.237 15.3877 103.089 15.4827 102.92C15.5778 102.751 15.636 102.564 15.6537 102.371V102.371Z" fill="#757575" stroke="#263238" stroke-linecap="round" stroke-linejoin="round"></path>
    <path d="M15.1715 141.785C14.8447 142.319 14.6505 142.924 14.6052 143.548" stroke="#263238" stroke-width="0.75" stroke-linecap="round" stroke-linejoin="round"></path>
    <path d="M9.92888 146.921C10.1275 147.01 10.3011 147.146 10.4345 147.318C10.5679 147.49 10.6571 147.691 10.6942 147.905C10.832 148.668 10.6177 151.324 11.4137 152.255" stroke="#263238" stroke-width="0.75" stroke-linecap="round" stroke-linejoin="round"></path>
    <path d="M7.54865 147.135C8.02875 148.516 8.26693 149.969 8.25276 151.431" stroke="#263238" stroke-width="0.75" stroke-linecap="round" stroke-linejoin="round"></path>
    <path d="M4.90054 145.234C5.60102 146.568 5.92882 148.065 5.84957 149.569" stroke="#263238" stroke-width="0.75" stroke-linecap="round" stroke-linejoin="round"></path>
  </g>
  <defs>
    <clipPath id="clip0_270_1545">
      <rect width="91" height="254" fill="white" transform="translate(0.185989)"></rect>
    </clipPath>
  </defs>
</svg>
