<svg width="27" height="12" viewBox="0 0 27 12" fill="none" xmlns="http://www.w3.org/2000/svg">
    <g clip-path="url(#k6ido7v89a)">
        <path d="M0 5.757c.14-.31.405-.534.659-.765C2.362 3.44 4.063 1.888 5.763.336c.573-.522 1.407-.423 1.745.201.211.384.123.817-.238 1.149a1233.676 1233.676 0 0 1-3.4 3.103c-.07.065-.159.123-.238.183l.027.057h.275c7.162 0 14.324-.003 21.486-.009.675 0 1.253.07 1.581.686v.582c-.084.021-.082.097-.114.15a1.007 1.007 0 0 1-.389.385 1.125 1.125 0 0 1-.55.142H3.624c.085.085.14.147.206.204 1.152 1.054 2.304 2.106 3.457 3.158a.93.93 0 0 1 .298.449.866.866 0 0 1-.012.526.907.907 0 0 1-.287.442c-.14.12-.314.2-.502.23-.392.08-.723-.038-1.005-.295a3460.13 3460.13 0 0 0-3.066-2.797C1.99 8.222 1.272 7.558.544 6.904c-.233-.209-.44-.426-.546-.711L0 5.757z" fill="#1AAEF4"/>
    </g>
    <defs>
        <clipPath id="k6ido7v89a">
            <path fill="#fff" transform="rotate(-180 13.5 6)" d="M0 0h27v12H0z"/>
        </clipPath>
    </defs>
</svg>
