<svg width="683" height="115" viewBox="0 0 683 115" fill="none" xmlns="http://www.w3.org/2000/svg">
    <path d="M1 65.519c11.284 5.803 38.592 15.668 57.55 8.705 23.697-8.705 17.196-35.847 7.062-31.24-10.134 4.605-20.037 58.993 45.371 40.764 65.408-18.23 102.254-78.482 220.228-40.765 117.973 37.718 61.769 89.205 57.874 64.985-3.896-24.22 27.824-64.196 90.149-48.97 49.861 12.18 111.667-5.601 136.338-16.015" stroke="#1AAEF4" stroke-dasharray="4 4"/>
    <g clip-path="url(#y0hp4607oa)">
        <path d="M608.864 21.496c0-1.104-.846-.859-1.506-1.018a1859.919 1859.919 0 0 1-15.334-3.909c-.52-.137-1.476-.043-1.328-1.005.123-.816.943-.717 1.544-.812 15.009-2.33 30.018-4.662 45.025-6.993a7171.808 7171.808 0 0 0 37.295-5.958c1.793-.292 3.531-.979 5.404-.58a.832.832 0 0 0 .728-.24c.342-.627.765-.924 1.268-.314.385.456.948.971.592 1.719-.355.747-.596 1.615-1.323 2.147-5.566 4.068-9.896 9.45-14.802 14.249-4.905 4.798-9.608 9.75-14.433 14.634-1.471 1.487-3.446 1.603-5.831.37-2.58-1.336-5.346-2.096-8.128-2.818-.381-.606-1.049-.644-1.629-.86-4.44-1.503-8.879-3.006-13.316-4.51-.77-.261-1.73-.33-1.692-1.533 4.69-2.088 9.579-3.63 14.378-5.408 8.555-3.166 17.115-6.332 25.611-9.656 5.413-2.122 10.969-3.866 16.243-6.362.457-.026.956.056 1.247-.43l.571-.171-.114-.168-.452.344c-.474 0-.977-.12-1.269.404a7.815 7.815 0 0 0-2.284.279A4683.473 4683.473 0 0 1 649.08 9.8c-10.661 2.796-21.351 5.472-31.957 8.453-2.813.778-6.094.645-8.259 3.243z" fill="#1AAEF4"/>
        <path d="M608.864 21.496c2.165-2.577 5.446-2.466 8.263-3.256 10.606-2.981 21.297-5.657 31.958-8.454 8.739-2.29 17.489-4.592 26.249-6.903a7.808 7.808 0 0 1 2.283-.279l.034.043c-5.273 2.487-10.83 4.24-16.243 6.362-8.496 3.325-17.055 6.49-25.611 9.656-4.804 1.779-9.692 3.32-14.378 5.408-2.068-.107-2.068 1.611-2.41 2.9-1.311 5.154-2.605 10.33-3.806 15.524a2.365 2.365 0 0 1-.476.996 2.31 2.31 0 0 1-.873.662c-1.058-.657-.922-1.86-1.155-2.835-1.336-5.584-2.592-11.169-3.84-16.753-.215-.992-.621-2.04.005-3.071z" fill="#80D6FF"/>
        <path d="M613.854 44.155c.341-.146.642-.373.878-.662.237-.29.401-.633.479-1 1.18-5.193 2.474-10.36 3.806-15.524.33-1.315.355-3.007 2.406-2.908-.055 1.203.905 1.288 1.692 1.533 4.438 1.507 8.876 3.01 13.317 4.51.579.198 1.247.237 1.628.86-.19.605-.736.859-1.197 1.15-6.225 4.15-12.453 8.296-18.683 12.437-1.565 1.026-3.007 1.185-4.326-.396z" fill="#0982BB"/>
        <path d="M678.899 2.196c-.292.507-.791.43-1.248.43l-.034-.043c.309-.524.812-.408 1.269-.404l.013.017zM678.903 2.201l.452-.344.114.168-.57.172.004.004z" fill="#4B83AF"/>
    </g>
    <defs>
        <clipPath id="y0hp4607oa">
            <path fill="#fff" transform="translate(590.679 .332)" d="M0 0h92v45H0z"/>
        </clipPath>
    </defs>
</svg>
