<svg width="707" height="132" viewBox="0 0 707 132" fill="none" xmlns="http://www.w3.org/2000/svg">
<path d="M1 32.0964C7 66.4712 62.0921 94.0418 81.0497 85.3892C104.747 74.5735 98.2455 40.8498 88.1118 46.573C77.9782 52.2962 68.0749 119.873 133.483 97.2231C198.891 74.5735 271.026 23.1288 389 69.9926C506.974 116.856 454 153.24 441 115.344C426.106 71.9272 495.305 -0.640683 547 46.5731C589.5 85.3887 628 90.8328 638.072 46.573" stroke="#1AAEF4" stroke-dasharray="4 4"/>
<g clip-path="url(#clip0_1_308)">
<path d="M632.863 21.3572C632.863 20.2533 632.018 20.4981 631.358 20.3392C626.241 19.0505 621.128 17.7619 616.024 16.4303C615.504 16.2928 614.548 16.3873 614.696 15.4251C614.819 14.6089 615.639 14.7077 616.24 14.6132C631.249 12.2822 646.258 9.95115 661.265 7.62011C673.701 5.66707 686.132 3.68111 698.56 1.66221C700.353 1.37011 702.091 0.682811 703.964 1.0823C704.096 1.10307 704.23 1.09213 704.356 1.05034C704.483 1.00854 704.597 0.937072 704.692 0.841747C705.034 0.214599 705.457 -0.0817843 705.96 0.528181C706.345 0.983508 706.908 1.49897 706.552 2.24639C706.197 2.99382 705.956 3.86151 705.229 4.39416C699.663 8.46203 695.333 13.8443 690.427 18.6424C685.522 23.4405 680.819 28.3933 675.994 33.2773C674.522 34.7636 672.548 34.8795 670.162 33.6467C667.583 32.3108 664.817 31.5505 662.035 30.8289C661.654 30.2232 660.986 30.1845 660.406 29.9698C655.966 28.4663 651.527 26.9629 647.09 25.4594C646.32 25.1974 645.36 25.1287 645.398 23.9259C650.088 21.8383 654.976 20.2962 659.776 18.5179C668.331 15.3521 676.891 12.1862 685.387 8.8615C690.8 6.73951 696.356 4.99552 701.63 2.49982C702.087 2.47404 702.586 2.55566 702.877 2.07026L703.448 1.89846L703.334 1.73093L702.882 2.07456C702.408 2.07456 701.905 1.95429 701.613 2.47834C700.842 2.45818 700.073 2.55225 699.329 2.75756C690.59 5.08288 681.84 7.38386 673.08 9.66049C662.419 12.4569 651.729 15.133 641.123 18.1141C638.31 18.8916 635.029 18.7584 632.863 21.3572Z" fill="#1AAEF4"/>
<path d="M632.863 21.3571C635.029 18.7797 638.31 18.8914 641.127 18.101C651.733 15.1199 662.423 12.4438 673.084 9.64744C681.824 7.35649 690.574 5.05551 699.333 2.74451C700.077 2.5392 700.846 2.44515 701.617 2.46532L701.651 2.50826C696.377 4.99538 690.821 6.74795 685.408 8.86995C676.912 12.1947 668.352 15.3605 659.797 18.5263C654.993 20.3046 650.105 21.8468 645.419 23.9344C643.351 23.827 643.351 25.5452 643.008 26.8339C641.697 31.9885 640.403 37.1646 639.202 42.3579C639.124 42.7237 638.961 43.0652 638.727 43.3537C638.492 43.6422 638.192 43.8693 637.853 44.016C636.796 43.3588 636.932 42.156 636.699 41.181C635.363 35.5968 634.107 30.0126 632.859 24.4284C632.643 23.4361 632.237 22.388 632.863 21.3571Z" fill="#80D6FF"/>
<path d="M637.854 44.0159C638.195 43.8699 638.496 43.6426 638.732 43.3532C638.969 43.0639 639.133 42.721 639.211 42.3535C640.391 37.1602 641.685 31.9927 643.017 26.8295C643.347 25.515 643.372 23.8226 645.423 23.9214C645.368 25.1241 646.328 25.21 647.115 25.4549C651.552 26.9612 655.991 28.4646 660.432 29.9652C661.011 30.1628 661.679 30.2014 662.06 30.8243C661.87 31.43 661.324 31.6834 660.863 31.9755C654.638 36.125 648.41 40.2702 642.18 44.4111C640.615 45.4377 639.173 45.5966 637.854 44.0159Z" fill="#0982BB"/>
<path d="M702.899 2.05687C702.607 2.56374 702.108 2.48642 701.651 2.48642L701.617 2.44345C701.926 1.91939 702.429 2.0354 702.886 2.03969L702.899 2.05687Z" fill="#4B83AF"/>
<path d="M702.903 2.0619L703.355 1.71826L703.469 1.88577L702.898 2.0576L702.903 2.0619Z" fill="#4B83AF"/>
</g>
<defs>
<clipPath id="clip0_1_308">
<rect width="92" height="45" fill="white" transform="translate(614.679 0.192871)"/>
</clipPath>
</defs>
</svg>
