<svg width="20" height="20" viewBox="0 0 20 20" fill="none" xmlns="http://www.w3.org/2000/svg">
<path d="M15.8308 16.6663C8.72167 16.6763 3.32583 11.2163 3.33333 4.16884C3.33333 3.70801 3.70667 3.33301 4.16667 3.33301H6.36667C6.77917 3.33301 7.13 3.63634 7.19083 4.04467C7.33592 5.02389 7.62077 5.97721 8.03667 6.87551L8.1225 7.06051C8.18016 7.185 8.19256 7.32571 8.15757 7.45837C8.12258 7.59103 8.04239 7.70731 7.93083 7.78717C7.24917 8.27384 6.98917 9.25301 7.52 10.0163C8.18832 10.9774 9.02245 11.8119 9.98333 12.4805C10.7475 13.0105 11.7267 12.7505 12.2125 12.0697C12.2923 11.9578 12.4087 11.8773 12.5415 11.8421C12.6744 11.807 12.8153 11.8194 12.94 11.8772L13.1242 11.9622C14.0225 12.3788 14.9758 12.6638 15.955 12.8088C16.3633 12.8697 16.6667 13.2205 16.6667 13.6338V15.833C16.6667 15.9425 16.6451 16.0509 16.6032 16.1521C16.5612 16.2533 16.4998 16.3452 16.4223 16.4226C16.3448 16.5 16.2529 16.5613 16.1517 16.6031C16.0505 16.645 15.942 16.6665 15.8325 16.6663H15.8308Z" fill="#1AAEF4"/>
</svg>
