<?xml version="1.0" encoding="UTF-8"?>
<svg xmlns="http://www.w3.org/2000/svg" width="67" height="68" viewBox="0 0 67 68" fill="none">
  <g clip-path="url(#clip0_1285_148)">
    <path d="M37.6631 0.950195C38.7769 1.47029 39.2197 2.35814 39.0917 3.57521C39.0623 3.8554 39.1003 4.14259 39.083 4.42628C39.0675 4.6802 39.1574 4.81154 39.3943 4.91836C40.2816 5.31588 41.1255 5.7992 41.8986 6.3946C42.12 6.56447 42.2895 6.58373 42.5264 6.42612C42.9225 6.16345 43.3358 5.93054 43.7526 5.70114C44.7764 5.13726 45.8625 5.39118 46.4471 6.39635C47.758 8.64837 49.0482 10.9126 50.3194 13.1874C50.8901 14.2083 50.629 15.3851 49.574 15.8737C48.3495 16.4393 47.7926 17.1941 48.1351 18.5565C48.2025 18.8227 48.1991 19.1414 48.1195 19.4023C47.8393 20.313 48.3028 20.735 49.0448 21.0695C49.7452 21.3847 50.3644 21.8225 50.5425 22.663C50.603 22.9502 50.8659 22.9922 51.0683 23.0956C55.6617 25.4211 60.2569 27.7432 64.8521 30.067C66.0662 30.6817 66.528 31.6361 66.1337 32.699C65.9227 33.2664 65.5041 33.6114 64.9836 33.8741C63.3094 34.7164 61.6405 35.5692 59.9698 36.4185C59.8972 36.4553 59.828 36.4991 59.7554 36.5411C59.8021 36.7775 60.0062 36.7845 60.1445 36.8563C61.7546 37.6811 63.3665 38.5059 64.9853 39.3115C65.7687 39.702 66.2616 40.2834 66.2565 41.1905C66.2513 42.0976 65.748 42.6702 64.9663 43.059C63.3648 43.854 61.7754 44.6736 60.1826 45.4844C60.0356 45.5597 59.892 45.6385 59.6412 45.7733C61.1632 46.5473 62.5934 47.2723 64.0237 47.999C64.3886 48.1847 64.757 48.3615 65.1202 48.5524C65.8258 48.9237 66.2461 49.5016 66.2582 50.3176C66.272 51.1634 65.8552 51.7746 65.1219 52.1493C62.9929 53.2368 60.8553 54.3103 58.7212 55.3908C50.7068 59.4465 42.6855 63.4917 34.685 67.5754C33.6784 68.0885 32.8345 68.0728 31.8314 67.5614C21.7866 62.4462 11.7246 57.3661 1.6625 52.2842C0.846192 51.8709 0.26682 51.3158 0.270279 50.3421C0.273738 49.3685 0.856569 48.8133 1.67115 48.4106C3.38678 47.5648 5.08858 46.6909 6.8094 45.8206C6.67104 45.5439 6.41508 45.5089 6.21965 45.4091C4.64757 44.6018 3.07029 43.805 1.48955 43.0152C0.728588 42.6352 0.26855 42.0468 0.270279 41.1712C0.273738 40.2956 0.738965 39.716 1.49993 39.3342C3.26745 38.4499 5.02805 37.5498 6.80075 36.6514C6.70736 36.401 6.49464 36.3835 6.3338 36.3029C4.72193 35.4799 3.10834 34.6568 1.49128 33.8443C0.730318 33.4608 0.270279 32.8759 0.270279 32.0003C0.272009 31.1247 0.738965 30.5468 1.4982 30.1633C6.11589 27.8325 10.7267 25.4894 15.3443 23.1604C15.7041 22.9782 15.9669 22.7926 16.0932 22.3548C16.2955 21.6473 16.9372 21.3234 17.5373 21.0362C18.2222 20.7087 18.6199 20.355 18.4228 19.4636C18.2671 18.7544 18.3242 17.9821 18.4626 17.2484C18.5283 16.8999 18.3951 16.7318 18.1132 16.5847C17.712 16.3763 17.3211 16.1434 16.9372 15.9035C15.9479 15.2853 15.6332 14.2066 16.2022 13.1892C17.4733 10.9144 18.7635 8.65012 20.0744 6.3981C20.6469 5.41394 21.7036 5.14601 22.7119 5.66962C23.2618 5.95681 23.8066 6.50493 24.3462 6.49267C24.8564 6.48216 25.3165 5.77644 25.8682 5.58906C27.1964 5.13901 27.653 4.31596 27.4627 2.91677C27.3296 1.93436 28.0629 1.36873 28.8584 0.950195H37.6579L37.6631 0.950195ZM6.5863 31.9898C6.73504 32.0861 6.76962 32.1141 6.80767 32.1334C15.4913 36.5323 24.1767 40.9278 32.8552 45.3355C33.1959 45.5089 33.438 45.4458 33.7442 45.29C42.3344 40.9348 50.9282 36.5884 59.5184 32.2367C59.636 32.1772 59.8263 32.1737 59.8367 31.9303C56.3328 30.1581 52.815 28.3859 49.3059 26.5944C48.9842 26.4298 48.9064 26.5804 48.7767 26.8098C48.0175 28.1512 47.2617 29.4944 46.48 30.8235C45.9058 31.8024 44.8923 32.1281 43.9273 31.6676C43.6177 31.5187 43.296 31.3664 43.0314 31.151C42.4572 30.6799 41.9539 30.6887 41.4213 31.2175C41.212 31.4259 40.9387 31.615 40.6603 31.7008C39.3338 32.1106 38.8824 32.9477 39.0502 34.3574C39.1816 35.4519 38.2546 36.3134 37.1616 36.3222C34.5535 36.3415 31.9438 36.3415 29.3357 36.3222C28.3551 36.3152 27.5561 35.5569 27.4523 34.592C27.4126 34.2243 27.3901 33.8425 27.4472 33.4818C27.563 32.7393 27.2846 32.3155 26.5807 32.0914C26.24 31.9828 25.8872 31.7972 25.6295 31.552C24.725 30.6904 23.9104 30.7447 22.8969 31.4714C21.7676 32.2822 20.659 31.9127 19.9586 30.6957C19.2443 29.4541 18.5283 28.2125 17.8417 26.9552C17.6272 26.5611 17.4681 26.4491 17.0185 26.6872C15.0953 27.7029 13.1444 28.6661 11.204 29.6485C9.69243 30.4137 8.1826 31.1807 6.58284 31.9915L6.5863 31.9898ZM24.4967 26.3405C24.9982 26.3125 25.4358 26.4806 25.8024 26.8116C27.039 27.9323 28.4364 28.7501 30.012 29.2912C30.8732 29.5872 31.3021 30.2684 31.3212 31.1965C31.3264 31.4154 31.3488 31.6378 31.316 31.8515C31.2416 32.333 31.4492 32.4311 31.885 32.4083C32.5941 32.3698 33.3083 32.3978 34.0191 32.3978C35.1796 32.3978 35.1848 32.3978 35.2004 31.2368C35.2125 30.3069 35.6189 29.6064 36.4784 29.3087C38.073 28.7571 39.4825 27.9218 40.7468 26.7993C41.4144 26.2074 42.1909 26.1811 42.9761 26.5944C43.2044 26.7152 43.443 26.8291 43.6471 26.9849C43.9826 27.2406 44.1383 27.1233 44.3164 26.7835C44.7194 26.0148 45.1223 25.2373 45.6118 24.5245C46.0061 23.9466 45.9041 23.6629 45.2987 23.3898C44.3908 22.98 43.8045 22.2813 43.9947 21.2271C44.3095 19.4846 44.3129 17.7667 43.9895 16.0261C43.8356 15.196 44.2196 14.5428 44.9217 14.0928C45.086 13.9877 45.2486 13.8739 45.4267 13.8021C45.9092 13.6129 46.0147 13.3783 45.6965 12.9002C45.2399 12.2155 44.8214 11.4958 44.4738 10.7498C44.178 10.1141 43.8961 10.1036 43.341 10.4591C42.2341 11.1666 41.4714 11.128 40.6257 10.3785C39.4272 9.31556 38.0903 8.51528 36.5736 8.01269C35.8143 7.76052 35.3543 7.20715 35.2246 6.40686C35.1762 6.10916 35.1675 5.79045 35.2107 5.49275C35.2868 4.95163 35.0568 4.84656 34.5743 4.86933C33.7563 4.90785 32.9313 4.93412 32.1185 4.86407C31.4198 4.80278 31.2779 5.0567 31.3056 5.71515C31.3592 7.00401 30.9563 7.6607 29.9255 8.01969C28.4174 8.54505 27.0649 9.31907 25.8837 10.403C25.3666 10.8776 24.7561 11.0475 24.0868 10.8934C23.7807 10.8233 23.4901 10.65 23.21 10.4924C22.4576 10.0686 22.4611 10.0616 22.0184 10.8391C21.6431 11.4993 21.3058 12.1892 20.8769 12.8109C20.5085 13.345 20.6123 13.5937 21.1744 13.8511C22.0875 14.2696 22.7292 14.9614 22.5285 16.0523C22.2086 17.7948 22.2138 19.5127 22.5337 21.2533C22.6859 22.0834 22.302 22.7366 21.5998 23.1866C21.3819 23.3267 21.164 23.4721 20.9288 23.5771C20.6106 23.7207 20.5327 23.8748 20.7334 24.2058C21.2608 25.0779 21.7693 25.9657 22.2518 26.8641C22.4248 27.1863 22.5718 27.1776 22.8468 27.0094C23.357 26.696 23.8464 26.309 24.495 26.3405H24.4967ZM6.57592 41.166C6.81113 41.2973 6.93392 41.3726 7.0619 41.4374C15.6677 45.7961 24.2753 50.1512 32.8794 54.5187C33.189 54.6763 33.419 54.636 33.7113 54.4872C42.2998 50.1302 50.8918 45.7821 59.4804 41.4286C59.6136 41.3621 59.8349 41.3638 59.8349 41.1064C58.4911 40.427 57.1387 39.7598 55.8053 39.0575C55.4265 38.8579 55.136 38.8509 54.7434 39.0505C48.0451 42.4583 41.3313 45.8363 34.6383 49.2546C33.6836 49.7415 32.8604 49.7502 31.8988 49.2581C25.204 45.8346 18.4902 42.4531 11.7816 39.0575C11.5205 38.9244 11.2991 38.7581 10.9532 38.9402C9.54369 39.6827 8.11515 40.3884 6.57419 41.1677L6.57592 41.166ZM6.56382 50.3421C6.8267 50.4822 6.95641 50.5558 7.08958 50.6223C15.6764 54.9705 24.2649 59.3151 32.8448 63.6791C33.2201 63.87 33.4744 63.7719 33.7926 63.6108C42.3241 59.2836 50.8573 54.9635 59.3905 50.6398C59.5513 50.5575 59.7623 50.54 59.8591 50.2913C58.5119 49.6084 57.1629 48.9464 55.8364 48.239C55.4317 48.0236 55.1273 48.0218 54.714 48.232C47.9777 51.659 41.2276 55.0615 34.4913 58.4886C33.675 58.9036 32.9313 58.9754 32.1064 58.5201C31.0133 57.916 29.8823 57.3818 28.7667 56.818C23.0958 53.9495 17.4249 51.0811 11.7522 48.2162C11.536 48.1076 11.3544 47.9115 11.0466 48.0708C9.59904 48.8221 8.13763 49.5453 6.56382 50.3386V50.3421Z" fill="#4800E2"></path>
    <path d="M33.1665 25.8451C29.2665 25.7961 26.1085 22.5197 26.1466 18.5585C26.1846 14.5851 29.4499 11.3734 33.3913 11.4365C37.2913 11.4978 40.4303 14.7865 40.3767 18.7529C40.3248 22.7 37.0786 25.8924 33.1665 25.8451ZM36.4957 18.618C36.4853 16.8126 35.0136 15.3486 33.2253 15.3661C31.4682 15.3836 30.0344 16.8476 30.031 18.6303C30.0258 20.4393 31.4837 21.919 33.2703 21.9155C35.0551 21.912 36.5078 20.4287 36.4975 18.618H36.4957Z" fill="#4800E2"></path>
  </g>
  <defs>
    <clipPath id="clip0_1285_148">
      <rect width="66" height="67" fill="white" transform="translate(0.270264 0.950195)"></rect>
    </clipPath>
  </defs>
</svg>
