<?xml version="1.0" encoding="UTF-8"?>
<svg xmlns="http://www.w3.org/2000/svg" width="46" height="64" viewBox="0 0 46 64" fill="none">
  <g clip-path="url(#clip0_1285_114)">
    <path d="M5.86225 63.4506C5.77109 63.2368 5.54568 63.2845 5.38656 63.2401C2.40479 62.4295 0.414185 59.95 0.41087 56.9C0.399268 40.2753 0.395953 23.6489 0.412527 7.02416C0.415842 3.32138 3.32965 0.468652 7.08214 0.462075C15.8236 0.445633 24.565 0.450565 33.3065 0.458787C37.233 0.462075 40.0888 3.31315 40.0921 7.22311C40.0987 19.2161 40.0937 31.2074 40.0937 43.2003V43.9928C40.9308 43.738 41.7379 43.6952 42.5484 43.9402C44.2407 44.4516 45.3761 45.9117 45.386 47.768C45.4125 52.5033 45.391 57.2387 45.3993 61.9741C45.3993 62.6909 45.0263 63.1316 44.433 63.4506H43.5645C42.8617 62.9754 42.7092 62.3029 42.7142 61.4906C42.7407 56.9378 42.7308 52.3866 42.7241 47.8337C42.7241 46.9623 42.1523 46.3655 41.3882 46.3852C40.6374 46.4033 40.107 46.9853 40.0954 47.8239C40.0855 48.521 40.0937 49.2182 40.0937 49.9153C40.0937 50.0584 40.1004 50.2031 40.0904 50.3461C40.0407 51.086 39.4805 51.6335 38.7761 51.6352C38.0617 51.6385 37.4866 51.1041 37.47 50.3543C37.4435 49.0834 37.4716 47.8124 37.4534 46.5414C37.4385 45.596 36.8451 45.0303 35.9915 45.101C35.2689 45.1602 34.8048 45.7061 34.7948 46.5595C34.7816 47.7285 34.7932 48.8976 34.7899 50.0666C34.7899 50.3313 34.7998 50.5977 34.6838 50.8509C34.4385 51.3902 33.8402 51.7207 33.27 51.6253C32.6219 51.5168 32.1645 50.9841 32.1595 50.2705C32.1479 48.5884 32.1595 46.908 32.1529 45.226C32.1479 44.3546 31.596 43.7627 30.8203 43.7692C30.0628 43.7758 29.5357 44.3398 29.5241 45.1882C29.5109 46.1517 29.5208 47.1152 29.5208 48.0787C29.5208 48.817 29.544 49.5569 29.5109 50.2935C29.4761 51.1008 28.9208 51.6368 28.1866 51.6368C27.4523 51.6368 26.9169 51.0992 26.8573 50.2935C26.844 50.1094 26.8523 49.9252 26.8523 49.7394C26.8523 45.3099 26.8523 40.8803 26.8523 36.4524C26.8523 36.2272 26.8589 36.0003 26.8374 35.7767C26.7744 35.0992 26.239 34.5994 25.5711 34.578C24.9164 34.5583 24.3297 35.0483 24.2335 35.7109C24.2037 35.9115 24.2169 36.1203 24.2169 36.3258C24.2169 41.6778 24.2169 47.0297 24.2169 52.3817C24.2169 52.5247 24.2186 52.6694 24.2169 52.8124C24.1971 53.919 23.4015 54.4945 22.3357 54.1508C20.6319 53.6 18.9363 53.0262 17.2341 52.4721C16.9059 52.3652 16.5727 52.2205 16.2131 52.3488C15.7987 52.4968 15.5004 52.7582 15.4009 53.1972C15.2799 53.7365 15.4838 54.1443 15.9015 54.4912C18.0247 56.2538 20.1446 58.0197 22.2578 59.7955C22.8727 60.3117 23.4926 60.8297 23.9617 61.489C24.4059 62.1105 24.2998 62.6679 23.7429 63.1793C23.544 63.3618 23.254 63.2335 23.0998 63.4539H5.86225V63.4506ZM3.0396 31.9489C3.0396 36.3785 3.0396 40.808 3.0396 45.2375C3.0396 47.6364 3.04623 50.0354 3.03297 52.4343C3.03131 52.8075 3.08767 52.9752 3.52855 52.9736C6.46391 52.9539 9.39927 52.9604 12.3346 52.967C12.6114 52.967 12.7473 52.9275 12.8335 52.5987C13.4634 50.2244 15.6164 49.108 17.9783 49.8989C18.9926 50.2392 20.0153 50.5615 21.0164 50.9397C21.4904 51.1189 21.5948 51.0416 21.5932 50.5368C21.5733 46.7223 21.5716 42.9093 21.5965 39.0947C21.5998 38.5866 21.4374 38.4946 20.9683 38.4962C17.3915 38.5143 13.8164 38.5061 10.2396 38.5061C9.99098 38.5061 9.74236 38.5127 9.49706 38.4863C8.94678 38.4288 8.59374 38.1098 8.41805 37.6034C8.23739 37.0855 8.38325 36.635 8.76612 36.2568C9.08269 35.9444 9.48048 35.8885 9.90811 35.8901C13.6076 35.8951 17.3087 35.8901 21.0081 35.8983C21.3744 35.8983 21.5832 35.8934 21.6247 35.4117C21.7871 33.552 23.423 32.0525 25.3042 31.9621C27.6595 31.8486 29.4893 33.6145 29.5142 36.0513C29.5308 37.6708 29.5225 39.2904 29.5142 40.9116C29.5142 41.2042 29.5241 41.3637 29.9103 41.2782C31.533 40.9214 32.8871 41.3983 33.9413 42.666C34.1402 42.906 34.2727 42.9323 34.5495 42.8024C35.2971 42.4489 36.1009 42.3322 36.9031 42.5525C37.3871 42.6857 37.4683 42.5805 37.4667 42.1053C37.4534 31.9144 37.4518 21.7219 37.47 11.531C37.47 11.0163 37.3009 10.9374 36.8385 10.9374C25.7799 10.9489 14.7197 10.9506 3.66115 10.9341C3.13076 10.9341 3.02634 11.0953 3.028 11.5869C3.04457 18.3742 3.0396 25.1616 3.0396 31.9489ZM20.2473 8.33132C25.7418 8.33132 31.2363 8.33132 36.7324 8.33132C36.8766 8.33132 37.0225 8.32474 37.1667 8.33132C37.3689 8.34119 37.4451 8.2672 37.465 8.05345C37.77 4.62853 35.549 3.0435 33.081 3.05501C24.8799 3.09612 16.6788 3.06981 8.47772 3.07145C7.98214 3.07145 7.4849 3.0583 6.99098 3.07803C5.14623 3.14873 3.67606 4.27667 3.19871 5.97515C3.03628 6.55392 3.07109 7.15077 3.03131 7.74269C2.99816 8.23431 3.16225 8.34447 3.64291 8.34283C9.17883 8.32474 14.7147 8.33132 20.2506 8.33132H20.2473ZM19.3076 60.828C18.4457 60.0996 17.7064 59.4814 16.9755 58.855C15.8816 57.9178 14.7611 57.0085 13.7252 56.0121C13.3921 55.6915 13.1103 55.5698 12.6794 55.5715C9.86999 55.583 7.06225 55.578 4.25286 55.578C3.41971 55.578 3.01584 56.0017 3.04126 56.849C3.10755 59.0621 4.65396 60.7672 6.87164 60.8083C10.9556 60.8823 15.0413 60.8297 19.3076 60.8297V60.828Z" fill="#11B400"></path>
    <path d="M26.8588 23.6548C26.0135 24.7696 25.1864 25.863 24.3593 26.9547C24.235 27.1191 24.1174 27.2869 23.9864 27.4447C23.4461 28.0892 22.677 28.1994 22.0754 27.7242C21.5069 27.2754 21.414 26.4976 21.8881 25.858C22.866 24.5394 23.8422 23.2191 24.8665 21.9349C25.1748 21.5485 25.1383 21.3233 24.8549 20.9615C23.8787 19.7185 22.9372 18.4492 21.9892 17.1848C21.4207 16.4251 21.4654 15.6589 22.0886 15.1739C22.735 14.6707 23.5091 14.8385 24.1074 15.6228C24.9295 16.6997 25.7632 17.7685 26.5538 18.8684C26.829 19.2499 26.9549 19.1693 27.187 18.8536C28.0157 17.7306 28.8527 16.6142 29.7096 15.5109C30.308 14.7382 31.261 14.6823 31.8361 15.3531C32.277 15.8677 32.2638 16.4893 31.7715 17.1469C30.8002 18.4442 29.8356 19.7497 28.8279 21.0207C28.5511 21.371 28.5892 21.5765 28.8428 21.9004C29.829 23.1615 30.782 24.4489 31.7516 25.7232C32.093 26.1721 32.2886 26.639 32.045 27.203C31.6256 28.1731 30.4306 28.3046 29.7361 27.4233C28.8726 26.3266 28.0455 25.202 27.2019 24.0889C27.1024 23.959 26.9997 23.8307 26.8605 23.6531L26.8588 23.6548Z" fill="#11B400"></path>
    <path d="M18.9013 19.7103C18.9013 20.8168 18.9362 21.925 18.8947 23.0316C18.7903 25.8432 16.4168 28.0432 13.5627 28.0136C10.7616 27.984 8.40964 25.7298 8.35494 22.956C8.31185 20.7429 8.33671 18.5281 8.345 16.3133C8.34831 15.4813 8.90024 14.896 9.65107 14.8878C10.3953 14.8796 10.9671 15.46 10.9721 16.2903C10.9853 18.4229 10.9654 20.5554 10.982 22.688C10.9903 23.8373 11.5223 24.7054 12.5914 25.1691C13.5859 25.5999 14.5373 25.4371 15.366 24.7383C16.0008 24.2039 16.2826 23.4986 16.2809 22.6715C16.2776 20.539 16.2743 18.4064 16.2842 16.2739C16.2875 15.6063 16.6306 15.141 17.2025 14.9651C17.7809 14.7891 18.2549 14.9568 18.6411 15.4057C18.8864 15.6918 18.9146 16.0354 18.9146 16.3873C18.9146 17.4939 18.9146 18.6021 18.9146 19.7086C18.9096 19.7086 18.9063 19.7086 18.9013 19.7086V19.7103Z" fill="#11B400"></path>
    <path d="M13.6721 33.2756C12.371 33.2756 11.0699 33.2969 9.76881 33.269C8.67157 33.2443 8.02848 32.266 8.48594 31.3715C8.73455 30.8865 9.15886 30.6432 9.68925 30.6415C12.3113 30.63 14.9351 30.6218 17.5572 30.6432C18.3793 30.6497 18.9031 31.2038 18.9064 31.9454C18.9097 32.7116 18.371 33.2542 17.5125 33.2706C16.2329 33.2953 14.9517 33.2772 13.6705 33.2772L13.6721 33.2756Z" fill="#11B400"></path>
    <path d="M12.3328 43.7635C11.4875 43.7635 10.6422 43.7717 9.79693 43.7619C8.93008 43.752 8.33339 43.1946 8.34665 42.4268C8.35991 41.677 8.92676 41.1591 9.78533 41.1541C11.4759 41.1426 13.1665 41.1426 14.8572 41.1541C15.7107 41.1607 16.2743 41.6934 16.2776 42.4465C16.2809 43.2127 15.6842 43.7537 14.8074 43.7619C13.982 43.7701 13.1583 43.7635 12.3328 43.7635Z" fill="#11B400"></path>
  </g>
  <defs>
    <clipPath id="clip0_1285_114">
      <rect width="45" height="63" fill="white" transform="translate(0.400879 0.450195)"></rect>
    </clipPath>
  </defs>
</svg>
