<?xml version="1.0" encoding="UTF-8"?>
<svg xmlns="http://www.w3.org/2000/svg" width="24" height="24" viewBox="0 0 24 24" fill="none">
  <g clip-path="url(#clip0_1_5016)">
    <path d="M4.60566 23.6135C4.22 23.4352 4.07718 23.1339 4.1049 22.7154C4.12841 22.3583 4.10792 21.9981 4.11033 21.6397C4.11334 21.2038 4.39114 20.9193 4.8238 20.9193C6.9323 20.9175 9.04019 20.9205 11.1487 20.9145C11.3036 20.9145 11.3289 20.9643 11.3277 21.1024C11.3216 21.9392 11.3246 22.7767 11.3246 23.6135H4.60566Z" fill="#4800E2"></path>
    <path d="M12.6765 23.6135C12.6765 22.7755 12.6801 21.9368 12.6729 21.0988C12.6717 20.9535 12.7078 20.9145 12.8561 20.9145C14.9597 20.9199 17.0628 20.9169 19.1665 20.9187C19.604 20.9187 19.886 21.199 19.8902 21.6307C19.8938 22.0125 19.877 22.3949 19.8944 22.7755C19.9137 23.1939 19.7468 23.473 19.3497 23.6129H12.6759L12.6765 23.6135Z" fill="#4800E2"></path>
    <path d="M23.4987 7.25545C23.4987 8.4753 23.4981 9.69514 23.4987 10.9156C23.4993 12.1817 23.1052 13.3103 22.2953 14.2864C21.257 15.5374 20.2127 16.7837 19.1648 18.027C19.0424 18.1722 18.9749 18.3127 18.9852 18.5066C19.0009 18.805 18.9852 19.1051 18.9918 19.4047C18.9942 19.52 18.981 19.5746 18.84 19.574C16.8339 19.5692 14.8279 19.5698 12.8218 19.5734C12.7013 19.5734 12.6736 19.538 12.6742 19.4227C12.679 17.776 12.6543 16.1288 12.688 14.4833C12.7103 13.3991 13.1207 12.435 13.8794 11.6528C14.908 10.5926 15.9595 9.55467 17.0153 8.52152C17.7017 7.84977 18.7435 7.86417 19.4022 8.52633C20.0596 9.18728 20.0663 10.2204 19.3913 10.906C18.429 11.8839 17.448 12.8438 16.4784 13.8151C16.0873 14.2071 16.2072 14.7834 16.7098 14.9557C16.9677 15.044 17.2045 14.99 17.3949 14.8009C18.4175 13.7869 19.457 12.7898 20.4489 11.747C21.6023 10.5338 21.498 8.61998 20.2567 7.47997C20.1524 7.38452 20.1127 7.29387 20.1133 7.1552C20.1187 5.85311 20.1108 4.55042 20.1199 3.24833C20.1253 2.50093 20.6604 1.83818 21.3781 1.65568C22.1302 1.46478 22.9039 1.79435 23.2823 2.46731C23.4366 2.74106 23.4999 3.03581 23.4993 3.34918C23.4968 4.65127 23.4987 5.95396 23.4987 7.25605V7.25545Z" fill="#4800E2"></path>
    <path d="M8.15243 19.5704C7.17562 19.5704 6.1988 19.565 5.22259 19.5752C5.0394 19.577 4.98396 19.5212 5.01048 19.3531C5.0165 19.3164 5.01168 19.2786 5.01108 19.2408C5.00746 18.9046 5.0858 18.5384 4.97613 18.2413C4.86646 17.9435 4.56937 17.7136 4.35304 17.4549C3.49253 16.4259 2.63383 15.3958 1.7703 14.3692C0.916419 13.3553 0.496408 12.1901 0.500023 10.8646C0.506652 8.34983 0.500023 5.8351 0.503036 3.32036C0.504241 2.32924 1.27316 1.57944 2.24937 1.60345C3.11952 1.62506 3.86554 2.33944 3.87699 3.2087C3.89507 4.54801 3.88181 5.88792 3.88542 7.22783C3.88542 7.31908 3.85349 7.37671 3.78841 7.43795C2.42352 8.71843 2.397 10.6106 3.72272 11.9325C4.6682 12.875 5.61428 13.8163 6.55916 14.7594C6.76163 14.9611 6.99544 15.0458 7.27504 14.9617C7.54682 14.8801 7.70048 14.6874 7.74447 14.4142C7.78484 14.1651 7.67758 13.967 7.50283 13.7929C6.55012 12.8474 5.59861 11.9007 4.65012 10.951C4.10959 10.4095 3.96316 9.71315 4.24096 9.05821C4.68929 8.00104 6.07105 7.66187 6.90324 8.45369C8.03854 9.53366 9.14913 10.6412 10.2272 11.7776C10.9527 12.5431 11.3028 13.5042 11.3173 14.5565C11.3396 16.1732 11.3221 17.7898 11.3287 19.4065C11.3293 19.5542 11.2811 19.574 11.151 19.5734C10.1519 19.568 9.15274 19.5704 8.15303 19.5704H8.15243Z" fill="#4800E2"></path>
    <path d="M9.85696 0.61352C10.5258 0.627327 11.2134 0.893869 11.7841 1.44736C11.9287 1.58784 12.0723 1.58864 12.2149 1.44976C13.7256 -0.0168142 16.2409 0.517469 16.9767 2.47811C17.4009 3.60911 17.1924 4.66027 16.3518 5.52773C15.0893 6.82982 13.7895 8.09649 12.5018 9.37397C12.1963 9.67653 11.8046 9.67653 11.5015 9.37637C10.2089 8.09289 8.90003 6.82501 7.63699 5.51272C6.76503 4.60684 6.59389 3.51726 7.07235 2.35624C7.51165 1.29368 8.57584 0.615921 9.85696 0.61352Z" fill="#4800E2"></path>
  </g>
  <defs>
    <clipPath id="clip0_1_5016">
      <rect width="23" height="23" fill="white" transform="translate(0.5 0.613525)"></rect>
    </clipPath>
  </defs>
</svg>
