<?xml version="1.0" encoding="UTF-8"?>
<svg xmlns="http://www.w3.org/2000/svg" width="55" height="57" viewBox="0 0 55 57" fill="none">
  <g clip-path="url(#clip0_1285_128)">
    <path d="M5.29114 0H50.2871C50.4402 0.214263 50.6923 0.119035 50.8933 0.175577C53.3525 0.867469 54.8979 2.92529 54.8979 5.56936C54.9009 17.2556 54.8994 28.9434 54.8979 40.6297C54.8979 44.046 52.6128 46.3106 49.1663 46.3121C45.0612 46.3121 40.9561 46.3121 36.8509 46.3121H36.2117C37.3986 48.6586 38.5479 50.9188 39.6807 53.1879C39.7992 53.426 39.9583 53.4409 40.1743 53.4394C40.905 53.4334 41.6372 53.42 42.3679 53.4438C43.2712 53.4721 44.0109 54.1759 44.0934 55.0478C44.1789 55.9451 43.5593 56.7828 42.6545 56.9628C42.419 57.0104 42.1699 56.9985 41.9268 56.9985C33.661 57 25.3937 56.9985 17.1279 56.9985C16.0026 56.9985 14.8788 56.9985 13.7535 56.9985C12.5202 56.997 11.6964 56.2724 11.7039 55.2026C11.7114 54.1506 12.5247 53.4409 13.725 53.4364C14.3252 53.4349 14.9253 53.4141 15.524 53.4438C15.8736 53.4617 16.0521 53.3441 16.2052 53.0317C17.242 50.9411 18.3028 48.861 19.35 46.7749C19.4206 46.6335 19.5511 46.5071 19.5106 46.3092C19.302 46.3092 19.0965 46.3092 18.8909 46.3092C14.7108 46.3092 10.5306 46.3211 6.35044 46.3047C3.3196 46.2928 0.915929 43.979 0.911428 41.0121C0.894923 29.1056 0.897924 17.1961 0.911428 5.28665C0.914428 2.88512 2.53188 0.860029 4.86353 0.20236C5.01057 0.160698 5.20862 0.188968 5.29114 0ZM27.9009 35.6243C35.511 35.6243 43.1211 35.6198 50.7313 35.6347C51.1889 35.6347 51.3119 35.5424 51.3119 35.0707C51.2954 25.2578 51.2999 15.4433 51.2999 5.63036C51.2999 4.23319 50.6127 3.56064 49.1888 3.56064C34.9994 3.56064 20.81 3.56064 6.62051 3.56064C5.20412 3.56064 4.50643 4.24212 4.50643 5.62739C4.50643 15.4404 4.50943 25.2548 4.49442 35.0678C4.49442 35.535 4.60995 35.6347 5.07208 35.6332C12.6822 35.6168 20.2923 35.6213 27.9024 35.6213L27.9009 35.6243ZM27.9009 39.1864C20.5534 39.1864 13.2073 39.1849 5.8598 39.1909C5.41868 39.1909 4.83202 38.9915 4.57545 39.2831C4.35939 39.5286 4.50643 40.094 4.50643 40.5181C4.50343 42.1206 5.1321 42.7485 6.73455 42.7485C20.8475 42.7485 34.9604 42.7485 49.0733 42.7485C49.1858 42.7485 49.2984 42.7485 49.4109 42.7485C50.5287 42.7307 51.2804 42.0001 51.2999 40.9035C51.3074 40.5136 51.2639 40.1193 51.3104 39.7354C51.3689 39.2533 51.1829 39.173 50.7298 39.1745C43.1197 39.1894 35.511 39.1849 27.9009 39.1849V39.1864ZM35.7406 53.417C35.7181 53.3441 35.7106 53.2921 35.6881 53.2474C34.5718 51.0319 33.448 48.8208 32.3452 46.5978C32.2041 46.3151 32.0136 46.3077 31.7615 46.3077C29.1958 46.3121 26.6286 46.3196 24.0629 46.3002C23.7013 46.2973 23.5437 46.4312 23.3952 46.7317C22.3479 48.8372 21.2826 50.9337 20.2263 53.0361C20.1663 53.1552 20.0312 53.2608 20.1048 53.417H35.7421H35.7406Z" fill="#E8B400"></path>
    <path d="M27.0006 28.5003C29.6969 28.5003 32.3946 28.4929 35.0909 28.5048C36.0346 28.5093 36.7939 29.1967 36.8929 30.0865C36.9889 30.9629 36.4173 31.7783 35.535 32.003C35.3565 32.0491 35.1659 32.0595 34.9799 32.0595C29.6609 32.0625 24.3434 32.064 19.0244 32.0595C17.9936 32.0595 17.2119 31.4003 17.1114 30.4734C17.0154 29.5925 17.5825 28.7786 18.4693 28.5584C18.6838 28.5048 18.9134 28.5018 19.137 28.5018C21.7582 28.4989 24.3809 28.4989 27.0021 28.4989L27.0006 28.5003Z" fill="#E8B400"></path>
    <path d="M31.5005 9.11236C31.3114 9.8593 31.0774 10.7908 30.8418 11.7222C29.8605 15.6147 28.8823 19.5086 27.8995 23.401C27.6534 24.3742 26.9902 24.9351 26.1005 24.9366C25.2873 24.9381 24.6031 24.4143 24.366 23.6108C24.2745 23.2999 24.291 22.9934 24.369 22.6794C25.5558 17.9805 26.7352 13.2801 27.9235 8.58116C28.1726 7.59912 29.0293 7.00395 29.9551 7.13786C30.8343 7.26582 31.5065 8.03658 31.5005 9.11087V9.11236Z" fill="#E8B400"></path>
    <path d="M21.5991 21.3742C21.1505 21.3682 20.7634 21.2075 20.4168 20.9323C18.9553 19.7761 17.4864 18.6319 16.0355 17.4624C15.0393 16.6589 15.0393 15.4016 16.0355 14.5981C17.4999 13.4167 18.9779 12.2516 20.4618 11.0955C21.2735 10.4631 22.3388 10.5747 22.9765 11.3217C23.6261 12.082 23.5361 13.1682 22.7274 13.8467C21.9292 14.5177 21.1054 15.159 20.2772 15.7929C20.0251 15.9863 20.0266 16.0756 20.2772 16.2676C21.1205 16.9133 21.9577 17.568 22.7709 18.2495C23.3891 18.7673 23.5601 19.5619 23.269 20.2657C22.996 20.9248 22.3163 21.3757 21.5976 21.3727L21.5991 21.3742Z" fill="#E8B400"></path>
    <path d="M34.2402 10.6895C34.6678 10.6955 35.0384 10.8517 35.37 11.1136C36.8314 12.2697 38.3033 13.4125 39.7512 14.585C40.776 15.4138 40.7715 16.6532 39.7407 17.4865C38.3063 18.6456 36.8569 19.7883 35.4 20.9191C34.4923 21.6229 33.409 21.5039 32.7668 20.6677C32.1486 19.8627 32.3167 18.8167 33.1869 18.1173C33.9566 17.4984 34.7233 16.8764 35.5126 16.2827C35.7991 16.067 35.7556 15.9702 35.5006 15.7738C34.6723 15.14 33.8501 14.4942 33.0489 13.8276C32.4277 13.3113 32.2432 12.5242 32.5237 11.8159C32.7968 11.13 33.481 10.6821 34.2387 10.6895H34.2402Z" fill="#E8B400"></path>
    <path d="M44.065 32.0618C43.4858 32.0618 42.9051 32.0707 42.326 32.0603C41.2862 32.0395 40.4985 31.2598 40.5015 30.2733C40.506 29.2809 41.2907 28.5131 42.3395 28.5027C43.5173 28.4908 44.6951 28.4893 45.8745 28.5027C46.9128 28.5146 47.7035 29.3002 47.699 30.2882C47.696 31.2762 46.9068 32.0425 45.8595 32.0618C45.2608 32.0722 44.6621 32.0633 44.065 32.0633V32.0618Z" fill="#E8B400"></path>
    <path d="M10.7722 32.0604C10.4541 32.0604 10.136 32.0738 9.81944 32.0574C8.85617 32.0068 8.10297 31.2182 8.10597 30.2764C8.10897 29.3286 8.85617 28.5429 9.82694 28.5057C10.4796 28.4819 11.1353 28.4804 11.7895 28.5057C12.7543 28.5429 13.506 29.339 13.5045 30.2838C13.503 31.2287 12.7498 32.0098 11.7835 32.0574C11.4474 32.0738 11.1113 32.0604 10.7737 32.0604H10.7722Z" fill="#E8B400"></path>
  </g>
  <defs>
    <clipPath id="clip0_1285_128">
      <rect width="54" height="57" fill="white" transform="translate(0.900879)"></rect>
    </clipPath>
  </defs>
</svg>
