<svg width="18" height="12" viewBox="0 0 18 12" fill="none" xmlns="http://www.w3.org/2000/svg">
<g clip-path="url(#clip0_343_662)">
<path d="M0.444592 10.7397C0.505102 10.7663 0.495017 10.8254 0.509925 10.8715C0.601846 11.1502 0.782839 11.3948 1.02786 11.5716C1.27288 11.7485 1.5698 11.8487 1.87755 11.8585C1.9157 11.8585 1.95428 11.8585 1.99243 11.8585C6.56258 11.8585 11.133 11.8585 15.7038 11.8585C16.4347 11.8585 17.0087 11.4552 17.192 10.8191C17.2285 10.6888 17.2462 10.5544 17.2446 10.4196C17.2446 7.64803 17.2446 4.87491 17.2446 2.10028C17.2446 1.2663 16.6035 0.660572 15.7226 0.660156C11.1414 0.660156 6.55995 0.660156 1.9784 0.660156C1.23649 0.660156 0.682686 1.06134 0.484492 1.73609C0.4766 1.7627 0.491947 1.80136 0.445468 1.81092L0.444592 10.7397ZM15.5538 1.59931C15.4902 1.65045 15.4587 1.67206 15.4319 1.69742C13.3895 3.6392 11.3477 5.5807 9.30675 7.52192C8.99981 7.81294 8.68893 7.81294 8.38243 7.52192L2.65103 2.07367C2.49099 1.92151 2.32699 1.77309 2.13976 1.59973L15.5538 1.59931ZM15.5569 10.916H2.1687C2.18756 10.8931 2.19545 10.8803 2.20597 10.8703C3.5603 9.58177 4.91418 8.29298 6.26763 7.00391C6.35226 6.92076 6.39041 6.94903 6.45706 7.01306C6.87142 7.41175 7.29017 7.80753 7.70585 8.20373C8.36357 8.83067 9.3256 8.82984 9.98596 8.20166C10.3907 7.81585 10.7989 7.43379 11.1988 7.04299C11.2966 6.94737 11.3492 6.93116 11.4619 7.03717C12.4371 7.97425 13.4163 8.90716 14.3997 9.83592C14.7702 10.1901 15.1504 10.5377 15.5569 10.9164V10.916ZM16.2479 2.28279V10.2812C16.1203 10.1565 16.0098 10.0509 15.8971 9.94485C14.6422 8.75112 13.3867 7.55851 12.1306 6.367C12.0402 6.28385 12.0345 6.23604 12.1306 6.15248C12.3196 5.98619 12.495 5.80908 12.6774 5.63738L16.2479 2.28279ZM1.436 2.22666C1.49563 2.28861 1.53027 2.32685 1.56754 2.36261C2.89527 3.62562 4.22387 4.88766 5.55334 6.14874C5.65463 6.24436 5.64104 6.28718 5.54764 6.37448C4.2053 7.64554 2.86574 8.91908 1.52896 10.1951C1.50745 10.224 1.49074 10.2558 1.47941 10.2895L1.43556 10.2542L1.436 2.22666Z" fill="#1AAEF4"/>
</g>
<defs>
<clipPath id="clip0_343_662">
<rect width="16.8" height="11.2" fill="white" transform="matrix(-1 0 0 1 17.2446 0.660156)"/>
</clipPath>
</defs>
</svg>
