<?xml version="1.0" encoding="UTF-8"?>
<svg xmlns="http://www.w3.org/2000/svg" width="307" height="83" viewBox="0 0 307 83" fill="none">
  <path fill-rule="evenodd" clip-rule="evenodd" d="M123.056 58.6535C121.699 58.4478 120.33 58.3282 118.957 58.2955C117.624 58.3593 116.295 58.4988 114.978 58.7132C115.186 57.6391 115.512 56.4754 115.661 55.282C115.868 53.8186 115.987 52.3439 116.017 50.8661C116.017 40.3337 116.017 29.8014 116.017 19.2988V18.5231H115.245C113.047 18.5231 110.879 18.5231 108.681 18.5231C106.724 18.4841 104.8 19.0349 103.157 20.1044L102.474 20.4923C103.154 17.6989 103.154 14.7822 102.474 11.9888L103.751 12.4364C105.355 12.9995 107.042 13.282 108.741 13.2718H129.946C131.763 13.2997 133.568 12.9755 135.263 12.317L136.183 11.959C135.396 14.7484 135.396 17.7029 136.183 20.4923L134.045 19.3585C132.996 18.7958 131.818 18.5181 130.629 18.5529H121.927V50.7766C121.912 53.444 122.292 56.0988 123.056 58.6535V58.6535Z" fill="#373435"></path>
  <path fill-rule="evenodd" clip-rule="evenodd" d="M90.2381 12.4956C92.8868 13.3318 95.7271 13.3318 98.3758 12.4956C98.1382 13.7189 97.8115 14.8825 97.663 16.076C97.4399 17.6077 97.3208 19.1528 97.3066 20.7007C97.3066 30.6662 97.3066 40.6018 97.3066 50.5375C97.2711 53.1586 97.6112 55.7712 98.3164 58.295C98.3164 58.295 98.3164 58.5636 98.3164 58.7426C95.6551 57.9227 92.8103 57.9227 90.149 58.7426C90.3874 57.8892 90.5759 57.0224 90.7133 56.1468C90.9991 54.3998 91.1678 52.6354 91.2182 50.8657C91.2182 40.6913 91.2182 30.5468 91.2182 20.3725C91.2389 17.8896 90.8988 15.4169 90.2084 13.0327C90.3272 12.9133 90.2975 12.7343 90.2381 12.4956Z" fill="#373435"></path>
  <path fill-rule="evenodd" clip-rule="evenodd" d="M262.525 17.8655C262.525 23.5942 262.525 29.3228 262.525 35.0515C262.621 36.2659 262.799 37.4721 263.06 38.6617C261.606 38.229 260.059 38.229 258.605 38.6617C259.179 31.5362 259.338 24.3831 259.08 17.2389C259.028 15.8986 258.89 14.563 258.665 13.2408C258.665 12.9723 258.665 12.7336 258.427 12.4352C259.437 12.4352 260.417 12.6739 261.397 12.6739C262.377 12.6739 263.327 12.5247 264.189 12.4651C264.872 13.6884 265.525 14.9713 266.297 16.1946C269.594 21.4758 272.95 26.7569 276.276 32.038L276.662 32.6049V31.6799C276.662 27.1448 276.662 22.7289 276.662 18.0744C276.751 16.1359 276.5 14.1968 275.92 12.3457C277.359 12.8072 278.906 12.8072 280.345 12.3457C280.316 12.5536 280.316 12.7644 280.345 12.9723C280.08 14.3319 279.901 15.7072 279.811 17.0898C279.811 21.804 279.811 26.4883 279.811 31.2025C279.612 33.7135 279.864 36.2399 280.553 38.6617C279.768 38.5183 278.974 38.4286 278.177 38.3932C277.389 38.4411 276.606 38.5408 275.831 38.6916L262.763 17.8058L262.525 17.8655Z" fill="#373435"></path>
  <path fill-rule="evenodd" clip-rule="evenodd" d="M226.946 17.8655V33.5298C226.883 35.1549 227.094 36.7789 227.569 38.3335C227.587 38.4422 227.587 38.5531 227.569 38.6617C226.019 38.1991 224.368 38.1991 222.817 38.6617C223.606 35.4234 223.886 32.0812 223.649 28.7559C223.649 24.3998 223.649 20.0436 223.649 15.6874C223.551 14.5639 223.383 13.4478 223.144 12.3457C224.999 12.793 226.932 12.793 228.787 12.3457C229.5 13.6585 230.153 14.9415 230.896 16.135C234.252 21.5056 237.608 26.8165 240.993 32.1573C241.053 32.2799 241.133 32.3909 241.231 32.4855C241.231 32.217 241.231 32.0678 241.231 31.9186C241.231 26.8464 241.231 21.7741 241.231 16.7317C241.161 15.2713 241.002 13.8166 240.756 12.3755C242.098 12.8072 243.542 12.8072 244.884 12.3755C244.904 12.5141 244.904 12.6547 244.884 12.7933C244.433 14.3526 244.233 15.9742 244.29 17.597C244.29 22.0725 244.29 26.548 244.29 30.9937C244.081 33.6131 244.333 36.2491 245.033 38.7811C243.519 38.2738 241.883 38.2738 240.37 38.7811L227.243 17.8953L226.946 17.8655Z" fill="#373435"></path>
  <path fill-rule="evenodd" clip-rule="evenodd" d="M171.11 27.7421V33.2619C171.008 35.0911 171.25 36.9231 171.823 38.6624C170.115 38.1699 168.303 38.1699 166.596 38.6624C167.365 35.7458 167.616 32.7157 167.338 29.7113C167.338 25.6834 167.338 21.6256 167.338 17.5976C167.415 15.7673 167.163 13.938 166.596 12.1972C167.364 12.3072 168.137 12.3769 168.912 12.406C170.994 12.4364 173.077 12.3467 175.149 12.1375C177.085 11.7276 179.104 12.0984 180.771 13.17C182.438 14.2416 183.618 15.9281 184.059 17.8662C184.478 19.6534 184.254 21.5317 183.428 23.1695C182.602 24.8073 181.227 26.0992 179.545 26.8172L178.832 27.1454C181.445 30.9048 183.524 34.9626 186.554 38.543C184.747 38.1117 182.866 38.1117 181.059 38.543C179.185 34.8547 177.019 31.3227 174.585 27.9808C174.536 27.8932 174.467 27.8181 174.385 27.7612C174.303 27.7043 174.208 27.6672 174.11 27.6526L171.11 27.7421ZM171.11 25.0568C172.446 25.0568 173.664 25.0568 174.852 25.0568C175.494 24.9999 176.124 24.8491 176.723 24.6093C177.652 24.2158 178.437 23.5425 178.969 22.682C179.501 21.8216 179.754 20.8166 179.693 19.8055C179.665 18.8636 179.347 17.9536 178.783 17.2004C178.22 16.4471 177.438 15.8876 176.545 15.5986C174.965 15.062 173.254 15.062 171.674 15.5986C171.58 15.6096 171.489 15.6393 171.407 15.6859C171.325 15.7326 171.252 15.7952 171.194 15.8701C171.136 15.9451 171.094 16.0309 171.069 16.1226C171.044 16.2143 171.038 16.31 171.05 16.4041C171.05 18.6121 171.05 20.8498 171.05 23.0577L171.11 25.0568Z" fill="#373435"></path>
  <path fill-rule="evenodd" clip-rule="evenodd" d="M210.937 38.6328C209.225 38.1705 207.422 38.1705 205.71 38.6328C205.366 36.0649 204.708 33.5495 203.75 31.1438C203.705 31.0387 203.636 30.946 203.548 30.8733C203.46 30.8006 203.356 30.7502 203.245 30.7261H193.949C192.993 33.1851 192.384 35.766 192.137 38.3941H187.415C187.813 37.7099 188.17 37.0025 188.484 36.2757C189.256 34.217 189.969 32.1582 190.682 30.0697C192.345 25.2361 194.038 20.4025 195.642 15.5392C195.934 14.5017 196.152 13.4448 196.295 12.3765C197.275 12.3765 198.285 12.5853 199.265 12.5853C200.245 12.5853 201.344 12.4361 202.235 12.3765C202.86 16.0488 203.855 19.6477 205.205 23.1177C206.304 26.8473 207.551 30.5471 208.799 34.217C209.541 35.7685 210.284 37.1708 210.937 38.6328ZM202.859 28.1004C201.651 24.0029 200.433 19.9451 199.206 15.927L195.196 28.1303L202.859 28.1004Z" fill="#373435"></path>
  <path fill-rule="evenodd" clip-rule="evenodd" d="M300.69 27.593H305.917C305.213 30.9574 305.072 34.4162 305.501 37.827C302.879 38.524 300.191 38.944 297.482 39.0802C294.72 39.0746 292.007 38.3444 289.612 36.9617C287.574 35.7155 285.932 33.9107 284.88 31.7596C283.828 29.6085 283.409 27.2004 283.672 24.8182C283.756 21.9325 284.802 19.1587 286.642 16.9413C288.845 14.3499 291.966 12.723 295.344 12.4061C298.026 12.0468 300.752 12.2294 303.363 12.9431C304.075 13.1222 304.729 13.4504 305.293 13.6294C304.907 15.0615 304.521 16.4042 304.165 17.717C303.989 17.61 303.829 17.4795 303.689 17.3291C302.03 15.7988 299.867 14.9373 297.614 14.9098C295.362 14.8822 293.179 15.6906 291.483 17.18C289.752 18.8985 288.697 21.1871 288.513 23.6247C288.081 26.2094 288.411 28.8646 289.463 31.2629C290.267 33.0318 291.609 34.499 293.295 35.4533C294.982 36.4077 296.926 36.8 298.848 36.5739C299.598 36.478 300.342 36.3386 301.076 36.1562C301.163 36.1278 301.242 36.0772 301.305 36.0092C301.367 35.9413 301.411 35.8583 301.432 35.7683C301.432 33.62 301.432 31.4419 301.432 29.2937C301.256 28.698 301.006 28.1267 300.69 27.593V27.593Z" fill="#373435"></path>
  <path fill-rule="evenodd" clip-rule="evenodd" d="M155.637 38.6023C154.034 38.1561 152.34 38.1561 150.736 38.6023C150.944 37.5879 151.122 36.663 151.271 35.6187C151.316 35.1025 151.316 34.5834 151.271 34.0672C151.271 28.0998 151.271 22.1325 151.271 16.1651V15.628H150.647C149.459 15.628 148.242 15.628 147.054 15.628C145.523 15.5169 144 15.9154 142.717 16.7618C143.192 15.1758 143.192 13.4845 142.717 11.8984L143.49 12.1073C144.595 12.3519 145.717 12.5115 146.846 12.5847C151.241 12.5847 155.756 12.5847 160.003 12.5847C161.134 12.5181 162.258 12.3483 163.359 12.0775L164.012 11.9283C163.552 13.4759 163.552 15.1247 164.012 16.6723C162.103 15.7124 159.951 15.3487 157.835 15.628H155.073V16.5231C155.073 22.3115 155.073 28.1296 155.073 33.918C155.162 35.4098 155.34 36.9912 155.637 38.6023Z" fill="#373435"></path>
  <path fill-rule="evenodd" clip-rule="evenodd" d="M306.095 63.3372H94.6635C94.6635 62.9195 94.6635 62.651 95.0793 62.7106H305.65C306.095 62.651 306.214 62.8598 306.095 63.3372Z" fill="#0BA0DC"></path>
  <path fill-rule="evenodd" clip-rule="evenodd" d="M301.759 77.9277V78.5245H90.2977V77.9277H301.759Z" fill="#0BA0DC"></path>
  <path fill-rule="evenodd" clip-rule="evenodd" d="M248.893 50.1191C248.78 51.1222 248.611 52.1183 248.389 53.1027C247.91 54.7814 246.896 56.2556 245.501 57.2985C244.107 58.3415 242.411 58.8954 240.673 58.875C238.935 58.8547 237.252 58.2612 235.882 57.186C234.513 56.1107 233.533 54.6131 233.093 52.9237C232.528 50.9142 232.528 48.7869 233.093 46.7774C233.597 45.118 234.624 43.6682 236.02 42.6467C237.415 41.6252 239.104 41.0873 240.83 41.1142C242.557 41.1412 244.228 41.7315 245.591 42.7961C246.955 43.8607 247.936 45.3418 248.389 47.0161C248.686 48.0902 248.745 49.0748 248.893 50.1191ZM245.626 50.1191C245.675 48.8279 245.432 47.5424 244.914 46.3596C244.622 45.4914 244.067 44.7367 243.327 44.2016C242.586 43.6665 241.698 43.3777 240.785 43.376C239.864 43.3526 238.96 43.6311 238.21 44.1693C237.46 44.7076 236.904 45.4764 236.627 46.3596C236.063 47.6478 235.771 49.0398 235.771 50.4473C235.771 51.8547 236.063 53.2468 236.627 54.5349C236.929 55.354 237.478 56.0583 238.196 56.5502C238.915 57.0421 239.768 57.2971 240.637 57.2799C241.499 57.2823 242.342 57.021 243.053 56.5307C243.764 56.0404 244.309 55.3443 244.617 54.5349C245.314 53.1384 245.661 51.5916 245.626 50.0296V50.1191Z" fill="#0BA0DC"></path>
  <path fill-rule="evenodd" clip-rule="evenodd" d="M172.001 41.5557H175.476L183.554 54.5048H183.732C183.525 50.2083 184.029 45.882 183.435 41.6452H185.901C185.544 47.2687 185.544 52.9093 185.901 58.5328H183.376C183.294 58.5242 183.215 58.4985 183.143 58.4574C183.072 58.4163 183.009 58.3607 182.96 58.2941C182.63 57.8531 182.322 57.395 182.04 56.9216C179.604 53.0826 177.179 49.2138 174.763 45.3151L174.496 44.9272C174.496 45.1958 174.496 45.3449 174.496 45.4941C174.496 48.8955 174.496 52.2969 174.496 55.6983C174.544 56.6195 174.653 57.5365 174.823 58.4433H172.06C172.408 52.8188 172.388 47.1775 172.001 41.5557V41.5557Z" fill="#0BA0DC"></path>
  <path fill-rule="evenodd" clip-rule="evenodd" d="M202.859 58.6832C202.859 56.9825 203.037 55.3713 203.067 53.7303C203.067 50.8461 203.067 47.9519 203.067 45.0478C203.067 43.7947 202.889 42.5713 202.8 41.2884C202.947 41.2659 203.098 41.2659 203.245 41.2884C204.953 41.6562 206.711 41.7268 208.443 41.4972C209.583 41.303 210.748 41.303 211.888 41.4972C212.994 41.733 214.018 42.261 214.853 43.0267C215.688 43.7925 216.305 44.7683 216.64 45.8534C217.559 48.3362 217.559 51.0684 216.64 53.5513C216.236 54.9478 215.398 56.1782 214.25 57.0637C213.101 57.9491 211.702 58.4433 210.254 58.4744C207.819 58.8026 205.265 58.6832 202.859 58.6832ZM205.502 49.3443C205.502 51.045 205.502 52.7159 205.502 54.4165C205.486 55.0842 205.733 55.7313 206.189 56.2173C206.645 56.7033 207.273 56.989 207.938 57.0123C209.248 57.1288 210.559 56.8053 211.666 56.0926C212.773 55.3798 213.614 54.3181 214.056 53.0739C214.486 52.0011 214.717 50.8585 214.739 49.7023C214.727 48.6697 214.468 47.6552 213.984 46.7441C213.5 45.8331 212.805 45.0522 211.958 44.4673C211.111 43.8824 210.136 43.5106 209.116 43.3831C208.096 43.2557 207.06 43.3763 206.096 43.735C205.947 43.7705 205.816 43.8602 205.728 43.9869C205.641 44.1135 205.602 44.2681 205.621 44.4212C205.532 45.9727 205.502 47.7033 205.502 49.3443Z" fill="#0BA0DC"></path>
  <path fill-rule="evenodd" clip-rule="evenodd" d="M264.931 58.5334C265.317 52.8611 265.317 47.1689 264.931 41.4966C266.787 41.705 268.659 41.705 270.515 41.4966C271.129 41.3806 271.761 41.3884 272.373 41.5196C272.984 41.6508 273.564 41.9028 274.078 42.2608C274.592 42.6189 275.03 43.076 275.366 43.6055C275.703 44.1351 275.932 44.7265 276.039 45.3455C276.263 46.4365 276.119 47.5714 275.63 48.5709C275.14 49.5705 274.333 50.3778 273.336 50.8653L272.594 51.2532L277.405 58.5632H274.138C273.002 56.3654 271.712 54.2516 270.277 52.2378C270.174 52.0026 269.995 51.8095 269.768 51.6902C269.541 51.5709 269.281 51.5326 269.03 51.5814H267.723C267.591 53.917 267.731 56.2601 268.139 58.5632L264.931 58.5334ZM267.634 49.7912C268.945 49.9719 270.281 49.8286 271.525 49.3735C272.002 49.1335 272.411 48.7755 272.713 48.3329C273.015 47.8903 273.2 47.3779 273.251 46.8437C273.301 46.3096 273.216 45.7713 273.002 45.2795C272.788 44.7878 272.454 44.3587 272.029 44.0327C271.448 43.6367 270.782 43.3843 270.085 43.2961C269.388 43.208 268.681 43.2866 268.02 43.5255C267.928 43.5681 267.845 43.6301 267.779 43.7073C267.712 43.7845 267.663 43.8751 267.634 43.9731C267.604 45.8826 267.634 47.7922 267.634 49.7912Z" fill="#0BA0DC"></path>
  <path fill-rule="evenodd" clip-rule="evenodd" d="M249.161 12.3164C250.82 12.7931 252.58 12.7931 254.239 12.3164C253.503 15.4618 253.263 18.7036 253.527 21.9238C253.527 25.0865 253.527 28.2194 253.527 31.3821C253.317 33.844 253.569 36.3234 254.269 38.6921C252.603 38.2601 250.856 38.2601 249.19 38.6921C249.369 37.5882 249.576 36.514 249.725 35.4399C249.755 34.8535 249.755 34.2659 249.725 33.6795C249.725 28.3686 249.725 23.0875 249.725 17.8064C249.777 16.0915 249.556 14.3792 249.072 12.7341L249.161 12.3164Z" fill="#373435"></path>
  <path fill-rule="evenodd" clip-rule="evenodd" d="M213.462 12.2871C215.122 12.7638 216.881 12.7638 218.541 12.2871C218.362 13.5104 218.184 14.6442 218.006 15.778C218.006 16.1062 218.006 16.4046 218.006 16.7328C218.006 22.7001 218.006 28.3691 218.006 34.1873C218.088 35.6679 218.256 37.1424 218.511 38.6031C216.914 38.1848 215.237 38.1848 213.64 38.6031C213.818 37.6185 213.997 36.6638 214.145 35.6195C214.189 34.9837 214.189 34.3456 214.145 33.7099V19.7165C214.371 17.2189 214.139 14.7009 213.462 12.2871Z" fill="#373435"></path>
  <path fill-rule="evenodd" clip-rule="evenodd" d="M293.235 58.742C293.235 57.6082 293.473 56.3849 293.473 55.1914C293.473 51.7005 293.473 48.1798 293.473 44.6591C293.473 43.5551 293.324 42.4511 293.235 41.3472C296.263 41.8546 299.354 41.8546 302.383 41.3472V43.9131C300.363 42.839 298.165 43.5849 295.967 43.3164V49.0749C297.962 49.2564 299.972 49.0847 301.907 48.5677V51.1635C299.96 50.7188 297.957 50.5779 295.967 50.7458C295.967 52.4166 295.967 53.998 295.967 55.6091C296.006 55.9329 296.154 56.2335 296.387 56.4614C296.619 56.6893 296.921 56.8307 297.244 56.8623C298.353 57.0505 299.478 57.1205 300.601 57.0711C301.527 56.9368 302.44 56.7273 303.333 56.4446C303.125 57.2502 302.917 58.1453 302.709 58.9807C299.564 58.6195 296.394 58.5396 293.235 58.742V58.742Z" fill="#0BA0DC"></path>
  <path fill-rule="evenodd" clip-rule="evenodd" d="M155.072 58.5333H152.102C152.489 52.871 152.489 47.1887 152.102 41.5264C152.489 41.5264 152.993 41.5264 153.528 41.5264C154.063 41.5264 154.597 41.5264 155.043 41.5264C154.667 47.1894 154.676 52.8717 155.072 58.5333V58.5333Z" fill="#0BA0DC"></path>
  <path fill-rule="evenodd" clip-rule="evenodd" d="M121.927 74.9443L118.957 67.5149C118.453 69.9914 117.948 72.438 117.443 74.9443H116.611C117.057 72.9154 117.472 70.9163 117.888 68.9769L118.334 66.8287C118.334 66.5303 118.334 66.2021 118.839 66.1723C119.344 66.1424 119.462 66.3811 119.581 66.769L122.076 73.0646C122.199 73.3698 122.338 73.6685 122.492 73.9597C122.818 72.3783 123.115 70.976 123.383 69.5737C123.591 68.6487 123.798 67.7238 123.947 66.769C124.095 65.8142 124.274 66.0529 124.838 66.2916C124.571 67.5746 124.333 68.8576 124.066 70.1406C123.798 71.4235 123.501 72.8259 123.234 74.1685C122.937 75.0338 122.937 75.0338 121.927 74.9443Z" fill="#606062"></path>
  <path fill-rule="evenodd" clip-rule="evenodd" d="M276.514 73.9891C277.049 71.3037 277.583 68.7676 278.118 66.2017H278.89C278.266 69.1853 277.702 72.169 277.108 74.914C276.365 75.1825 276.009 74.914 275.771 74.2278C275.029 72.1989 274.197 70.1998 273.396 68.2604C273.396 68.0217 273.217 67.783 273.039 67.3951L271.495 75.0632H270.663C271.257 72.0795 271.881 69.0958 272.475 66.321C273.069 66.142 273.425 66.321 273.663 66.8879C274.465 69.0362 275.326 71.1247 276.158 73.2431C276.247 73.3923 276.365 73.6012 276.514 73.9891Z" fill="#606062"></path>
  <path fill-rule="evenodd" clip-rule="evenodd" d="M149.103 66.2606C150.29 66.2009 151.479 66.2009 152.667 66.2606C153.095 66.272 153.505 66.4382 153.821 66.7286C154.138 67.0191 154.339 67.4143 154.389 67.842C154.512 68.3326 154.474 68.8499 154.282 69.3174C154.089 69.7848 153.752 70.1776 153.32 70.4378L152.726 70.7361C154.122 71.9296 153.053 73.5109 153.498 74.9133H152.548C152.548 74.3464 152.548 73.7496 152.548 73.1827C152.548 72.6158 152.548 72.5263 152.548 72.228C152.548 71.4224 152.221 71.0643 151.449 71.0046C150.677 70.945 149.726 71.0046 148.835 71.0046C148.568 72.3175 148.271 73.6005 148.004 74.9133H147.202C147.885 72.0191 148.509 69.1249 149.103 66.2606ZM149.103 70.3184C149.934 70.3184 150.706 70.3184 151.479 70.3184C151.911 70.3114 152.337 70.2096 152.726 70.02C153.08 69.8407 153.36 69.5425 153.517 69.1772C153.674 68.8119 153.699 68.4028 153.587 68.021C153.587 67.3646 152.993 66.9767 152.132 66.9469H149.815C149.548 68.0508 149.4 69.1249 149.073 70.2289L149.103 70.3184Z" fill="#606062"></path>
  <path fill-rule="evenodd" clip-rule="evenodd" d="M190.979 70.7966C191.284 71.0069 191.521 71.3034 191.658 71.6486C191.796 71.9938 191.828 72.3722 191.751 72.736C191.751 73.4819 191.751 74.198 191.751 74.9439H190.979V72.7658C190.979 71.3635 190.742 71.0352 189.316 71.0054H187.296L186.435 74.9737H185.633C186.168 72.4376 186.673 69.9611 187.207 67.4548C187.475 66.142 187.475 66.142 188.811 66.1719H190.652C191.135 66.1606 191.606 66.3182 191.985 66.6176C192.364 66.917 192.628 67.3395 192.731 67.8129C192.876 68.3554 192.82 68.9321 192.574 69.4366C192.329 69.9411 191.91 70.3393 191.395 70.5579L190.979 70.7966ZM187.386 70.2297C188.247 70.2297 189.019 70.2297 189.761 70.2297C190.256 70.1888 190.739 70.0574 191.187 69.8418C191.495 69.6437 191.731 69.3505 191.86 69.0063C191.988 68.662 192.002 68.2852 191.9 67.9322C191.844 67.6348 191.685 67.3668 191.451 67.1757C191.218 66.9846 190.924 66.8827 190.623 66.8879C189.791 66.8879 188.96 66.8879 188.098 66.8879C188.009 68.0516 187.653 69.1257 187.386 70.2297Z" fill="#606062"></path>
  <path fill-rule="evenodd" clip-rule="evenodd" d="M182.07 69.6923C182.114 71.1098 181.674 72.4997 180.822 73.6308C180.404 74.201 179.843 74.6502 179.196 74.9331C178.55 75.216 177.84 75.3225 177.139 75.242C176.352 75.242 175.596 74.9276 175.039 74.3681C174.482 73.8085 174.169 73.0496 174.169 72.2583C174.006 71.4498 174.012 70.6161 174.186 69.8098C174.359 69.0035 174.698 68.2422 175.179 67.5739C175.63 66.9096 176.262 66.3901 177 66.0779C177.737 65.7656 178.549 65.6738 179.337 65.8136C180.058 65.9233 180.718 66.2807 181.205 66.8248C181.693 67.3689 181.977 68.066 182.01 68.7972C182.048 69.0942 182.067 69.3931 182.07 69.6923V69.6923ZM174.942 71.4229C174.931 71.6316 174.931 71.8407 174.942 72.0494C174.956 72.4944 175.083 72.9284 175.31 73.3106C175.537 73.6929 175.857 74.0108 176.24 74.2346C176.623 74.4583 177.057 74.5805 177.5 74.5897C177.943 74.599 178.381 74.4949 178.773 74.2872C179.342 74.0193 179.834 73.6082 180.199 73.0937C180.68 72.4266 181.005 71.6586 181.149 70.8473C181.293 70.0361 181.252 69.2026 181.03 68.4094C180.942 67.9453 180.706 67.5226 180.358 67.2051C180.009 66.8876 179.568 66.6924 179.1 66.649C178.543 66.5425 177.967 66.5982 177.441 66.8097C176.915 67.0212 176.46 67.3796 176.13 67.8425C175.255 68.8246 174.788 70.1056 174.823 71.4229H174.942Z" fill="#606062"></path>
  <path fill-rule="evenodd" clip-rule="evenodd" d="M239.568 66.172C239.568 66.7389 239.389 66.9179 238.885 66.8881C237.875 66.8881 236.835 66.8881 235.915 66.8881C235.529 66.8881 235.35 66.8881 235.291 67.3953C235.291 68.2606 234.935 69.1258 234.727 70.0508H238.766V70.7669H235.083C234.638 70.7669 234.459 70.7669 234.37 71.3636C234.37 72.3184 233.984 73.303 233.776 74.3473H238.499C238.487 74.5659 238.487 74.785 238.499 75.0037H232.856C233.034 73.9892 233.242 73.0345 233.45 72.02C233.806 70.2596 234.162 68.4694 234.548 66.6792C234.548 66.4704 234.845 66.2018 235.024 66.2018C236.509 66.1422 238.023 66.172 239.568 66.172Z" fill="#606062"></path>
  <path fill-rule="evenodd" clip-rule="evenodd" d="M108.266 70.7368C108.028 71.9303 107.791 73.094 107.523 74.3173H112.216C112.204 74.5359 112.204 74.755 112.216 74.9737H106.603C107.197 71.99 107.82 69.0063 108.414 66.2017H113.285C113.285 66.679 113.285 66.9177 112.721 66.8879H109.573C109.186 66.8879 109.038 66.8879 108.949 67.3951C108.8 68.2604 108.622 69.0958 108.414 70.0208H112.453C112.472 70.2591 112.472 70.4985 112.453 70.7368H108.266Z" fill="#606062"></path>
  <path fill-rule="evenodd" clip-rule="evenodd" d="M144.172 66.1727C144.172 66.4412 144.172 66.6501 143.994 66.8888H140.489C140.044 66.8888 139.866 66.8887 139.777 67.4556C139.688 68.0225 139.45 69.1563 139.272 70.0514H143.192C143.4 70.6183 143.192 70.7675 142.658 70.7675H139.688C139.302 70.7675 139.153 70.7675 139.094 71.2449C138.915 72.2594 138.678 73.2738 138.47 74.2286H143.103C143.103 74.4673 143.103 74.6762 143.103 74.885H137.52C137.698 73.9004 137.906 72.9158 138.114 71.9013C138.47 70.1111 138.856 68.3209 139.212 66.5307C139.212 66.2025 139.212 65.9937 139.747 65.9937L144.172 66.1727Z" fill="#606062"></path>
  <path d="M77.6161 48.6279L77.9428 49.3142C79.012 51.6116 80.1999 53.8494 81.1206 56.1766L80.6454 54.834C79.6654 52.7752 78.5962 50.7165 77.6161 48.6279Z" fill="#009CE6"></path>
  <path fill-rule="evenodd" clip-rule="evenodd" d="M0.129761 19.5073L0.486156 19.7759L16.4051 37.0812C16.4051 37.0812 16.4051 37.2602 16.6724 37.4094H16.1082H11.8908C11.6695 37.4164 11.4496 37.3715 11.2485 37.2783C11.0475 37.1851 10.8708 37.0461 10.7325 36.8723L0.901951 25.7134L0.278259 25.1166L0.129761 19.5073Z" fill="#3E3E3E"></path>
  <path fill-rule="evenodd" clip-rule="evenodd" d="M44.2629 35.112C48.1052 34.2334 51.7016 32.4982 54.7861 30.0346C57.8706 27.5711 60.3643 24.4424 62.0827 20.8799H62.2312C66.6877 23.242 70.595 26.5267 73.6952 30.5172C75.3983 32.7105 76.4301 35.3539 76.6652 38.1255C76.8768 39.7214 76.7106 41.3449 76.1802 42.8641C75.6498 44.3833 74.7701 45.7553 73.6126 46.8687C72.4552 47.9821 71.0525 48.8055 69.5187 49.2719C67.9849 49.7384 66.3632 49.8347 64.7854 49.553L61.162 49.0458C59.347 48.8295 57.507 49.074 55.8104 49.7569C54.1137 50.4397 52.6146 51.5391 51.4502 52.9544C49.5074 55.2561 47.9615 57.868 46.8765 60.6821C45.2326 64.748 43.9118 68.9382 42.9265 73.2136L42.7483 73.8401L38.4121 73.5716C38.5903 72.3483 38.7685 71.1847 38.9764 70.021C39.8154 65.0262 41.3762 60.1812 43.6095 55.6397C45.5398 51.5024 48.6382 48.0265 52.5194 45.6444C54.6819 44.4247 56.9603 43.4251 59.3206 42.6607C60.751 42.2072 62.15 41.659 63.5083 41.0197C64.1287 40.735 64.6327 40.2445 64.9356 39.6305C65.2385 39.0165 65.3218 38.3166 65.1715 37.6482C65.151 37.1833 64.9849 36.7369 64.6969 36.3725C64.4089 36.0082 64.0137 35.7445 63.5677 35.6193C62.2431 35.1022 60.854 34.7708 59.4394 34.6346C56.4695 34.6346 53.6777 34.6346 50.7968 34.8137C48.5991 34.8435 46.431 34.9927 44.2629 35.112Z" fill="url(#paint0_linear_172_196)"></path>
  <path fill-rule="evenodd" clip-rule="evenodd" d="M8.08893 39.0205H50.3218V39.1995L49.7872 39.5874L44.174 44.6298C43.992 44.8148 43.7743 44.9605 43.5343 45.058C43.2942 45.1555 43.0369 45.2027 42.7781 45.1967H32.4129V73.7505C32.2149 73.6363 32.0263 73.5066 31.8486 73.3626C29.9181 71.9006 28.0174 70.379 26.0869 68.9766C25.9212 68.8601 25.7879 68.7031 25.6995 68.5203C25.6112 68.3376 25.5707 68.1352 25.582 67.9323C25.582 60.6919 25.582 53.4217 25.582 46.1217V45.1669H15.4544C15.146 45.1734 14.8437 45.0791 14.5931 44.8983L8.32652 39.3189C8.25316 39.2149 8.17383 39.1152 8.08893 39.0205V39.0205Z" fill="url(#paint1_linear_172_196)"></path>
  <path d="M84.9515 65.187C84.2935 62.4873 83.3991 59.8513 82.2785 57.3101C83.0193 59.1806 83.615 61.1058 84.0605 63.0686C84.9355 66.1391 85.0274 69.3814 84.3278 72.497C83.8468 74.4528 82.753 76.2016 81.2076 77.4855C79.6623 78.7694 77.7471 79.5205 75.7446 79.628C71.6949 79.8945 67.6369 79.2524 63.8648 77.7483C57.8368 75.5448 52.1325 72.5339 46.9063 68.7972L46.639 68.5287L47.3221 67.2159H47.1736L45.1243 71.0648L45.4213 71.3333C50.981 75.3229 57.0432 78.5536 63.449 80.9408C67.4829 82.5178 71.8111 83.1899 76.1307 82.91C78.2593 82.7985 80.2955 82.0012 81.9377 80.6362C83.58 79.2712 84.7409 77.4111 85.2485 75.3315C86.0079 71.9794 85.9056 68.4884 84.9515 65.187V65.187Z" fill="#009CE6"></path>
  <path d="M46.8768 68.7385C52.103 72.4751 57.8073 75.486 63.8353 77.6895C67.6074 79.1937 71.6654 79.8358 75.7151 79.5692C77.7176 79.4617 79.6328 78.7106 81.1781 77.4267C82.7235 76.1428 83.8173 74.394 84.2983 72.4382C84.9975 69.3442 84.9158 66.1237 84.0607 63.0695C83.6056 61.1059 82.9999 59.1807 82.249 57.311C80.9755 54.4395 79.5274 51.6495 77.9129 48.9567C77.8396 48.8179 77.7385 48.696 77.6159 48.5986V48.5986C78.596 50.6872 79.6652 52.7459 80.5859 54.8942L81.0611 56.2368V56.5054C82.7139 60.2545 83.4472 64.3473 83.1994 68.4401C83.1184 70.3265 82.4456 72.1388 81.2774 73.6179C80.1092 75.0969 78.5053 76.167 76.6952 76.675C75.103 77.1261 73.4451 77.2977 71.7948 77.1823C69.1862 77.007 66.611 76.4956 64.1323 75.6606C58.3778 73.6729 52.9217 70.9021 47.9163 67.4256L47.2926 67.2466L46.6095 68.5594L46.8768 68.7385Z" fill="#2CBAFD"></path>
  <path fill-rule="evenodd" clip-rule="evenodd" d="M17.3257 73.4813V53.0431H15.5437C15.4218 53.0492 15.3001 53.0283 15.1872 52.9819C15.0743 52.9355 14.9729 52.8647 14.8903 52.7746C13.5241 50.9247 12.1876 49.0151 10.7917 47.0459H23.919V67.9316C23.9409 68.1442 23.9056 68.3588 23.8168 68.553C23.728 68.7472 23.5889 68.9139 23.4141 69.0356L17.9197 73.0934L17.3257 73.4813Z" fill="url(#paint2_linear_172_196)"></path>
  <path d="M8.32674 22.7593C6.57659 18.6321 5.98099 14.1032 6.60416 9.66095C6.9494 7.56156 8.00237 5.64514 9.58663 4.23282C11.1709 2.8205 13.1902 1.99808 15.3061 1.90339C19.3516 1.61386 23.4103 2.23567 27.186 3.72343C33.4489 6.05533 39.3646 9.23764 44.7682 13.1817V13.1817C38.7557 8.68108 32.1354 5.06429 25.107 2.44045C21.1053 0.86093 16.8033 0.198374 12.5144 0.501065C10.2525 0.601309 8.09386 1.48049 6.40107 2.99094C4.70827 4.50139 3.58446 6.55107 3.21841 8.79568C2.56084 13.5319 3.19733 18.3585 5.05978 22.7593C5.15734 22.9314 5.31673 23.0595 5.50528 23.1173H8.86133C8.74907 23.109 8.64087 23.0716 8.5472 23.0089C8.45354 22.9462 8.3776 22.8602 8.32674 22.7593V22.7593Z" fill="#009CE6"></path>
  <path d="M8.29693 11.8394C8.35585 9.96168 9.00139 8.15016 10.1421 6.66148C11.2828 5.17279 12.8608 4.08242 14.6526 3.5448C15.8229 3.20859 17.0298 3.01819 18.2463 2.9779C21.447 2.92629 24.6294 3.47262 27.6314 4.58908C33.5096 6.64358 39.0766 9.5052 44.174 13.0926L45.0353 13.6296C45.0353 13.4506 45.0353 13.4208 45.0353 13.3909H44.8868C39.4832 9.44688 33.5676 6.26457 27.3047 3.93267C23.529 2.44492 19.4703 1.8231 15.4248 2.11263C13.3089 2.20733 11.2896 3.02975 9.70531 4.44206C8.12105 5.85438 7.06808 7.7708 6.72285 9.87019C6.09968 14.3124 6.69527 18.8413 8.44542 22.9685C8.48814 23.0493 8.54719 23.1203 8.6188 23.1768C8.6904 23.2333 8.77297 23.2742 8.86122 23.2967H10.2571C10.2571 22.879 10.0492 22.6403 9.9601 22.3718C8.68611 19.0145 8.11977 15.428 8.29693 11.8394V11.8394Z" fill="#2CBAFD"></path>
  <path fill-rule="evenodd" clip-rule="evenodd" d="M57.9246 19.5063C57.9244 20.8332 57.5311 22.13 56.7947 23.2315C56.0583 24.333 55.0122 25.1894 53.7896 25.6916C52.567 26.1937 51.2234 26.3189 49.9297 26.0512C48.6361 25.7835 47.451 25.135 46.5255 24.1884C45.6001 23.2417 44.976 22.0397 44.7329 20.7355C44.4898 19.4312 44.6386 18.0838 45.1604 16.8649C45.6822 15.6459 46.5533 14.6106 47.6629 13.8907C48.7724 13.1709 50.0701 12.7991 51.3907 12.8228C53.1345 12.8541 54.7962 13.5721 56.0183 14.8221C57.2403 16.0721 57.9249 17.7542 57.9246 19.5063V19.5063Z" fill="#3E3E3E"></path>
  <path fill-rule="evenodd" clip-rule="evenodd" d="M267.367 66.8879H263.209L262.585 70.0506H266.565C266.565 70.5877 266.565 70.7965 265.971 70.7667H262.407L261.694 74.2874H266.298C266.298 74.6753 266.298 75.0035 265.882 75.0035H260.773C260.773 74.6753 260.773 74.4366 260.773 74.1979C261.338 71.5424 261.872 68.887 262.437 66.2017H267.367C267.456 66.4105 267.396 66.6194 267.367 66.8879Z" fill="#606062"></path>
  <path fill-rule="evenodd" clip-rule="evenodd" d="M204.344 70.0513H208.324C208.324 70.5884 208.324 70.7674 207.76 70.7674H204.196C203.958 71.931 203.721 73.0648 203.453 74.2881H208.087C208.087 74.7058 208.087 75.0042 207.641 75.0042H202.533C202.919 73.1245 203.275 71.3044 203.661 69.4844C203.869 68.5296 204.047 67.545 204.285 66.5007C204.316 66.4074 204.366 66.3218 204.433 66.2497C204.499 66.1776 204.581 66.1208 204.671 66.083H209.275C209.291 66.3214 209.291 66.5607 209.275 66.7991H204.998C204.79 67.9329 204.582 68.9473 204.344 70.0513Z" fill="#606062"></path>
  <path fill-rule="evenodd" clip-rule="evenodd" d="M295.344 70.0506H299.353C299.337 70.289 299.337 70.5283 299.353 70.7667H295.819C295.373 70.7667 295.195 70.7667 295.106 71.3634C294.957 72.3182 294.72 73.273 294.512 74.3471H299.175C299.175 74.6156 299.175 74.7946 299.175 75.0035H293.68C294.007 73.4818 294.304 72.0198 294.601 70.4982C294.898 68.9765 295.136 68.0515 295.344 66.8282C295.344 66.3807 295.581 66.2017 296.056 66.2017H300.363C300.363 66.7387 300.363 66.9476 299.739 66.9177C298.7 66.9177 297.69 66.9177 296.769 66.9177C296.383 66.9177 296.235 66.9177 296.145 67.425C295.73 68.2604 295.551 69.1257 295.344 70.0506Z" fill="#606062"></path>
  <path fill-rule="evenodd" clip-rule="evenodd" d="M103.098 68.7973H102.385C102.377 68.3089 102.206 67.8374 101.899 67.4586C101.592 67.0798 101.167 66.8157 100.692 66.7087C100.15 66.5859 99.5834 66.6187 99.0583 66.8033C98.5332 66.9879 98.0703 67.317 97.7223 67.753C97.1503 68.4072 96.7546 69.1976 96.5726 70.0488C96.3906 70.9001 96.4286 71.784 96.6828 72.6164C96.7841 73.117 97.0445 73.5709 97.4248 73.9099C97.8051 74.2489 98.2847 74.4547 98.7915 74.4961C99.2943 74.5913 99.8139 74.5344 100.284 74.3325C100.755 74.1307 101.155 73.793 101.435 73.3623C101.627 73.0677 101.796 72.7584 101.94 72.4374H102.593C102.422 73.2741 101.955 74.02 101.277 74.536C100.599 75.0519 99.7583 75.3029 98.9103 75.2421C98.0538 75.2191 97.2391 74.8651 96.636 74.2537C96.033 73.6422 95.688 72.8206 95.673 71.96C95.4775 70.3978 95.9045 68.8213 96.861 67.574C97.2851 66.987 97.8601 66.5269 98.5246 66.2431C99.189 65.9593 99.9178 65.8624 100.633 65.9628C101.332 66.0164 101.981 66.3434 102.442 66.8736C102.903 67.4037 103.139 68.0945 103.098 68.7973V68.7973Z" fill="#606062"></path>
  <path fill-rule="evenodd" clip-rule="evenodd" d="M228.816 72.4373C228.643 73.2499 228.191 73.9756 227.54 74.4881C226.889 75.0006 226.079 75.2674 225.252 75.2419C224.422 75.2611 223.614 74.9643 222.992 74.4111C222.37 73.8579 221.978 73.089 221.896 72.2583C221.775 71.4696 221.812 70.6646 222.006 69.8907C222.2 69.1168 222.546 68.3899 223.025 67.7529C223.498 67.0729 224.168 66.556 224.944 66.273C225.72 65.99 226.564 65.9545 227.361 66.1715C227.952 66.3186 228.472 66.673 228.826 67.1709C229.18 67.6687 229.345 68.2772 229.292 68.8867H228.608C228.604 68.3927 228.43 67.9152 228.117 67.5348C227.803 67.1543 227.368 66.8942 226.886 66.7981C226.34 66.6786 225.772 66.716 225.247 66.906C224.722 67.096 224.26 67.4309 223.916 67.8722C223.359 68.5407 222.975 69.3374 222.798 70.1913C222.622 71.0451 222.659 71.9295 222.906 72.7655C223.046 73.2897 223.349 73.7553 223.771 74.0936C224.193 74.432 224.713 74.6253 225.252 74.6452C225.811 74.6547 226.361 74.5057 226.839 74.2155C227.317 73.9252 227.704 73.5054 227.955 73.0042C228.163 72.3776 228.163 72.3776 228.816 72.4373Z" fill="#606062"></path>
  <path fill-rule="evenodd" clip-rule="evenodd" d="M289.522 72.4678C289.335 73.2594 288.887 73.9642 288.251 74.4679C287.615 74.9715 286.828 75.2446 286.018 75.2426C285.174 75.2778 284.348 74.989 283.708 74.4348C283.068 73.8807 282.662 73.1028 282.573 72.259C282.348 70.6529 282.764 69.0228 283.731 67.7238C284.172 67.0874 284.792 66.5972 285.511 66.3156C286.23 66.034 287.017 65.9737 287.77 66.1424C288.424 66.2318 289.019 66.5691 289.433 67.085C289.847 67.6009 290.049 68.2565 289.998 68.9173H289.374C288.75 67.1569 288.067 66.5601 286.641 66.7988C285.958 66.924 285.322 67.2334 284.8 67.694C284.136 68.3597 283.673 69.1998 283.463 70.1181C283.253 71.0363 283.304 71.9955 283.612 72.8855C283.751 73.4001 284.058 73.853 284.483 74.172C284.908 74.4911 285.428 74.6579 285.958 74.6459C286.508 74.6929 287.059 74.5618 287.529 74.2719C287.999 73.982 288.365 73.5484 288.572 73.0347C288.78 72.4678 288.988 72.259 289.522 72.4678Z" fill="#606062"></path>
  <path fill-rule="evenodd" clip-rule="evenodd" d="M218.808 66.2616C217.917 67.5148 217.055 68.7381 216.135 69.9017C215.997 70.0638 215.921 70.2702 215.921 70.4835C215.921 70.6969 215.997 70.9032 216.135 71.0653C216.818 72.3185 217.442 73.6313 218.065 74.9143C217.501 75.1231 217.234 74.9143 216.996 74.4369C216.491 73.3329 215.927 72.2887 215.363 71.125C214.561 72.2887 213.788 73.3329 213.076 74.4369C212.96 74.6695 212.76 74.8487 212.517 74.9376C212.274 75.0264 212.006 75.0181 211.769 74.9143C212.749 73.5716 213.67 72.229 214.739 70.9162C214.877 70.754 214.953 70.5477 214.953 70.3343C214.953 70.121 214.877 69.9147 214.739 69.7525C214.145 68.6187 213.581 67.4551 212.987 66.2616C213.521 66.0528 213.818 66.2616 214.056 66.6793C214.293 67.0971 214.947 68.5889 215.481 69.663L217.085 67.4253C217.263 67.1567 217.501 66.8882 217.679 66.5898C217.857 66.2915 218.243 66.0826 218.808 66.2616Z" fill="#606062"></path>
  <path fill-rule="evenodd" clip-rule="evenodd" d="M170.754 66.1714C170.754 66.4698 170.754 66.6488 170.754 66.8875H166.714C166.507 67.9616 166.299 68.976 166.061 70.0502H169.744C169.744 70.6171 169.744 70.7663 169.12 70.7663H166.358C166.239 70.7913 166.128 70.8452 166.035 70.9232C165.942 71.0012 165.869 71.101 165.823 71.2138C165.526 72.4371 165.289 73.6903 165.022 74.9732H164.249C164.725 72.6758 165.2 70.438 165.645 68.2003C165.645 67.6632 165.853 67.1262 166.002 66.5891C166.045 66.4887 166.111 66.3992 166.193 66.327C166.275 66.2548 166.372 66.2016 166.477 66.1714H170.754Z" fill="#606062"></path>
  <path fill-rule="evenodd" clip-rule="evenodd" d="M130.63 74.9737H129.828C130.392 72.2884 130.927 69.6329 131.521 66.8879H128.937V66.7387C128.937 66.5299 129.234 66.2017 129.412 66.2017C131.224 66.2017 133.065 66.2017 134.906 66.2017C134.906 66.7686 134.906 66.9476 134.283 66.9177C133.659 66.8879 133.095 66.9177 132.471 66.9177C131.758 69.603 131.194 72.2585 130.63 74.9737Z" fill="#606062"></path>
  <path fill-rule="evenodd" clip-rule="evenodd" d="M252.754 74.2578H257.15C257.15 74.7053 257.15 75.0037 256.675 75.0037H251.774C252.041 73.6312 252.309 72.3482 252.576 71.0354C252.843 69.7226 253.229 68.0517 253.467 66.7687C253.467 66.2018 253.823 66.0526 254.417 66.2317C253.853 68.8871 253.348 71.5426 252.754 74.2578Z" fill="#606062"></path>
  <path fill-rule="evenodd" clip-rule="evenodd" d="M243.755 74.258H248.18C248.18 74.6459 248.18 75.0039 247.735 75.0039H242.745L243.725 70.23C243.963 69.0366 244.26 67.8431 244.468 66.6198C244.468 66.0827 244.795 65.9335 245.389 66.1424C244.854 68.8874 244.438 71.513 243.755 74.258Z" fill="#606062"></path>
  <defs>
    <linearGradient id="paint0_linear_172_196" x1="71.7351" y1="28.1899" x2="32.351" y2="67.393" gradientUnits="userSpaceOnUse">
      <stop stop-color="#2CB2F0"></stop>
      <stop offset="1" stop-color="#076C9C"></stop>
    </linearGradient>
    <linearGradient id="paint1_linear_172_196" x1="29.2647" y1="73.7207" x2="29.2647" y2="39.0205" gradientUnits="userSpaceOnUse">
      <stop></stop>
      <stop offset="1" stop-color="#3E3E3E"></stop>
    </linearGradient>
    <linearGradient id="paint2_linear_172_196" x1="266.108" y1="1446.01" x2="149.396" y2="1503.99" gradientUnits="userSpaceOnUse">
      <stop stop-color="#2CB2F0"></stop>
      <stop offset="1" stop-color="#076C9C"></stop>
    </linearGradient>
  </defs>
</svg>
